<?xml version="1.0" standalone="no"?>
<!DOCTYPE svg PUBLIC "-//W3C//DTD SVG 1.1//EN" "http://www.w3.org/Graphics/SVG/1.1/DTD/svg11.dtd" >
<svg xmlns="http://www.w3.org/2000/svg" xmlns:xlink="http://www.w3.org/1999/xlink" version="1.1">
<metadata>
Created by Christoph Koeberlin (http://christoph.koe.berlin)
Exclusively designed for Red Bull TV. Copyright (c) 2015, 2017 by Red Bull Media House GmbH. All rights reserved.
</metadata>
<defs>
<font id="Font" horiz-adv-x="0" >
  <font-face 
    font-family="Font"
    font-weight="900"
    font-stretch="normal"
    units-per-em="1000"
    panose-1="2 11 10 4 4 0 0 0 0 0"
    ascent="800"
    descent="-200"
    x-height="507"
    cap-height="673"
    bbox="-292 -223 1295 1003"
    underline-thickness="100"
    underline-position="-110"
    unicode-range="U+0020-FB02"
  />
<missing-glyph horiz-adv-x="730" 
d="M673 673v-673h-616v673h616zM529 543h-330l330 -426v426z" />
    <glyph glyph-name="uniFB01" unicode="fi" horiz-adv-x="709" 
d="M336 518q-24 0 -33.5 -8t-9.5 -28v-3h104v-184h-104v-295h-221v295h-67v184h67q3 101 60.5 147.5t181.5 46.5h83v-155h-61zM556 540q-26 0 -48 9t-38.5 25t-25.5 37.5t-9 46.5t9 46t25.5 37t38.5 25t48 9t48 -9t38.5 -25t25.5 -37t9 -46t-9 -46.5t-25.5 -37.5t-38.5 -25
t-48 -9zM445 507h221v-507h-221v507z" />
    <glyph glyph-name="uniFB02" unicode="fl" horiz-adv-x="709" 
d="M336 518q-24 0 -33.5 -8t-9.5 -28v-3h104v-184h-104v-295h-221v295h-67v184h67q3 101 60.5 147.5t181.5 46.5h83v-155h-61zM445 673h221v-673h-221v673z" />
    <glyph glyph-name=".notdef" horiz-adv-x="730" 
d="M673 673v-673h-616v673h616zM529 543h-330l330 -426v426z" />
    <glyph glyph-name="glyph1" 
 />
    <glyph glyph-name="glyph2" horiz-adv-x="270" 
 />
    <glyph glyph-name="space" unicode=" " horiz-adv-x="270" 
 />
    <glyph glyph-name="A" unicode="A" horiz-adv-x="698" 
d="M441 103h-183l-31 -103h-236l238 673h240l238 -673h-236zM349 445l-47 -182h95z" />
    <glyph glyph-name="B" unicode="B" horiz-adv-x="656" 
d="M527 340q54 -22 83 -62.5t29 -96.5q0 -42 -16.5 -75.5t-47 -57t-74.5 -36t-98 -12.5h-346v673h300q118 0 184 -49t66 -138q0 -98 -80 -146zM381 172q21 0 34.5 11.5t13.5 34.5q0 21 -13.5 32.5t-35.5 11.5h-114v-90h115zM266 501v-88h88q21 0 34 12t13 32q0 22 -13 33
t-35 11h-87z" />
    <glyph glyph-name="C" unicode="C" horiz-adv-x="781" 
d="M391 -14q-81 0 -149 26t-117 72.5t-76 110.5t-27 141t27.5 141.5t76.5 111t117 72.5t149 26q77 0 143 -23t114.5 -64.5t77.5 -98.5t32 -126h-234q-11 48 -47.5 76.5t-87.5 28.5q-60 0 -96 -39t-36 -104q0 -66 36 -105t96 -39q51 0 87.5 28.5t47.5 76.5h234
q-4 -69 -32.5 -126.5t-77.5 -98.5t-114.5 -64t-143.5 -23z" />
    <glyph glyph-name="D" unicode="D" horiz-adv-x="748" 
d="M57 673h298q82 0 150 -25t117 -69t76.5 -105.5t27.5 -134.5t-28 -135t-77.5 -107.5t-117.5 -71t-148 -25.5h-298v673zM354 203q64 0 100 36.5t36 99.5q0 62 -35.5 96.5t-100.5 34.5h-71v-267h71z" />
    <glyph glyph-name="E" unicode="E" horiz-adv-x="534" 
d="M57 673h431v-188h-205v-60h195v-174h-195v-63h216v-188h-442v673z" />
    <glyph glyph-name="F" unicode="F" horiz-adv-x="512" 
d="M57 673h430v-203h-204v-65h196v-191h-196v-214h-226v673z" />
    <glyph glyph-name="G" unicode="G" horiz-adv-x="779" 
d="M397 375h340v-215q-51 -83 -140 -128.5t-201 -45.5q-84 0 -152.5 25.5t-118 72t-76.5 111.5t-27 143t26.5 142.5t75.5 110t117 71t151 25.5q69 0 127.5 -17.5t103.5 -50t74 -79t40 -104.5h-243q-31 53 -100 53q-68 0 -107 -41.5t-39 -113.5q0 -73 41.5 -115t114.5 -42
q31 0 60 8t52 22v31h-119v137z" />
    <glyph glyph-name="H" unicode="H" horiz-adv-x="707" 
d="M57 673h225v-230h143v230h225v-673h-225v240h-143v-240h-225v673z" />
    <glyph glyph-name="I" unicode="I" horiz-adv-x="340" 
d="M57 673h226v-673h-226v673z" />
    <glyph glyph-name="J" unicode="J" horiz-adv-x="406" 
d="M3 203h53q37 0 52.5 11.5t15.5 38.5v420h225v-454q0 -219 -245 -219h-101v203z" />
    <glyph glyph-name="K" unicode="K" horiz-adv-x="693" 
d="M444 0l-161 272v-272h-226v673h226v-254l154 254h253l-198 -324l217 -349h-265z" />
    <glyph glyph-name="L" unicode="L" horiz-adv-x="499" 
d="M57 673h226v-470h202v-203h-428v673z" />
    <glyph glyph-name="M" unicode="M" horiz-adv-x="889" 
d="M832 673v-673h-210v358l-93 -358h-170l-92 357v-357h-210v673h290l98 -377l96 377h291z" />
    <glyph glyph-name="N" unicode="N" horiz-adv-x="708" 
d="M651 673v-673h-231l-149 308v-308h-214v673h231l149 -309v309h214z" />
    <glyph glyph-name="O" unicode="O" horiz-adv-x="795" 
d="M398 -14q-83 0 -152 26t-119 72.5t-77.5 111t-27.5 141.5t27.5 141.5t77.5 111t119 72t152 25.5q82 0 151 -26t119 -72.5t77.5 -110.5t27.5 -141t-27.5 -141.5t-77.5 -111t-119 -72.5t-151 -26zM398 193q62 0 100.5 40t38.5 104q0 31 -10 57.5t-28.5 45.5t-44 29.5
t-56.5 10.5t-57 -10.5t-44.5 -29.5t-28.5 -45.5t-10 -57.5q0 -32 10 -58.5t28.5 -45.5t44.5 -29.5t57 -10.5z" />
    <glyph glyph-name="P" unicode="P" horiz-adv-x="602" 
d="M57 673h265q63 0 113 -16.5t85 -47.5t53.5 -75.5t18.5 -100.5q0 -109 -71 -170t-199 -61h-39v-202h-226v673zM319 374q25 0 40.5 16.5t15.5 42.5t-15.5 42t-40.5 16h-36v-117h36z" />
    <glyph glyph-name="Q" unicode="Q" horiz-adv-x="795" 
d="M796 52v-193l-479 133q-143 40 -219 126.5t-76 210.5q0 76 29 141.5t79 113.5t118.5 75.5t148.5 27.5t148.5 -26.5t119 -72.5t79.5 -109.5t29 -136.5q0 -81 -35 -144t-100 -103zM398 480q-31 0 -57 -10.5t-44.5 -29.5t-28.5 -45.5t-10 -57.5q0 -32 10 -58.5t28.5 -45.5
t44.5 -29.5t57 -10.5q62 0 100.5 40t38.5 104q0 31 -10 57.5t-28.5 45.5t-44 29.5t-56.5 10.5z" />
    <glyph glyph-name="R" unicode="R" horiz-adv-x="644" 
d="M57 673h265q63 0 113 -16.5t85 -47.5t53.5 -75.5t18.5 -100.5q0 -60 -22.5 -106t-64.5 -76l139 -251h-259l-98 202h-4v-202h-226v673zM319 374q25 0 40.5 16.5t15.5 42.5t-15.5 42t-40.5 16h-36v-117h36z" />
    <glyph glyph-name="S" unicode="S" horiz-adv-x="574" 
d="M291 -15q-128 0 -201.5 63t-76.5 176h212q1 -65 59 -65q22 0 35.5 9.5t13.5 24.5t-9.5 24t-34.5 17l-74 25q-181 61 -181 218q0 47 18.5 85.5t52.5 66.5t81 43t104 15q115 0 179.5 -57.5t72.5 -167.5h-207q-3 52 -45 52q-17 0 -27.5 -9t-10.5 -23t10 -23.5t33 -17.5
l77 -28q50 -18 85 -37.5t57 -44.5t32 -55t10 -69q0 -52 -18.5 -93t-52.5 -69.5t-83.5 -44t-110.5 -15.5z" />
    <glyph glyph-name="T" unicode="T" horiz-adv-x="586" 
d="M173 470h-153v203h546v-203h-167v-470h-226v470z" />
    <glyph glyph-name="U" unicode="U" horiz-adv-x="698" 
d="M347 -14q-66 0 -120.5 20.5t-93.5 58t-60 90.5t-21 117v401h226v-398q0 -36 18 -56t51 -20q73 0 73 76v398h226v-401q0 -65 -21.5 -117.5t-60.5 -90t-94 -58t-123 -20.5z" />
    <glyph glyph-name="V" unicode="V" horiz-adv-x="660" 
d="M669 673l-219 -673h-241l-218 673h244l96 -379l94 379h244z" />
    <glyph glyph-name="W" unicode="W" horiz-adv-x="1003" 
d="M995 673l-177 -673h-240l-76 381l-77 -381h-239l-178 673h244l70 -360l65 360h229l65 -360l70 360h244z" />
    <glyph glyph-name="X" unicode="X" horiz-adv-x="699" 
d="M439 0l-90 176l-89 -176h-255l202 345l-191 328h254l82 -162l74 162h255l-189 -328l202 -345h-255z" />
    <glyph glyph-name="Y" unicode="Y" horiz-adv-x="649" 
d="M437 287v-287h-226v289l-222 384h260l76 -169l76 169h259z" />
    <glyph glyph-name="Z" unicode="Z" horiz-adv-x="569" 
d="M537 203v-203h-505v183l221 287h-218v203h498v-183l-227 -287h231z" />
    <glyph glyph-name="Aacute" unicode="&#xc1;" horiz-adv-x="698" 
d="M441 103h-183l-31 -103h-236l238 673h240l238 -673h-236zM349 445l-47 -182h95zM321 920h254l-130 -196h-183z" />
    <glyph glyph-name="Abreve" unicode="&#x102;" horiz-adv-x="698" 
d="M441 103h-183l-31 -103h-236l238 673h240l238 -673h-236zM349 445l-47 -182h95zM348 717q-107 0 -168.5 53.5t-61.5 149.5h156q0 -29 20.5 -45.5t54.5 -16.5q33 0 53.5 16.5t20.5 45.5h156q0 -96 -61.5 -149.5t-169.5 -53.5z" />
    <glyph glyph-name="Acircumflex" unicode="&#xc2;" horiz-adv-x="698" 
d="M441 103h-183l-31 -103h-236l238 673h240l238 -673h-236zM349 445l-47 -182h95zM414 724l-65 71l-65 -71h-172l150 196h176l149 -196h-173z" />
    <glyph glyph-name="Adieresis" unicode="&#xc4;" horiz-adv-x="698" 
d="M441 103h-183l-31 -103h-236l238 673h240l238 -673h-236zM349 445l-47 -182h95zM218 712q-23 0 -44 9t-37 24t-25.5 35t-9.5 42q0 23 9 43.5t24.5 35.5t37 23.5t45.5 8.5q51 0 84 -31.5t33 -79.5q0 -23 -9 -43t-25 -35t-37.5 -23.5t-45.5 -8.5zM479 712q-24 0 -45 9
t-36.5 24t-25 35t-9.5 42q0 23 9 43.5t24.5 35.5t37 23.5t45.5 8.5q51 0 84 -31.5t33 -79.5q0 -23 -9 -43t-25 -35t-37.5 -23.5t-45.5 -8.5z" />
    <glyph glyph-name="Agrave" unicode="&#xc0;" horiz-adv-x="698" 
d="M441 103h-183l-31 -103h-236l238 673h240l238 -673h-236zM349 445l-47 -182h95zM136 920h246l58 -196h-183z" />
    <glyph glyph-name="Amacron" unicode="&#x100;" horiz-adv-x="698" 
d="M441 103h-183l-31 -103h-236l238 673h240l238 -673h-236zM349 445l-47 -182h95zM167 898h363v-161h-363v161z" />
    <glyph glyph-name="Aogonek" unicode="&#x104;" horiz-adv-x="698" 
d="M441 103h-183l-31 -103h-236l238 673h240l238 -673h-236zM349 445l-47 -182h95zM612 -193q-72 0 -113 30t-41 81q0 49 46 90t122 61l81 -69l-21 -11q-14 -7 -20 -13t-6 -17q0 -22 24 -22h23v-122q-29 -4 -52 -6t-43 -2z" />
    <glyph glyph-name="Aring" unicode="&#xc5;" horiz-adv-x="698" 
d="M441 103h-183l-31 -103h-236l238 673h240l238 -673h-236zM349 445l-47 -182h95zM348 717q-33 0 -60.5 10.5t-47.5 29.5t-31 45.5t-11 58.5q0 31 11 57.5t31 45t47.5 29t60.5 10.5t61 -10.5t48 -29t31 -45t11 -57.5q0 -32 -11 -58.5t-31 -45.5t-48 -29.5t-61 -10.5z
M350 824q16 0 25.5 10t9.5 27q0 35 -35 35q-17 0 -26.5 -9.5t-9.5 -25.5q0 -17 9.5 -27t26.5 -10z" />
    <glyph glyph-name="Atilde" unicode="&#xc3;" horiz-adv-x="698" 
d="M441 103h-183l-31 -103h-236l238 673h240l238 -673h-236zM349 445l-47 -182h95zM440 709q-24 0 -48 5t-56 18q-29 11 -45.5 15t-33.5 4q-31 0 -57 -7.5t-59 -27.5v153q35 23 60.5 32.5t56.5 9.5q24 0 48 -5t56 -18q29 -11 45.5 -15t33.5 -4q31 0 57 7.5t59 27.5v-153
q-35 -23 -60.5 -32.5t-56.5 -9.5z" />
    <glyph glyph-name="AE" unicode="&#xc6;" horiz-adv-x="883" 
d="M848 188v-188h-386l-15 85h-198l-33 -85h-231l276 673h576v-188h-248l10 -60h228v-174h-200l10 -63h211zM388 493l-83 -247h118z" />
    <glyph glyph-name="Cacute" unicode="&#x106;" horiz-adv-x="781" 
d="M391 -14q-81 0 -149 26t-117 72.5t-76 110.5t-27 141t27.5 141.5t76.5 111t117 72.5t149 26q77 0 143 -23t114.5 -64.5t77.5 -98.5t32 -126h-234q-11 48 -47.5 76.5t-87.5 28.5q-60 0 -96 -39t-36 -104q0 -66 36 -105t96 -39q51 0 87.5 28.5t47.5 76.5h234
q-4 -69 -32.5 -126.5t-77.5 -98.5t-114.5 -64t-143.5 -23zM364 920h254l-130 -196h-183z" />
    <glyph glyph-name="Ccaron" unicode="&#x10c;" horiz-adv-x="781" 
d="M391 -14q-81 0 -149 26t-117 72.5t-76 110.5t-27 141t27.5 141.5t76.5 111t117 72.5t149 26q77 0 143 -23t114.5 -64.5t77.5 -98.5t32 -126h-234q-11 48 -47.5 76.5t-87.5 28.5q-60 0 -96 -39t-36 -104q0 -66 36 -105t96 -39q51 0 87.5 28.5t47.5 76.5h234
q-4 -69 -32.5 -126.5t-77.5 -98.5t-114.5 -64t-143.5 -23zM629 920l-150 -196h-176l-149 196h173l65 -71l65 71h172z" />
    <glyph glyph-name="Ccedilla" unicode="&#xc7;" horiz-adv-x="781" 
d="M391 -14q-81 0 -149 26t-117 72.5t-76 110.5t-27 141t27.5 141.5t76.5 111t117 72.5t149 26q77 0 143 -23t114.5 -64.5t77.5 -98.5t32 -126h-234q-11 48 -47.5 76.5t-87.5 28.5q-60 0 -96 -39t-36 -104q0 -66 36 -105t96 -39q51 0 87.5 28.5t47.5 76.5h234
q-4 -69 -32.5 -126.5t-77.5 -98.5t-114.5 -64t-143.5 -23zM347 -195q-23 0 -42 1t-49 4v129h59q21 0 33 10.5t12 28.5q0 14 -3 26t-12 30l97 31q36 -24 56 -54.5t20 -62.5q0 -143 -171 -143z" />
    <glyph glyph-name="Eth" unicode="&#xd0;" horiz-adv-x="772" 
d="M379 673q81 0 149.5 -24.5t117.5 -69t76.5 -106t27.5 -134.5t-28 -135t-77.5 -107.5t-117.5 -71t-148 -25.5h-298v256h-68v162h68v255h298zM378 203q64 0 100 36.5t36 99.5q0 62 -35.5 96.5t-100.5 34.5h-71v-52h89v-162h-89v-53h71z" />
    <glyph glyph-name="Dcaron" unicode="&#x10e;" horiz-adv-x="748" 
d="M57 673h298q82 0 150 -25t117 -69t76.5 -105.5t27.5 -134.5t-28 -135t-77.5 -107.5t-117.5 -71t-148 -25.5h-298v673zM354 203q64 0 100 36.5t36 99.5q0 62 -35.5 96.5t-100.5 34.5h-71v-267h71zM549 920l-150 -196h-176l-149 196h173l65 -71l65 71h172z" />
    <glyph glyph-name="Dcroat" unicode="&#x110;" horiz-adv-x="772" 
d="M379 673q81 0 149.5 -24.5t117.5 -69t76.5 -106t27.5 -134.5t-28 -135t-77.5 -107.5t-117.5 -71t-148 -25.5h-298v256h-68v162h68v255h298zM378 203q64 0 100 36.5t36 99.5q0 62 -35.5 96.5t-100.5 34.5h-71v-52h89v-162h-89v-53h71z" />
    <glyph glyph-name="Eacute" unicode="&#xc9;" horiz-adv-x="534" 
d="M57 673h431v-188h-205v-60h195v-174h-195v-63h216v-188h-442v673zM245 920h254l-130 -196h-183z" />
    <glyph glyph-name="Ebreve" unicode="&#x114;" horiz-adv-x="534" 
d="M57 673h431v-188h-205v-60h195v-174h-195v-63h216v-188h-442v673zM272 717q-107 0 -168.5 53.5t-61.5 149.5h156q0 -29 20.5 -45.5t54.5 -16.5q33 0 53.5 16.5t20.5 45.5h156q0 -96 -61.5 -149.5t-169.5 -53.5z" />
    <glyph glyph-name="Ecaron" unicode="&#x11a;" horiz-adv-x="534" 
d="M57 673h431v-188h-205v-60h195v-174h-195v-63h216v-188h-442v673zM510 920l-150 -196h-176l-149 196h173l65 -71l65 71h172z" />
    <glyph glyph-name="Ecircumflex" unicode="&#xca;" horiz-adv-x="534" 
d="M57 673h431v-188h-205v-60h195v-174h-195v-63h216v-188h-442v673zM338 724l-65 71l-65 -71h-172l150 196h176l149 -196h-173z" />
    <glyph glyph-name="Edieresis" unicode="&#xcb;" horiz-adv-x="534" 
d="M57 673h431v-188h-205v-60h195v-174h-195v-63h216v-188h-442v673zM142 712q-23 0 -44 9t-37 24t-25.5 35t-9.5 42q0 23 9 43.5t24.5 35.5t37 23.5t45.5 8.5q51 0 84 -31.5t33 -79.5q0 -23 -9 -43t-25 -35t-37.5 -23.5t-45.5 -8.5zM403 712q-24 0 -45 9t-36.5 24t-25 35
t-9.5 42q0 23 9 43.5t24.5 35.5t37 23.5t45.5 8.5q51 0 84 -31.5t33 -79.5q0 -23 -9 -43t-25 -35t-37.5 -23.5t-45.5 -8.5z" />
    <glyph glyph-name="Edotaccent" unicode="&#x116;" horiz-adv-x="534" 
d="M57 673h431v-188h-205v-60h195v-174h-195v-63h216v-188h-442v673zM272 698q-27 0 -50.5 9.5t-41 26.5t-27.5 39.5t-10 48.5t10 49t27.5 40t41 26.5t50.5 9.5t51 -9.5t42 -26.5t28 -40t10 -49t-10 -48.5t-28 -39.5t-42 -26.5t-51 -9.5z" />
    <glyph glyph-name="Egrave" unicode="&#xc8;" horiz-adv-x="534" 
d="M57 673h431v-188h-205v-60h195v-174h-195v-63h216v-188h-442v673zM60 920h246l58 -196h-183z" />
    <glyph glyph-name="Emacron" unicode="&#x112;" horiz-adv-x="534" 
d="M57 673h431v-188h-205v-60h195v-174h-195v-63h216v-188h-442v673zM91 898h363v-161h-363v161z" />
    <glyph glyph-name="Eogonek" unicode="&#x118;" horiz-adv-x="534" 
d="M57 673h431v-188h-205v-60h195v-174h-195v-63h216v-188h-442v673zM404 -193q-72 0 -113 30t-41 81q0 49 46 90t122 61l81 -69l-21 -11q-14 -7 -20 -13t-6 -17q0 -22 24 -22h23v-122q-29 -4 -52 -6t-43 -2z" />
    <glyph glyph-name="Gbreve" unicode="&#x11e;" horiz-adv-x="779" 
d="M397 375h340v-215q-51 -83 -140 -128.5t-201 -45.5q-84 0 -152.5 25.5t-118 72t-76.5 111.5t-27 143t26.5 142.5t75.5 110t117 71t151 25.5q69 0 127.5 -17.5t103.5 -50t74 -79t40 -104.5h-243q-31 53 -100 53q-68 0 -107 -41.5t-39 -113.5q0 -73 41.5 -115t114.5 -42
q31 0 60 8t52 22v31h-119v137zM393 717q-107 0 -168.5 53.5t-61.5 149.5h156q0 -29 20.5 -45.5t54.5 -16.5q33 0 53.5 16.5t20.5 45.5h156q0 -96 -61.5 -149.5t-169.5 -53.5z" />
    <glyph glyph-name="uni0122" unicode="&#x122;" horiz-adv-x="779" 
d="M397 375h340v-215q-51 -83 -140 -128.5t-201 -45.5q-84 0 -152.5 25.5t-118 72t-76.5 111.5t-27 143t26.5 142.5t75.5 110t117 71t151 25.5q69 0 127.5 -17.5t103.5 -50t74 -79t40 -104.5h-243q-31 53 -100 53q-68 0 -107 -41.5t-39 -113.5q0 -73 41.5 -115t114.5 -42
q31 0 60 8t52 22v31h-119v137zM288 -41h195l-27 -179h-168v179z" />
    <glyph glyph-name="Iacute" unicode="&#xcd;" horiz-adv-x="340" 
d="M57 673h226v-673h-226v673zM142 920h254l-130 -196h-183z" />
    <glyph glyph-name="Ibreve" unicode="&#x12c;" horiz-adv-x="340" 
d="M57 673h226v-673h-226v673zM169 717q-107 0 -168.5 53.5t-61.5 149.5h156q0 -29 20.5 -45.5t54.5 -16.5q33 0 53.5 16.5t20.5 45.5h156q0 -96 -61.5 -149.5t-169.5 -53.5z" />
    <glyph glyph-name="Icircumflex" unicode="&#xce;" horiz-adv-x="340" 
d="M57 673h226v-673h-226v673zM235 724l-65 71l-65 -71h-172l150 196h176l149 -196h-173z" />
    <glyph glyph-name="Idieresis" unicode="&#xcf;" horiz-adv-x="340" 
d="M57 673h226v-673h-226v673zM39 712q-23 0 -44 9t-37 24t-25.5 35t-9.5 42q0 23 9 43.5t24.5 35.5t37 23.5t45.5 8.5q51 0 84 -31.5t33 -79.5q0 -23 -9 -43t-25 -35t-37.5 -23.5t-45.5 -8.5zM300 712q-24 0 -45 9t-36.5 24t-25 35t-9.5 42q0 23 9 43.5t24.5 35.5t37 23.5
t45.5 8.5q51 0 84 -31.5t33 -79.5q0 -23 -9 -43t-25 -35t-37.5 -23.5t-45.5 -8.5z" />
    <glyph glyph-name="Idotaccent" unicode="&#x130;" horiz-adv-x="340" 
d="M57 673h226v-673h-226v673zM169 698q-27 0 -50.5 9.5t-41 26.5t-27.5 39.5t-10 48.5t10 49t27.5 40t41 26.5t50.5 9.5t51 -9.5t42 -26.5t28 -40t10 -49t-10 -48.5t-28 -39.5t-42 -26.5t-51 -9.5z" />
    <glyph glyph-name="Igrave" unicode="&#xcc;" horiz-adv-x="340" 
d="M57 673h226v-673h-226v673zM-43 920h246l58 -196h-183z" />
    <glyph glyph-name="Imacron" unicode="&#x12a;" horiz-adv-x="340" 
d="M57 673h226v-673h-226v673zM-12 898h363v-161h-363v161z" />
    <glyph glyph-name="Iogonek" unicode="&#x12e;" horiz-adv-x="340" 
d="M57 673h226v-673h-226v673zM187 -193q-72 0 -113 30t-41 81q0 49 46 90t122 61l81 -69l-21 -11q-14 -7 -20 -13t-6 -17q0 -22 24 -22h23v-122q-29 -4 -52 -6t-43 -2z" />
    <glyph glyph-name="uni0136" unicode="&#x136;" horiz-adv-x="693" 
d="M444 0l-161 272v-272h-226v673h226v-254l154 254h253l-198 -324l217 -349h-265zM254 -41h195l-27 -179h-168v179z" />
    <glyph glyph-name="Lacute" unicode="&#x139;" horiz-adv-x="499" 
d="M57 673h226v-470h202v-203h-428v673zM146 920h254l-130 -196h-183z" />
    <glyph glyph-name="Lcaron" unicode="&#x13d;" horiz-adv-x="571" 
d="M57 673h226v-470h202v-203h-428v673zM338 673h218l-63 -193h-155v193z" />
    <glyph glyph-name="uni013B" unicode="&#x13b;" horiz-adv-x="499" 
d="M57 673h226v-470h202v-203h-428v673zM180 -41h195l-27 -179h-168v179z" />
    <glyph glyph-name="Ldot" unicode="&#x13f;" horiz-adv-x="573" 
d="M57 673h226v-470h202v-203h-428v673zM457 289q-27 0 -50 9t-39.5 25t-26 38.5t-9.5 48.5t9.5 48.5t26 39t39.5 25.5t50 9t50 -9t39.5 -25.5t26 -39t9.5 -48.5t-9.5 -48.5t-26 -38.5t-39.5 -25t-50 -9z" />
    <glyph glyph-name="Lslash" unicode="&#x141;" horiz-adv-x="524" 
d="M82 198l-69 -30v209l69 30v266h226v-177l164 74v-209l-164 -74v-84h202v-203h-428v198z" />
    <glyph glyph-name="Nacute" unicode="&#x143;" horiz-adv-x="708" 
d="M651 673v-673h-231l-149 308v-308h-214v673h231l149 -309v309h214zM326 920h254l-130 -196h-183z" />
    <glyph glyph-name="Ncaron" unicode="&#x147;" horiz-adv-x="708" 
d="M651 673v-673h-231l-149 308v-308h-214v673h231l149 -309v309h214zM591 920l-150 -196h-176l-149 196h173l65 -71l65 71h172z" />
    <glyph glyph-name="uni0145" unicode="&#x145;" horiz-adv-x="708" 
d="M651 673v-673h-231l-149 308v-308h-214v673h231l149 -309v309h214zM248 -41h195l-27 -179h-168v179z" />
    <glyph glyph-name="Ntilde" unicode="&#xd1;" horiz-adv-x="708" 
d="M651 673v-673h-231l-149 308v-308h-214v673h231l149 -309v309h214zM445 709q-24 0 -48 5t-56 18q-29 11 -45.5 15t-33.5 4q-31 0 -57 -7.5t-59 -27.5v153q35 23 60.5 32.5t56.5 9.5q24 0 48 -5t56 -18q29 -11 45.5 -15t33.5 -4q31 0 57 7.5t59 27.5v-153
q-35 -23 -60.5 -32.5t-56.5 -9.5z" />
    <glyph glyph-name="Oacute" unicode="&#xd3;" horiz-adv-x="795" 
d="M398 -14q-83 0 -152 26t-119 72.5t-77.5 111t-27.5 141.5t27.5 141.5t77.5 111t119 72t152 25.5q82 0 151 -26t119 -72.5t77.5 -110.5t27.5 -141t-27.5 -141.5t-77.5 -111t-119 -72.5t-151 -26zM398 193q62 0 100.5 40t38.5 104q0 31 -10 57.5t-28.5 45.5t-44 29.5
t-56.5 10.5t-57 -10.5t-44.5 -29.5t-28.5 -45.5t-10 -57.5q0 -32 10 -58.5t28.5 -45.5t44.5 -29.5t57 -10.5zM370 920h254l-130 -196h-183z" />
    <glyph glyph-name="Obreve" unicode="&#x14e;" horiz-adv-x="795" 
d="M398 -14q-83 0 -152 26t-119 72.5t-77.5 111t-27.5 141.5t27.5 141.5t77.5 111t119 72t152 25.5q82 0 151 -26t119 -72.5t77.5 -110.5t27.5 -141t-27.5 -141.5t-77.5 -111t-119 -72.5t-151 -26zM398 193q62 0 100.5 40t38.5 104q0 31 -10 57.5t-28.5 45.5t-44 29.5
t-56.5 10.5t-57 -10.5t-44.5 -29.5t-28.5 -45.5t-10 -57.5q0 -32 10 -58.5t28.5 -45.5t44.5 -29.5t57 -10.5zM397 717q-107 0 -168.5 53.5t-61.5 149.5h156q0 -29 20.5 -45.5t54.5 -16.5q33 0 53.5 16.5t20.5 45.5h156q0 -96 -61.5 -149.5t-169.5 -53.5z" />
    <glyph glyph-name="Ocircumflex" unicode="&#xd4;" horiz-adv-x="795" 
d="M398 -14q-83 0 -152 26t-119 72.5t-77.5 111t-27.5 141.5t27.5 141.5t77.5 111t119 72t152 25.5q82 0 151 -26t119 -72.5t77.5 -110.5t27.5 -141t-27.5 -141.5t-77.5 -111t-119 -72.5t-151 -26zM398 193q62 0 100.5 40t38.5 104q0 31 -10 57.5t-28.5 45.5t-44 29.5
t-56.5 10.5t-57 -10.5t-44.5 -29.5t-28.5 -45.5t-10 -57.5q0 -32 10 -58.5t28.5 -45.5t44.5 -29.5t57 -10.5zM463 724l-65 71l-65 -71h-172l150 196h176l149 -196h-173z" />
    <glyph glyph-name="Odieresis" unicode="&#xd6;" horiz-adv-x="795" 
d="M398 -14q-83 0 -152 26t-119 72.5t-77.5 111t-27.5 141.5t27.5 141.5t77.5 111t119 72t152 25.5q82 0 151 -26t119 -72.5t77.5 -110.5t27.5 -141t-27.5 -141.5t-77.5 -111t-119 -72.5t-151 -26zM398 193q62 0 100.5 40t38.5 104q0 31 -10 57.5t-28.5 45.5t-44 29.5
t-56.5 10.5t-57 -10.5t-44.5 -29.5t-28.5 -45.5t-10 -57.5q0 -32 10 -58.5t28.5 -45.5t44.5 -29.5t57 -10.5zM267 712q-23 0 -44 9t-37 24t-25.5 35t-9.5 42q0 23 9 43.5t24.5 35.5t37 23.5t45.5 8.5q51 0 84 -31.5t33 -79.5q0 -23 -9 -43t-25 -35t-37.5 -23.5t-45.5 -8.5z
M528 712q-24 0 -45 9t-36.5 24t-25 35t-9.5 42q0 23 9 43.5t24.5 35.5t37 23.5t45.5 8.5q51 0 84 -31.5t33 -79.5q0 -23 -9 -43t-25 -35t-37.5 -23.5t-45.5 -8.5z" />
    <glyph glyph-name="Ograve" unicode="&#xd2;" horiz-adv-x="795" 
d="M398 -14q-83 0 -152 26t-119 72.5t-77.5 111t-27.5 141.5t27.5 141.5t77.5 111t119 72t152 25.5q82 0 151 -26t119 -72.5t77.5 -110.5t27.5 -141t-27.5 -141.5t-77.5 -111t-119 -72.5t-151 -26zM398 193q62 0 100.5 40t38.5 104q0 31 -10 57.5t-28.5 45.5t-44 29.5
t-56.5 10.5t-57 -10.5t-44.5 -29.5t-28.5 -45.5t-10 -57.5q0 -32 10 -58.5t28.5 -45.5t44.5 -29.5t57 -10.5zM185 920h246l58 -196h-183z" />
    <glyph glyph-name="Ohungarumlaut" unicode="&#x150;" horiz-adv-x="795" 
d="M398 -14q-83 0 -152 26t-119 72.5t-77.5 111t-27.5 141.5t27.5 141.5t77.5 111t119 72t152 25.5q82 0 151 -26t119 -72.5t77.5 -110.5t27.5 -141t-27.5 -141.5t-77.5 -111t-119 -72.5t-151 -26zM398 193q62 0 100.5 40t38.5 104q0 31 -10 57.5t-28.5 45.5t-44 29.5
t-56.5 10.5t-57 -10.5t-44.5 -29.5t-28.5 -45.5t-10 -57.5q0 -32 10 -58.5t28.5 -45.5t44.5 -29.5t57 -10.5zM278 920h182l-72 -196h-168zM515 920h204l-124 -196h-151z" />
    <glyph glyph-name="Omacron" unicode="&#x14c;" horiz-adv-x="795" 
d="M398 -14q-83 0 -152 26t-119 72.5t-77.5 111t-27.5 141.5t27.5 141.5t77.5 111t119 72t152 25.5q82 0 151 -26t119 -72.5t77.5 -110.5t27.5 -141t-27.5 -141.5t-77.5 -111t-119 -72.5t-151 -26zM398 193q62 0 100.5 40t38.5 104q0 31 -10 57.5t-28.5 45.5t-44 29.5
t-56.5 10.5t-57 -10.5t-44.5 -29.5t-28.5 -45.5t-10 -57.5q0 -32 10 -58.5t28.5 -45.5t44.5 -29.5t57 -10.5zM216 898h363v-161h-363v161z" />
    <glyph glyph-name="Oslash" unicode="&#xd8;" horiz-adv-x="815" 
d="M701 565q39 -45 60.5 -102.5t21.5 -125.5q0 -77 -27.5 -141.5t-77.5 -111t-119 -72.5t-151 -26q-76 0 -139 21l-34 -43h-234l112 145q-38 45 -59.5 102.5t-21.5 125.5q0 77 27.5 141.5t77.5 111t119 72t152 25.5q75 0 138 -21l34 43h234zM408 486q-64 0 -103.5 -41
t-39.5 -108q0 -29 7 -50l154 198q-5 1 -9 1h-9zM408 187q31 0 57.5 11t45 30.5t29 47t10.5 61.5q0 28 -7 50l-154 -199q5 -1 9.5 -1h9.5z" />
    <glyph glyph-name="Otilde" unicode="&#xd5;" horiz-adv-x="795" 
d="M398 -14q-83 0 -152 26t-119 72.5t-77.5 111t-27.5 141.5t27.5 141.5t77.5 111t119 72t152 25.5q82 0 151 -26t119 -72.5t77.5 -110.5t27.5 -141t-27.5 -141.5t-77.5 -111t-119 -72.5t-151 -26zM398 193q62 0 100.5 40t38.5 104q0 31 -10 57.5t-28.5 45.5t-44 29.5
t-56.5 10.5t-57 -10.5t-44.5 -29.5t-28.5 -45.5t-10 -57.5q0 -32 10 -58.5t28.5 -45.5t44.5 -29.5t57 -10.5zM489 709q-24 0 -48 5t-56 18q-29 11 -45.5 15t-33.5 4q-31 0 -57 -7.5t-59 -27.5v153q35 23 60.5 32.5t56.5 9.5q24 0 48 -5t56 -18q29 -11 45.5 -15t33.5 -4
q31 0 57 7.5t59 27.5v-153q-35 -23 -60.5 -32.5t-56.5 -9.5z" />
    <glyph glyph-name="OE" unicode="&#x152;" horiz-adv-x="999" 
d="M964 188v-188h-427v21q-68 -34 -149 -34q-80 0 -147.5 26t-116 72.5t-75.5 110.5t-27 141q0 76 27.5 140t76 110.5t116 72.5t147.5 26q39 0 77 -9t71 -25v21h416v-188h-205v-60h195v-174h-195v-63h216zM396 194q63 0 101.5 39t38.5 102q0 65 -38.5 104.5t-101.5 39.5
t-100 -39t-37 -105q0 -64 37 -102.5t100 -38.5z" />
    <glyph glyph-name="Thorn" unicode="&#xde;" horiz-adv-x="637" 
d="M57 673h232v-78h56q66 0 118 -17.5t88.5 -50t56 -79.5t19.5 -106t-20 -106.5t-56.5 -80.5t-89 -51t-116.5 -18h-56v-86h-232v673zM340 289q23 0 37 14t14 39q0 23 -14 37.5t-37 14.5h-51v-105h51z" />
    <glyph glyph-name="Racute" unicode="&#x154;" horiz-adv-x="644" 
d="M57 673h265q63 0 113 -16.5t85 -47.5t53.5 -75.5t18.5 -100.5q0 -60 -22.5 -106t-64.5 -76l139 -251h-259l-98 202h-4v-202h-226v673zM319 374q25 0 40.5 16.5t15.5 42.5t-15.5 42t-40.5 16h-36v-117h36zM284 920h254l-130 -196h-183z" />
    <glyph glyph-name="Rcaron" unicode="&#x158;" horiz-adv-x="644" 
d="M57 673h265q63 0 113 -16.5t85 -47.5t53.5 -75.5t18.5 -100.5q0 -60 -22.5 -106t-64.5 -76l139 -251h-259l-98 202h-4v-202h-226v673zM319 374q25 0 40.5 16.5t15.5 42.5t-15.5 42t-40.5 16h-36v-117h36zM549 920l-150 -196h-176l-149 196h173l65 -71l65 71h172z" />
    <glyph glyph-name="uni0156" unicode="&#x156;" horiz-adv-x="644" 
d="M57 673h265q63 0 113 -16.5t85 -47.5t53.5 -75.5t18.5 -100.5q0 -60 -22.5 -106t-64.5 -76l139 -251h-259l-98 202h-4v-202h-226v673zM319 374q25 0 40.5 16.5t15.5 42.5t-15.5 42t-40.5 16h-36v-117h36zM216 -41h195l-27 -179h-168v179z" />
    <glyph glyph-name="Sacute" unicode="&#x15a;" horiz-adv-x="574" 
d="M291 -15q-128 0 -201.5 63t-76.5 176h212q1 -65 59 -65q22 0 35.5 9.5t13.5 24.5t-9.5 24t-34.5 17l-74 25q-181 61 -181 218q0 47 18.5 85.5t52.5 66.5t81 43t104 15q115 0 179.5 -57.5t72.5 -167.5h-207q-3 52 -45 52q-17 0 -27.5 -9t-10.5 -23t10 -23.5t33 -17.5
l77 -28q50 -18 85 -37.5t57 -44.5t32 -55t10 -69q0 -52 -18.5 -93t-52.5 -69.5t-83.5 -44t-110.5 -15.5zM259 920h254l-130 -196h-183z" />
    <glyph glyph-name="Scaron" unicode="&#x160;" horiz-adv-x="574" 
d="M291 -15q-128 0 -201.5 63t-76.5 176h212q1 -65 59 -65q22 0 35.5 9.5t13.5 24.5t-9.5 24t-34.5 17l-74 25q-181 61 -181 218q0 47 18.5 85.5t52.5 66.5t81 43t104 15q115 0 179.5 -57.5t72.5 -167.5h-207q-3 52 -45 52q-17 0 -27.5 -9t-10.5 -23t10 -23.5t33 -17.5
l77 -28q50 -18 85 -37.5t57 -44.5t32 -55t10 -69q0 -52 -18.5 -93t-52.5 -69.5t-83.5 -44t-110.5 -15.5zM524 920l-150 -196h-176l-149 196h173l65 -71l65 71h172z" />
    <glyph glyph-name="Scedilla" unicode="&#x15e;" horiz-adv-x="574" 
d="M291 -15q-128 0 -201.5 63t-76.5 176h212q1 -65 59 -65q22 0 35.5 9.5t13.5 24.5t-9.5 24t-34.5 17l-74 25q-181 61 -181 218q0 47 18.5 85.5t52.5 66.5t81 43t104 15q115 0 179.5 -57.5t72.5 -167.5h-207q-3 52 -45 52q-17 0 -27.5 -9t-10.5 -23t10 -23.5t33 -17.5
l77 -28q50 -18 85 -37.5t57 -44.5t32 -55t10 -69q0 -52 -18.5 -93t-52.5 -69.5t-83.5 -44t-110.5 -15.5zM242 -195q-23 0 -42 1t-49 4v129h59q21 0 33 10.5t12 28.5q0 14 -3 26t-12 30l97 31q36 -24 56 -54.5t20 -62.5q0 -143 -171 -143z" />
    <glyph glyph-name="uni0218" unicode="&#x218;" horiz-adv-x="574" 
d="M291 -15q-128 0 -201.5 63t-76.5 176h212q1 -65 59 -65q22 0 35.5 9.5t13.5 24.5t-9.5 24t-34.5 17l-74 25q-181 61 -181 218q0 47 18.5 85.5t52.5 66.5t81 43t104 15q115 0 179.5 -57.5t72.5 -167.5h-207q-3 52 -45 52q-17 0 -27.5 -9t-10.5 -23t10 -23.5t33 -17.5
l77 -28q50 -18 85 -37.5t57 -44.5t32 -55t10 -69q0 -52 -18.5 -93t-52.5 -69.5t-83.5 -44t-110.5 -15.5zM181 -41h195l-27 -179h-168v179z" />
    <glyph glyph-name="uni018F" unicode="&#x18f;" horiz-adv-x="790" 
d="M395 -14q-90 0 -163 30t-122 84t-72 128t-13 162h507q-15 49 -53 77.5t-92 28.5q-43 0 -75.5 -18t-43.5 -47h-239q14 59 46.5 106.5t79.5 80.5t107 51t129 18q83 0 152 -25.5t119 -71.5t78 -109.5t28 -139.5q0 -79 -27 -144.5t-76 -112t-118 -72.5t-152 -26zM387 177
q51 0 87 22t53 63h-272q10 -41 44 -63t88 -22z" />
    <glyph glyph-name="Tcaron" unicode="&#x164;" horiz-adv-x="586" 
d="M173 470h-153v203h546v-203h-167v-470h-226v470zM530 920l-150 -196h-176l-149 196h173l65 -71l65 71h172z" />
    <glyph glyph-name="uni0162" unicode="&#x162;" horiz-adv-x="586" 
d="M173 470h-153v203h546v-203h-167v-470h-226v470zM248 -195q-23 0 -42 1t-49 4v129h59q21 0 33 10.5t12 28.5q0 14 -3 26t-12 30l97 31q36 -24 56 -54.5t20 -62.5q0 -143 -171 -143z" />
    <glyph glyph-name="uni021A" unicode="&#x21a;" horiz-adv-x="586" 
d="M173 470h-153v203h546v-203h-167v-470h-226v470zM187 -41h195l-27 -179h-168v179z" />
    <glyph glyph-name="Uacute" unicode="&#xda;" horiz-adv-x="698" 
d="M347 -14q-66 0 -120.5 20.5t-93.5 58t-60 90.5t-21 117v401h226v-398q0 -36 18 -56t51 -20q73 0 73 76v398h226v-401q0 -65 -21.5 -117.5t-60.5 -90t-94 -58t-123 -20.5zM321 920h254l-130 -196h-183z" />
    <glyph glyph-name="Ubreve" unicode="&#x16c;" horiz-adv-x="698" 
d="M347 -14q-66 0 -120.5 20.5t-93.5 58t-60 90.5t-21 117v401h226v-398q0 -36 18 -56t51 -20q73 0 73 76v398h226v-401q0 -65 -21.5 -117.5t-60.5 -90t-94 -58t-123 -20.5zM348 717q-107 0 -168.5 53.5t-61.5 149.5h156q0 -29 20.5 -45.5t54.5 -16.5q33 0 53.5 16.5
t20.5 45.5h156q0 -96 -61.5 -149.5t-169.5 -53.5z" />
    <glyph glyph-name="Ucircumflex" unicode="&#xdb;" horiz-adv-x="698" 
d="M347 -14q-66 0 -120.5 20.5t-93.5 58t-60 90.5t-21 117v401h226v-398q0 -36 18 -56t51 -20q73 0 73 76v398h226v-401q0 -65 -21.5 -117.5t-60.5 -90t-94 -58t-123 -20.5zM414 724l-65 71l-65 -71h-172l150 196h176l149 -196h-173z" />
    <glyph glyph-name="Udieresis" unicode="&#xdc;" horiz-adv-x="698" 
d="M347 -14q-66 0 -120.5 20.5t-93.5 58t-60 90.5t-21 117v401h226v-398q0 -36 18 -56t51 -20q73 0 73 76v398h226v-401q0 -65 -21.5 -117.5t-60.5 -90t-94 -58t-123 -20.5zM218 712q-23 0 -44 9t-37 24t-25.5 35t-9.5 42q0 23 9 43.5t24.5 35.5t37 23.5t45.5 8.5
q51 0 84 -31.5t33 -79.5q0 -23 -9 -43t-25 -35t-37.5 -23.5t-45.5 -8.5zM479 712q-24 0 -45 9t-36.5 24t-25 35t-9.5 42q0 23 9 43.5t24.5 35.5t37 23.5t45.5 8.5q51 0 84 -31.5t33 -79.5q0 -23 -9 -43t-25 -35t-37.5 -23.5t-45.5 -8.5z" />
    <glyph glyph-name="Ugrave" unicode="&#xd9;" horiz-adv-x="698" 
d="M347 -14q-66 0 -120.5 20.5t-93.5 58t-60 90.5t-21 117v401h226v-398q0 -36 18 -56t51 -20q73 0 73 76v398h226v-401q0 -65 -21.5 -117.5t-60.5 -90t-94 -58t-123 -20.5zM136 920h246l58 -196h-183z" />
    <glyph glyph-name="Uhungarumlaut" unicode="&#x170;" horiz-adv-x="698" 
d="M347 -14q-66 0 -120.5 20.5t-93.5 58t-60 90.5t-21 117v401h226v-398q0 -36 18 -56t51 -20q73 0 73 76v398h226v-401q0 -65 -21.5 -117.5t-60.5 -90t-94 -58t-123 -20.5zM229 920h182l-72 -196h-168zM466 920h204l-124 -196h-151z" />
    <glyph glyph-name="Umacron" unicode="&#x16a;" horiz-adv-x="698" 
d="M347 -14q-66 0 -120.5 20.5t-93.5 58t-60 90.5t-21 117v401h226v-398q0 -36 18 -56t51 -20q73 0 73 76v398h226v-401q0 -65 -21.5 -117.5t-60.5 -90t-94 -58t-123 -20.5zM167 898h363v-161h-363v161z" />
    <glyph glyph-name="Uogonek" unicode="&#x172;" horiz-adv-x="698" 
d="M347 -14q-66 0 -120.5 20.5t-93.5 58t-60 90.5t-21 117v401h226v-398q0 -36 18 -56t51 -20q73 0 73 76v398h226v-401q0 -65 -21.5 -117.5t-60.5 -90t-94 -58t-123 -20.5zM432 -193q-72 0 -113 30t-41 81q0 22 7.5 40.5t28.5 39t59 45t99 60.5l97 -34l-67 -72
q-14 -17 -18 -23.5t-4 -14.5q0 -22 24 -22h23v-122q-32 -5 -53.5 -6.5t-41.5 -1.5z" />
    <glyph glyph-name="Uring" unicode="&#x16e;" horiz-adv-x="698" 
d="M347 -14q-66 0 -120.5 20.5t-93.5 58t-60 90.5t-21 117v401h226v-398q0 -36 18 -56t51 -20q73 0 73 76v398h226v-401q0 -65 -21.5 -117.5t-60.5 -90t-94 -58t-123 -20.5zM348 673q-33 0 -60.5 10.5t-47.5 29.5t-31 45.5t-11 58.5q0 31 11 57.5t31 45t47.5 29t60.5 10.5
t61 -10.5t48 -29t31 -45t11 -57.5q0 -32 -11 -58.5t-31 -45.5t-48 -29.5t-61 -10.5zM350 780q16 0 25.5 10t9.5 27q0 35 -35 35q-17 0 -26.5 -9.5t-9.5 -25.5q0 -17 9.5 -27t26.5 -10z" />
    <glyph glyph-name="Yacute" unicode="&#xdd;" horiz-adv-x="649" 
d="M437 287v-287h-226v289l-222 384h260l76 -169l76 169h259zM297 920h254l-130 -196h-183z" />
    <glyph glyph-name="Ydieresis" unicode="&#x178;" horiz-adv-x="649" 
d="M437 287v-287h-226v289l-222 384h260l76 -169l76 169h259zM194 712q-23 0 -44 9t-37 24t-25.5 35t-9.5 42q0 23 9 43.5t24.5 35.5t37 23.5t45.5 8.5q51 0 84 -31.5t33 -79.5q0 -23 -9 -43t-25 -35t-37.5 -23.5t-45.5 -8.5zM455 712q-24 0 -45 9t-36.5 24t-25 35t-9.5 42
q0 23 9 43.5t24.5 35.5t37 23.5t45.5 8.5q51 0 84 -31.5t33 -79.5q0 -23 -9 -43t-25 -35t-37.5 -23.5t-45.5 -8.5z" />
    <glyph glyph-name="Zacute" unicode="&#x179;" horiz-adv-x="569" 
d="M537 203v-203h-505v183l221 287h-218v203h498v-183l-227 -287h231zM257 920h254l-130 -196h-183z" />
    <glyph glyph-name="Zcaron" unicode="&#x17d;" horiz-adv-x="569" 
d="M537 203v-203h-505v183l221 287h-218v203h498v-183l-227 -287h231zM522 920l-150 -196h-176l-149 196h173l65 -71l65 71h172z" />
    <glyph glyph-name="Zdotaccent" unicode="&#x17b;" horiz-adv-x="569" 
d="M537 203v-203h-505v183l221 287h-218v203h498v-183l-227 -287h231zM284 698q-27 0 -50.5 9.5t-41 26.5t-27.5 39.5t-10 48.5t10 49t27.5 40t41 26.5t50.5 9.5t51 -9.5t42 -26.5t28 -40t10 -49t-10 -48.5t-28 -39.5t-42 -26.5t-51 -9.5z" />
    <glyph glyph-name="Iacute_J.locl" horiz-adv-x="746" 
d="M343 203h53q37 0 52.5 11.5t15.5 38.5v420h225v-454q0 -219 -245 -219h-101v203zM545 920h254l-130 -196h-183zM57 673h226v-673h-226v673zM142 920h254l-130 -196h-183z" />
    <glyph glyph-name="Idotaccent.aalt" horiz-adv-x="340" 
d="M57 673h226v-673h-226v673zM169 698q-27 0 -50.5 9.5t-41 26.5t-27.5 39.5t-10 48.5t10 49t27.5 40t41 26.5t50.5 9.5t51 -9.5t42 -26.5t28 -40t10 -49t-10 -48.5t-28 -39.5t-42 -26.5t-51 -9.5z" />
    <glyph glyph-name="A.aalt" horiz-adv-x="451" 
d="M274 316h-99l-10 -48h-171l127 405h208l128 -405h-173zM225 542l-27 -118h53z" />
    <glyph glyph-name="C.aalt" horiz-adv-x="478" 
d="M240 260q-50 0 -91.5 15.5t-71.5 43.5t-46.5 66.5t-16.5 85.5q0 46 17 85t47 67t71.5 43.5t91.5 15.5q46 0 86 -13.5t70 -38.5t47.5 -59t19.5 -76h-174q-4 15 -16.5 23.5t-30.5 8.5q-23 0 -37 -14.5t-14 -40.5t14 -41.5t37 -15.5q18 0 30.5 8.5t16.5 23.5h174
q-2 -42 -20.5 -76.5t-48.5 -59t-70 -38t-85 -13.5z" />
    <glyph glyph-name="D.aalt" horiz-adv-x="475" 
d="M37 673h201q49 0 90 -15t70.5 -42t46 -63.5t16.5 -79.5q0 -44 -17 -81t-47 -64.5t-71 -43t-88 -15.5h-201v404zM234 412q23 0 37 15.5t14 44.5q0 28 -13.5 43t-37.5 15h-27v-118h27z" />
    <glyph glyph-name="E.aalt" horiz-adv-x="333" 
d="M37 673h270v-124h-100v-24h92v-107h-92v-25h103v-124h-273v404z" />
    <glyph glyph-name="G.aalt" horiz-adv-x="482" 
d="M245 502h210v-137q-30 -50 -86.5 -77.5t-125.5 -27.5q-52 0 -94 15.5t-72 43.5t-46.5 66.5t-16.5 85.5q0 46 16 85t46 67t72.5 43.5t94.5 15.5q83 0 141 -40t71 -113l-167 -1q-12 18 -42 18q-34 0 -53.5 -20.5t-19.5 -55.5q0 -36 21 -57t58 -21q30 0 54 11v17h-61v82z
" />
    <glyph glyph-name="H.aalt" horiz-adv-x="454" 
d="M37 673h170v-132h40v132h170v-404h-170v129h-40v-129h-170v404z" />
    <glyph glyph-name="I.aalt" horiz-adv-x="244" 
d="M37 673h170v-404h-170v404z" />
    <glyph glyph-name="J.aalt" horiz-adv-x="270" 
d="M2 412h33q16 0 22 5.5t6 19.5v236h170v-257q0 -147 -166 -147h-65v143z" />
    <glyph glyph-name="K.aalt" horiz-adv-x="461" 
d="M270 269l-63 150v-150h-170v404h170v-145l61 145h184l-98 -199l102 -205h-186z" />
    <glyph glyph-name="M.aalt" horiz-adv-x="567" 
d="M530 673v-404h-149v202l-43 -202h-110l-42 205v-205h-149v404h209l38 -164l36 164h210z" />
    <glyph glyph-name="N.aalt" horiz-adv-x="453" 
d="M416 673v-404h-165l-63 144v-144h-151v404h164l63 -146v146h152z" />
    <glyph glyph-name="P.aalt" horiz-adv-x="392" 
d="M37 673h172q83 0 129.5 -41t46.5 -114q0 -70 -46 -109.5t-130 -39.5h-12v-100h-160v404zM205 487q14 0 21.5 8.5t7.5 22.5q0 13 -7.5 21.5t-21.5 8.5h-14v-61h14z" />
    <glyph glyph-name="R.aalt" horiz-adv-x="418" 
d="M243 269l-39 100h-7v-100h-160v404h172q83 0 129.5 -41t46.5 -114q0 -66 -40 -104l73 -145h-175zM191 487h14q14 0 21.5 8.5t7.5 22.5q0 13 -7.5 21.5t-21.5 8.5h-14v-61z" />
    <glyph glyph-name="S.aalt" horiz-adv-x="367" 
d="M184 259q-85 0 -129.5 38t-46.5 108h144q1 -34 33 -34q25 0 25 17q0 8 -5.5 12t-18.5 7l-56 13q-115 27 -115 125q0 63 45 100t121 37q74 0 117.5 -37t48.5 -105h-142q0 30 -25 30q-8 0 -14.5 -4t-6.5 -13t6 -12.5t13 -5.5l58 -14q62 -15 90.5 -45.5t28.5 -81.5
q0 -65 -44.5 -100t-126.5 -35z" />
    <glyph glyph-name="T.aalt" horiz-adv-x="369" 
d="M94 520h-81v153h343v-153h-93v-251h-169v251z" />
    <glyph glyph-name="U.aalt" horiz-adv-x="448" 
d="M223 260q-42 0 -77 12t-59.5 34.5t-38.5 54.5t-14 71v241h170v-238q0 -20 19 -20q21 0 21 20v238h170v-241q0 -80 -52 -126t-139 -46z" />
    <glyph glyph-name="Z.aalt" horiz-adv-x="364" 
d="M343 412v-143h-320v128l114 133h-116v143h320v-128l-117 -133h119z" />
    <glyph glyph-name="a" unicode="a" horiz-adv-x="555" 
d="M271 521q114 0 179.5 -57t65.5 -159v-305h-193v35q-27 -25 -62 -37t-77 -12q-78 0 -123.5 41t-45.5 113q0 76 52.5 117t153.5 41h87v18q0 27 -12.5 40t-32.5 13q-38 0 -42 -46h-187q4 96 67.5 147t169.5 51zM263 122q20 0 32.5 12.5t12.5 37.5v24h-45q-17 0 -27.5 -10.5
t-10.5 -27.5t10 -26.5t28 -9.5z" />
    <glyph glyph-name="b" unicode="b" horiz-adv-x="634" 
d="M380 521q50 0 92.5 -20.5t73.5 -56.5t48.5 -86t17.5 -108q0 -59 -17 -107.5t-48.5 -83t-75 -54t-95.5 -19.5q-89 0 -132 57v-43h-201v673h221v-196q44 44 116 44zM324 178q32 0 50.5 20t18.5 55t-18.5 55.5t-50.5 20.5t-50.5 -20.5t-18.5 -55.5t18.5 -55t50.5 -20z" />
    <glyph glyph-name="c" unicode="c" horiz-adv-x="594" 
d="M301 -14q-60 0 -111.5 20.5t-89.5 56t-59.5 84.5t-21.5 106t21.5 106t59.5 85t89.5 56.5t111.5 20.5q55 0 103 -17.5t84 -49t58.5 -75.5t28.5 -98h-209q-14 46 -61 46q-31 0 -49 -19.5t-18 -54.5q0 -34 18 -53.5t49 -19.5q47 0 61 47h209q-6 -54 -28.5 -98t-58.5 -76
t-84 -49.5t-103 -17.5z" />
    <glyph glyph-name="d" unicode="d" horiz-adv-x="634" 
d="M591 673v-673h-201v43q-44 -57 -132 -57q-53 0 -96 19.5t-74.5 54t-48.5 83t-17 107.5q0 58 17.5 108t48.5 86t73.5 56.5t92.5 20.5q72 0 116 -44v196h221zM310 178q32 0 50.5 20t18.5 55t-18.5 55.5t-50.5 20.5t-50.5 -20.5t-18.5 -55.5t18.5 -55t50.5 -20z" />
    <glyph glyph-name="e" unicode="e" horiz-adv-x="592" 
d="M302 521q66 0 119 -23t89 -64t52 -97.5t9 -124.5h-356q10 -33 34.5 -52t59.5 -19q26 0 42.5 9.5t20.5 26.5h196q-21 -91 -90 -141t-173 -50q-64 0 -116.5 19t-90 54t-58.5 83.5t-21 107.5t21 109t58.5 86t89.5 56t114 20zM304 366q-29 0 -51.5 -14.5t-33.5 -41.5h163
q-6 26 -27 41t-51 15z" />
    <glyph glyph-name="f" unicode="f" horiz-adv-x="402" 
d="M336 518q-24 0 -33.5 -8t-9.5 -28v-3h104v-184h-104v-295h-221v295h-67v184h67q3 101 60.5 147.5t181.5 46.5h83v-155h-61z" />
    <glyph glyph-name="g" unicode="g" horiz-adv-x="632" 
d="M589 507v-431q0 -119 -74 -186t-212 -67q-56 0 -103 12t-81.5 35.5t-55 58.5t-23.5 82h208q5 -36 59 -36q31 0 46 14t15 46v56q-47 -44 -120 -44q-49 0 -90.5 17.5t-72 49t-48 75t-17.5 94.5q0 52 17.5 95.5t48.5 75t73.5 49.5t92.5 18q91 0 136 -60v46h201zM308 206
q32 0 50.5 20.5t18.5 55.5t-18.5 56t-50.5 21t-50.5 -21t-18.5 -56t18.5 -55.5t50.5 -20.5z" />
    <glyph glyph-name="h" unicode="h" horiz-adv-x="605" 
d="M380 521q41 0 75 -15.5t59 -43.5t38.5 -67t13.5 -86v-309h-221v275q0 21 -10.5 33.5t-29.5 12.5t-30 -12.5t-11 -33.5v-275h-221v673h221v-195q48 43 116 43z" />
    <glyph glyph-name="i" unicode="i" horiz-adv-x="307" 
d="M154 540q-26 0 -48 9t-38.5 25t-25.5 37.5t-9 46.5t9 46t25.5 37t38.5 25t48 9t48 -9t38.5 -25t25.5 -37t9 -46t-9 -46.5t-25.5 -37.5t-38.5 -25t-48 -9zM43 507h221v-507h-221v507z" />
    <glyph glyph-name="j" unicode="j" horiz-adv-x="306" 
d="M154 540q-26 0 -48 9t-38.5 25t-25.5 37.5t-9 46.5t9 46t25.5 37t38.5 25t48 9t48 -9t38.5 -25t25.5 -37t9 -46t-9 -46.5t-25.5 -37.5t-38.5 -25t-48 -9zM-44 10h26q34 0 47.5 11.5t13.5 40.5v445h220v-457q0 -103 -57.5 -158t-163.5 -55h-86v173z" />
    <glyph glyph-name="k" unicode="k" horiz-adv-x="600" 
d="M375 0l-111 194v-194h-221v673h221v-352l109 186h231l-147 -244l158 -263h-240z" />
    <glyph glyph-name="l" unicode="l" horiz-adv-x="307" 
d="M43 673h221v-673h-221v673z" />
    <glyph glyph-name="m" unicode="m" horiz-adv-x="900" 
d="M667 521q90 0 142 -57t52 -155v-309h-220v275q0 22 -10.5 34t-28.5 12t-28.5 -12t-10.5 -34v-275h-221v275q0 22 -10.5 34t-28.5 12t-28.5 -12t-10.5 -34v-275h-221v507h201v-36q25 24 56.5 37t69.5 13q44 0 80 -15t62 -43q30 28 69.5 43t85.5 15z" />
    <glyph glyph-name="n" unicode="n" horiz-adv-x="605" 
d="M376 521q43 0 78 -15t60 -43t38.5 -67t13.5 -87v-309h-221v275q0 21 -10.5 33.5t-29.5 12.5t-30 -12.5t-11 -33.5v-275h-221v507h201v-36q53 50 132 50z" />
    <glyph glyph-name="o" unicode="o" horiz-adv-x="614" 
d="M307 -14q-62 0 -114.5 20.5t-91 56t-60.5 84.5t-22 106t22 106t60.5 85t91 56.5t114.5 20.5q61 0 114 -20.5t91.5 -56.5t60.5 -85t22 -106t-22 -106t-60.5 -84.5t-91.5 -56t-114 -20.5zM307 177q32 0 50.5 20.5t18.5 55.5t-18.5 56t-50.5 21t-50.5 -21t-18.5 -56
t18.5 -55.5t50.5 -20.5z" />
    <glyph glyph-name="p" unicode="p" horiz-adv-x="634" 
d="M377 521q52 0 95 -19.5t74 -55t48.5 -84.5t17.5 -108t-17 -108.5t-47.5 -85t-73 -55t-93.5 -19.5q-73 0 -117 44v-193h-221v670h201v-46q43 60 133 60zM324 178q32 0 50.5 20.5t18.5 55.5t-18.5 55t-50.5 20t-50.5 -20t-18.5 -55t18.5 -55.5t50.5 -20.5z" />
    <glyph glyph-name="q" unicode="q" horiz-adv-x="634" 
d="M257 521q89 0 133 -60v46h201v-670h-221v193q-44 -44 -117 -44q-51 0 -93.5 19.5t-73 55t-47.5 85t-17 108.5t17.5 108t48.5 84.5t74 55t95 19.5zM310 178q32 0 50.5 20.5t18.5 55.5t-18.5 55t-50.5 20t-50.5 -20t-18.5 -55t18.5 -55.5t50.5 -20.5z" />
    <glyph glyph-name="r" unicode="r" horiz-adv-x="412" 
d="M406 507v-205h-46q-54 0 -75 -20.5t-21 -74.5v-207h-221v507h201v-61q41 61 121 61h41z" />
    <glyph glyph-name="s" unicode="s" horiz-adv-x="478" 
d="M241 -14q-109 0 -169 48t-62 137h186q2 -23 13 -33.5t36 -10.5q36 0 36 24q0 11 -7 16t-24 9l-79 17q-149 32 -149 155q0 39 15.5 71t44 54.5t68 35t88.5 12.5q97 0 154 -47.5t63 -132.5h-182q-2 39 -38 39q-14 0 -22.5 -6t-8.5 -17q0 -10 6.5 -15t23.5 -10l77 -18
q80 -19 117 -57t37 -101q0 -82 -57.5 -126t-166.5 -44z" />
    <glyph glyph-name="t" unicode="t" horiz-adv-x="411" 
d="M393 184v-184h-89q-121 0 -178.5 49.5t-57.5 154.5v119h-69v184h69v103h221v-103h100v-184h-100v-93q0 -25 12.5 -35.5t42.5 -10.5h49z" />
    <glyph glyph-name="u" unicode="u" horiz-adv-x="605" 
d="M562 507v-507h-201v36q-26 -24 -59.5 -37t-72.5 -13q-43 0 -78 15t-60 43t-38.5 67t-13.5 87v309h221v-275q0 -21 10.5 -33.5t29.5 -12.5t30 12.5t11 33.5v275h221z" />
    <glyph glyph-name="v" unicode="v" horiz-adv-x="577" 
d="M586 507l-177 -507h-239l-179 507h233l65 -256l64 256h233z" />
    <glyph glyph-name="w" unicode="w" horiz-adv-x="909" 
d="M908 507l-168 -507h-229l-56 244l-57 -244h-229l-168 507h233l61 -239l50 239h219l50 -239l61 239h233z" />
    <glyph glyph-name="x" unicode="x" horiz-adv-x="610" 
d="M378 0l-73 114l-72 -114h-244l184 258l-177 249h244l66 -104l64 104h244l-178 -248l185 -259h-243z" />
    <glyph glyph-name="y" unicode="y" horiz-adv-x="579" 
d="M588 507l-238 -670h-243l63 169l-179 501h234l64 -253l65 253h234z" />
    <glyph glyph-name="z" unicode="z" horiz-adv-x="500" 
d="M479 179v-179h-458v164l175 164h-170v179h444v-164l-179 -164h188z" />
    <glyph glyph-name="aacute" unicode="&#xe1;" horiz-adv-x="555" 
d="M271 521q114 0 179.5 -57t65.5 -159v-305h-193v35q-27 -25 -62 -37t-77 -12q-78 0 -123.5 41t-45.5 113q0 76 52.5 117t153.5 41h87v18q0 27 -12.5 40t-32.5 13q-38 0 -42 -46h-187q4 96 67.5 147t169.5 51zM263 122q20 0 32.5 12.5t12.5 37.5v24h-45q-17 0 -27.5 -10.5
t-10.5 -27.5t10 -26.5t28 -9.5zM245 752h240l-121 -192h-182z" />
    <glyph glyph-name="abreve" unicode="&#x103;" horiz-adv-x="555" 
d="M271 521q114 0 179.5 -57t65.5 -159v-305h-193v35q-27 -25 -62 -37t-77 -12q-78 0 -123.5 41t-45.5 113q0 76 52.5 117t153.5 41h87v18q0 27 -12.5 40t-32.5 13q-38 0 -42 -46h-187q4 96 67.5 147t169.5 51zM263 122q20 0 32.5 12.5t12.5 37.5v24h-45q-17 0 -27.5 -10.5
t-10.5 -27.5t10 -26.5t28 -9.5zM275 556q-100 0 -151.5 50t-51.5 146h149q0 -29 14.5 -45.5t40.5 -16.5t40 16.5t14 45.5h149q0 -96 -52 -146t-152 -50z" />
    <glyph glyph-name="acircumflex" unicode="&#xe2;" horiz-adv-x="555" 
d="M271 521q114 0 179.5 -57t65.5 -159v-305h-193v35q-27 -25 -62 -37t-77 -12q-78 0 -123.5 41t-45.5 113q0 76 52.5 117t153.5 41h87v18q0 27 -12.5 40t-32.5 13q-38 0 -42 -46h-187q4 96 67.5 147t169.5 51zM263 122q20 0 32.5 12.5t12.5 37.5v24h-45q-17 0 -27.5 -10.5
t-10.5 -27.5t10 -26.5t28 -9.5zM330 560l-55 65l-55 -65h-175l142 192h176l142 -192h-175z" />
    <glyph glyph-name="adieresis" unicode="&#xe4;" horiz-adv-x="555" 
d="M271 521q114 0 179.5 -57t65.5 -159v-305h-193v35q-27 -25 -62 -37t-77 -12q-78 0 -123.5 41t-45.5 113q0 76 52.5 117t153.5 41h87v18q0 27 -12.5 40t-32.5 13q-38 0 -42 -46h-187q4 96 67.5 147t169.5 51zM263 122q20 0 32.5 12.5t12.5 37.5v24h-45q-17 0 -27.5 -10.5
t-10.5 -27.5t10 -26.5t28 -9.5zM148 540q-23 0 -43.5 8.5t-35.5 23.5t-24 34.5t-9 41.5q0 23 8.5 43t23.5 34.5t35.5 23t44.5 8.5q50 0 81.5 -30.5t31.5 -78.5q0 -23 -9 -42.5t-24 -34t-35.5 -23t-44.5 -8.5zM401 540q-23 0 -43.5 8.5t-35.5 23.5t-24 34.5t-9 41.5
q0 23 8.5 43t23.5 34.5t35.5 23t44.5 8.5q50 0 81.5 -30.5t31.5 -78.5q0 -23 -9 -42.5t-24 -34t-35.5 -23t-44.5 -8.5z" />
    <glyph glyph-name="agrave" unicode="&#xe0;" horiz-adv-x="555" 
d="M271 521q114 0 179.5 -57t65.5 -159v-305h-193v35q-27 -25 -62 -37t-77 -12q-78 0 -123.5 41t-45.5 113q0 76 52.5 117t153.5 41h87v18q0 27 -12.5 40t-32.5 13q-38 0 -42 -46h-187q4 96 67.5 147t169.5 51zM263 122q20 0 32.5 12.5t12.5 37.5v24h-45q-17 0 -27.5 -10.5
t-10.5 -27.5t10 -26.5t28 -9.5zM62 752h240l63 -192h-182z" />
    <glyph glyph-name="amacron" unicode="&#x101;" horiz-adv-x="555" 
d="M271 521q114 0 179.5 -57t65.5 -159v-305h-193v35q-27 -25 -62 -37t-77 -12q-78 0 -123.5 41t-45.5 113q0 76 52.5 117t153.5 41h87v18q0 27 -12.5 40t-32.5 13q-38 0 -42 -46h-187q4 96 67.5 147t169.5 51zM263 122q20 0 32.5 12.5t12.5 37.5v24h-45q-17 0 -27.5 -10.5
t-10.5 -27.5t10 -26.5t28 -9.5zM103 722h343v-151h-343v151z" />
    <glyph glyph-name="aogonek" unicode="&#x105;" horiz-adv-x="555" 
d="M271 521q114 0 179.5 -57t65.5 -159v-305h-193v35q-27 -25 -62 -37t-77 -12q-78 0 -123.5 41t-45.5 113q0 76 52.5 117t153.5 41h87v18q0 27 -12.5 40t-32.5 13q-38 0 -42 -46h-187q4 96 67.5 147t169.5 51zM263 122q20 0 32.5 12.5t12.5 37.5v24h-45q-17 0 -27.5 -10.5
t-10.5 -27.5t10 -26.5t28 -9.5zM421 -193q-72 0 -113 30t-41 81q0 49 46 90t122 61l81 -69l-21 -11q-14 -7 -20 -13t-6 -17q0 -22 24 -22h23v-122q-29 -4 -52 -6t-43 -2z" />
    <glyph glyph-name="aring" unicode="&#xe5;" horiz-adv-x="555" 
d="M271 521q114 0 179.5 -57t65.5 -159v-305h-193v35q-27 -25 -62 -37t-77 -12q-78 0 -123.5 41t-45.5 113q0 76 52.5 117t153.5 41h87v18q0 27 -12.5 40t-32.5 13q-38 0 -42 -46h-187q4 96 67.5 147t169.5 51zM263 122q20 0 32.5 12.5t12.5 37.5v24h-45q-17 0 -27.5 -10.5
t-10.5 -27.5t10 -26.5t28 -9.5zM275 531q-67 0 -108.5 40t-41.5 104t41.5 103.5t108.5 39.5q68 0 109.5 -39.5t41.5 -103.5q0 -32 -11 -58.5t-31 -45.5t-48 -29.5t-61 -10.5zM277 639q15 0 25 10.5t10 25.5t-10 25.5t-25 10.5q-16 0 -26 -10t-10 -26t10 -26t26 -10z" />
    <glyph glyph-name="atilde" unicode="&#xe3;" horiz-adv-x="555" 
d="M271 521q114 0 179.5 -57t65.5 -159v-305h-193v35q-27 -25 -62 -37t-77 -12q-78 0 -123.5 41t-45.5 113q0 76 52.5 117t153.5 41h87v18q0 27 -12.5 40t-32.5 13q-38 0 -42 -46h-187q4 96 67.5 147t169.5 51zM263 122q20 0 32.5 12.5t12.5 37.5v24h-45q-17 0 -27.5 -10.5
t-10.5 -27.5t10 -26.5t28 -9.5zM346 560q-20 0 -39.5 5t-42.5 16q-26 11 -40.5 15t-26.5 4q-20 0 -42.5 -7.5t-63.5 -28.5v153q38 22 62.5 30.5t48.5 8.5q17 0 37 -5t47 -16q23 -11 38 -15t28 -4q9 0 19 1.5t22 5.5t28 10.5t38 17.5v-152q-20 -11 -35.5 -18.5t-28.5 -12
t-25 -6.5t-24 -2z" />
    <glyph glyph-name="ae" unicode="&#xe6;" horiz-adv-x="894" 
d="M604 521q66 0 119 -23t88.5 -64t52 -98t9.5 -125h-356q10 -34 34.5 -52.5t59.5 -18.5q26 0 42.5 9.5t20.5 26.5h196q-21 -91 -90 -140.5t-173 -49.5q-63 0 -114 19t-87 54q-30 -38 -76.5 -55.5t-114.5 -17.5q-94 0 -147 40t-53 112q0 78 52.5 119t153.5 41h82v18
q0 53 -40 53q-38 0 -42 -46h-187q4 94 66.5 146t171.5 52q104 0 164 -51q34 25 76 38t92 13zM604 365q-30 0 -51.5 -15t-32.5 -42h164q-6 26 -27 41.5t-53 15.5zM263 122q40 0 40 50v24h-40q-17 0 -27.5 -10t-10.5 -27q0 -37 38 -37z" />
    <glyph glyph-name="cacute" unicode="&#x107;" horiz-adv-x="594" 
d="M301 -14q-60 0 -111.5 20.5t-89.5 56t-59.5 84.5t-21.5 106t21.5 106t59.5 85t89.5 56.5t111.5 20.5q55 0 103 -17.5t84 -49t58.5 -75.5t28.5 -98h-209q-14 46 -61 46q-31 0 -49 -19.5t-18 -54.5q0 -34 18 -53.5t49 -19.5q47 0 61 47h209q-6 -54 -28.5 -98t-58.5 -76
t-84 -49.5t-103 -17.5zM277 752h240l-121 -192h-182z" />
    <glyph glyph-name="ccaron" unicode="&#x10d;" horiz-adv-x="594" 
d="M301 -14q-60 0 -111.5 20.5t-89.5 56t-59.5 84.5t-21.5 106t21.5 106t59.5 85t89.5 56.5t111.5 20.5q55 0 103 -17.5t84 -49t58.5 -75.5t28.5 -98h-209q-14 46 -61 46q-31 0 -49 -19.5t-18 -54.5q0 -34 18 -53.5t49 -19.5q47 0 61 47h209q-6 -54 -28.5 -98t-58.5 -76
t-84 -49.5t-103 -17.5zM537 752l-142 -192h-176l-142 192h175l55 -65l55 65h175z" />
    <glyph glyph-name="ccedilla" unicode="&#xe7;" horiz-adv-x="594" 
d="M301 -14q-60 0 -111.5 20.5t-89.5 56t-59.5 84.5t-21.5 106t21.5 106t59.5 85t89.5 56.5t111.5 20.5q55 0 103 -17.5t84 -49t58.5 -75.5t28.5 -98h-209q-14 46 -61 46q-31 0 -49 -19.5t-18 -54.5q0 -34 18 -53.5t49 -19.5q47 0 61 47h209q-6 -54 -28.5 -98t-58.5 -76
t-84 -49.5t-103 -17.5zM260 -195q-23 0 -42 1t-49 4v129h59q21 0 33 10.5t12 28.5q0 14 -3 26t-12 30l97 31q36 -24 56 -54.5t20 -62.5q0 -143 -171 -143z" />
    <glyph glyph-name="eth" unicode="&#xf0;" horiz-adv-x="569" 
d="M441 491q30 -39 51 -72t33.5 -63t18.5 -59t6 -60q0 -57 -19 -103.5t-54 -79.5t-85 -50.5t-112 -17.5q-59 0 -107.5 16t-82.5 46t-52.5 72t-18.5 93q0 47 16 86.5t45 67.5t69.5 43.5t89.5 15.5h13t12 -1l-40 50l-150 -37v124l68 18l-72 92h229l32 -41l150 41v-133l-65 -16
zM285 154q26 0 42.5 17t16.5 43t-16.5 42t-42.5 16q-27 0 -43.5 -16t-16.5 -42t17 -43t43 -17z" />
    <glyph glyph-name="dcaron" unicode="&#x10f;" horiz-adv-x="861" 
d="M591 673v-673h-201v43q-44 -57 -132 -57q-53 0 -96 19.5t-74.5 54t-48.5 83t-17 107.5q0 58 17.5 108t48.5 86t73.5 56.5t92.5 20.5q72 0 116 -44v196h221zM310 178q32 0 50.5 20t18.5 55t-18.5 55.5t-50.5 20.5t-50.5 -20.5t-18.5 -55.5t18.5 -55t50.5 -20zM638 673h218
l-63 -193h-155v193z" />
    <glyph glyph-name="dcroat" unicode="&#x111;" horiz-adv-x="653" 
d="M663 490h-72v-490h-201v43q-44 -57 -132 -57q-110 0 -173 64.5t-63 177.5q0 109 61.5 170t170.5 61q72 0 116 -44v75h-169v131h169v52h221v-52h72v-131zM310 155q32 0 50.5 20.5t18.5 55.5t-18.5 56t-50.5 21t-50.5 -21t-18.5 -56t18.5 -55.5t50.5 -20.5z" />
    <glyph glyph-name="eacute" unicode="&#xe9;" horiz-adv-x="592" 
d="M302 521q66 0 119 -23t89 -64t52 -97.5t9 -124.5h-356q10 -33 34.5 -52t59.5 -19q26 0 42.5 9.5t20.5 26.5h196q-21 -91 -90 -141t-173 -50q-64 0 -116.5 19t-90 54t-58.5 83.5t-21 107.5t21 109t58.5 86t89.5 56t114 20zM304 366q-29 0 -51.5 -14.5t-33.5 -41.5h163
q-6 26 -27 41t-51 15zM272 752h240l-121 -192h-182z" />
    <glyph glyph-name="ebreve" unicode="&#x115;" horiz-adv-x="592" 
d="M302 521q66 0 119 -23t89 -64t52 -97.5t9 -124.5h-356q10 -33 34.5 -52t59.5 -19q26 0 42.5 9.5t20.5 26.5h196q-21 -91 -90 -141t-173 -50q-64 0 -116.5 19t-90 54t-58.5 83.5t-21 107.5t21 109t58.5 86t89.5 56t114 20zM304 366q-29 0 -51.5 -14.5t-33.5 -41.5h163
q-6 26 -27 41t-51 15zM302 556q-100 0 -151.5 50t-51.5 146h149q0 -29 14.5 -45.5t40.5 -16.5t40 16.5t14 45.5h149q0 -96 -52 -146t-152 -50z" />
    <glyph glyph-name="ecaron" unicode="&#x11b;" horiz-adv-x="592" 
d="M302 521q66 0 119 -23t89 -64t52 -97.5t9 -124.5h-356q10 -33 34.5 -52t59.5 -19q26 0 42.5 9.5t20.5 26.5h196q-21 -91 -90 -141t-173 -50q-64 0 -116.5 19t-90 54t-58.5 83.5t-21 107.5t21 109t58.5 86t89.5 56t114 20zM304 366q-29 0 -51.5 -14.5t-33.5 -41.5h163
q-6 26 -27 41t-51 15zM532 752l-142 -192h-176l-142 192h175l55 -65l55 65h175z" />
    <glyph glyph-name="ecircumflex" unicode="&#xea;" horiz-adv-x="592" 
d="M302 521q66 0 119 -23t89 -64t52 -97.5t9 -124.5h-356q10 -33 34.5 -52t59.5 -19q26 0 42.5 9.5t20.5 26.5h196q-21 -91 -90 -141t-173 -50q-64 0 -116.5 19t-90 54t-58.5 83.5t-21 107.5t21 109t58.5 86t89.5 56t114 20zM304 366q-29 0 -51.5 -14.5t-33.5 -41.5h163
q-6 26 -27 41t-51 15zM357 560l-55 65l-55 -65h-175l142 192h176l142 -192h-175z" />
    <glyph glyph-name="edieresis" unicode="&#xeb;" horiz-adv-x="592" 
d="M302 521q66 0 119 -23t89 -64t52 -97.5t9 -124.5h-356q10 -33 34.5 -52t59.5 -19q26 0 42.5 9.5t20.5 26.5h196q-21 -91 -90 -141t-173 -50q-64 0 -116.5 19t-90 54t-58.5 83.5t-21 107.5t21 109t58.5 86t89.5 56t114 20zM304 366q-29 0 -51.5 -14.5t-33.5 -41.5h163
q-6 26 -27 41t-51 15zM175 540q-23 0 -43.5 8.5t-35.5 23.5t-24 34.5t-9 41.5q0 23 8.5 43t23.5 34.5t35.5 23t44.5 8.5q50 0 81.5 -30.5t31.5 -78.5q0 -23 -9 -42.5t-24 -34t-35.5 -23t-44.5 -8.5zM428 540q-23 0 -43.5 8.5t-35.5 23.5t-24 34.5t-9 41.5q0 23 8.5 43
t23.5 34.5t35.5 23t44.5 8.5q50 0 81.5 -30.5t31.5 -78.5q0 -23 -9 -42.5t-24 -34t-35.5 -23t-44.5 -8.5z" />
    <glyph glyph-name="edotaccent" unicode="&#x117;" horiz-adv-x="592" 
d="M302 521q66 0 119 -23t89 -64t52 -97.5t9 -124.5h-356q10 -33 34.5 -52t59.5 -19q26 0 42.5 9.5t20.5 26.5h196q-21 -91 -90 -141t-173 -50q-64 0 -116.5 19t-90 54t-58.5 83.5t-21 107.5t21 109t58.5 86t89.5 56t114 20zM304 366q-29 0 -51.5 -14.5t-33.5 -41.5h163
q-6 26 -27 41t-51 15zM302 540q-26 0 -48 9t-38.5 25t-25.5 37.5t-9 46.5t9 46t25.5 37t38.5 25t48 9t48 -9t38.5 -25t25.5 -37t9 -46t-9 -46.5t-25.5 -37.5t-38.5 -25t-48 -9z" />
    <glyph glyph-name="egrave" unicode="&#xe8;" horiz-adv-x="592" 
d="M302 521q66 0 119 -23t89 -64t52 -97.5t9 -124.5h-356q10 -33 34.5 -52t59.5 -19q26 0 42.5 9.5t20.5 26.5h196q-21 -91 -90 -141t-173 -50q-64 0 -116.5 19t-90 54t-58.5 83.5t-21 107.5t21 109t58.5 86t89.5 56t114 20zM304 366q-29 0 -51.5 -14.5t-33.5 -41.5h163
q-6 26 -27 41t-51 15zM89 752h240l63 -192h-182z" />
    <glyph glyph-name="emacron" unicode="&#x113;" horiz-adv-x="592" 
d="M302 521q66 0 119 -23t89 -64t52 -97.5t9 -124.5h-356q10 -33 34.5 -52t59.5 -19q26 0 42.5 9.5t20.5 26.5h196q-21 -91 -90 -141t-173 -50q-64 0 -116.5 19t-90 54t-58.5 83.5t-21 107.5t21 109t58.5 86t89.5 56t114 20zM304 366q-29 0 -51.5 -14.5t-33.5 -41.5h163
q-6 26 -27 41t-51 15zM130 722h343v-151h-343v151z" />
    <glyph glyph-name="eogonek" unicode="&#x119;" horiz-adv-x="592" 
d="M302 521q66 0 119 -23t89 -64t52 -97.5t9 -124.5h-356q10 -33 34.5 -52t59.5 -19q26 0 42.5 9.5t20.5 26.5h196q-21 -91 -90 -141t-173 -50q-64 0 -116.5 19t-90 54t-58.5 83.5t-21 107.5t21 109t58.5 86t89.5 56t114 20zM304 366q-29 0 -51.5 -14.5t-33.5 -41.5h163
q-6 26 -27 41t-51 15zM376 -193q-72 0 -113 30t-41 81q0 22 7.5 40.5t28.5 39t59 45t99 60.5l97 -34l-67 -72q-14 -17 -18 -23.5t-4 -14.5q0 -22 24 -22h23v-122q-32 -5 -53.5 -6.5t-41.5 -1.5z" />
    <glyph glyph-name="uni0259" unicode="&#x259;" horiz-adv-x="592" 
d="M289.982 -13.999q-65.9961 0 -118.993 22.998q-52.9961 22.999 -88.9941 63.9961q-35.998 40.998 -51.9971 97.4941q-15.999 56.4971 -8.99902 124.493h355.978q-9.99902 32.998 -34.4971 51.9961q-24.499 18.999 -59.4971 18.999q-25.998 0 -42.4971 -9.49902
q-16.499 -9.5 -20.499 -26.499h-195.988q20.999 90.9951 89.9951 140.992q68.9961 49.9961 172.989 49.9961q63.9961 0 116.493 -18.998q52.4971 -18.999 89.9941 -53.9971q37.498 -34.998 58.4971 -83.4951q20.998 -48.4971 20.998 -107.493t-20.998 -108.993
q-20.999 -49.9971 -58.4971 -85.9951q-37.4971 -35.998 -89.4941 -55.9961q-51.9971 -19.999 -113.993 -19.999zM287.982 140.991q28.998 0 51.4971 14.499q22.498 14.499 33.498 41.498h-162.99q5.99902 -25.999 26.998 -40.998t50.9971 -14.999z" />
    <glyph glyph-name="gbreve" unicode="&#x11f;" horiz-adv-x="632" 
d="M589 507v-431q0 -119 -74 -186t-212 -67q-56 0 -103 12t-81.5 35.5t-55 58.5t-23.5 82h208q5 -36 59 -36q31 0 46 14t15 46v56q-47 -44 -120 -44q-49 0 -90.5 17.5t-72 49t-48 75t-17.5 94.5q0 52 17.5 95.5t48.5 75t73.5 49.5t92.5 18q91 0 136 -60v46h201zM308 206
q32 0 50.5 20.5t18.5 55.5t-18.5 56t-50.5 21t-50.5 -21t-18.5 -56t18.5 -55.5t50.5 -20.5zM314 556q-100 0 -151.5 50t-51.5 146h149q0 -29 14.5 -45.5t40.5 -16.5t40 16.5t14 45.5h149q0 -96 -52 -146t-152 -50z" />
    <glyph glyph-name="uni0123" unicode="&#x123;" horiz-adv-x="632" 
d="M589 507v-431q0 -119 -74 -186t-212 -67q-56 0 -103 12t-81.5 35.5t-55 58.5t-23.5 82h208q5 -36 59 -36q31 0 46 14t15 46v56q-47 -44 -120 -44q-49 0 -90.5 17.5t-72 49t-48 75t-17.5 94.5q0 52 17.5 95.5t48.5 75t73.5 49.5t92.5 18q91 0 136 -60v46h201zM308 206
q32 0 50.5 20.5t18.5 55.5t-18.5 56t-50.5 21t-50.5 -21t-18.5 -56t18.5 -55.5t50.5 -20.5zM231 752h168v-192h-199z" />
    <glyph glyph-name="dotlessi" unicode="&#x131;" horiz-adv-x="307" 
d="M43 507h221v-507h-221v507z" />
    <glyph glyph-name="iacute" unicode="&#xed;" horiz-adv-x="307" 
d="M43 507h221v-507h-221v507zM124 752h240l-121 -192h-182z" />
    <glyph glyph-name="ibreve" unicode="&#x12d;" horiz-adv-x="307" 
d="M43 507h221v-507h-221v507zM154 556q-100 0 -151.5 50t-51.5 146h149q0 -29 14.5 -45.5t40.5 -16.5t40 16.5t14 45.5h149q0 -96 -52 -146t-152 -50z" />
    <glyph glyph-name="icircumflex" unicode="&#xee;" horiz-adv-x="328" 
d="M53 507h221v-507h-221v507zM219 560l-55 65l-55 -65h-175l142 192h176l142 -192h-175z" />
    <glyph glyph-name="idieresis" unicode="&#xef;" horiz-adv-x="330" 
d="M54 507h221v-507h-221v507zM38 540q-23 0 -43.5 8.5t-35.5 23.5t-24 34.5t-9 41.5q0 23 8.5 43t23.5 34.5t35.5 23t44.5 8.5q50 0 81.5 -30.5t31.5 -78.5q0 -23 -9 -42.5t-24 -34t-35.5 -23t-44.5 -8.5zM291 540q-23 0 -43.5 8.5t-35.5 23.5t-24 34.5t-9 41.5
q0 23 8.5 43t23.5 34.5t35.5 23t44.5 8.5q50 0 81.5 -30.5t31.5 -78.5q0 -23 -9 -42.5t-24 -34t-35.5 -23t-44.5 -8.5z" />
    <glyph glyph-name="igrave" unicode="&#xec;" horiz-adv-x="307" 
d="M43 507h221v-507h-221v507zM-59 752h240l63 -192h-182z" />
    <glyph glyph-name="imacron" unicode="&#x12b;" horiz-adv-x="307" 
d="M43 507h221v-507h-221v507zM-1 722h310v-151h-310v151z" />
    <glyph glyph-name="iogonek" unicode="&#x12f;" horiz-adv-x="307" 
d="M43 507h221v-507h-221v507zM154 540q-26 0 -48 9t-38.5 25t-25.5 37.5t-9 46.5t9 46t25.5 37t38.5 25t48 9t48 -9t38.5 -25t25.5 -37t9 -46t-9 -46.5t-25.5 -37.5t-38.5 -25t-48 -9zM159 -193q-72 0 -113 30t-41 81q0 49 46 90t122 61l81 -69l-21 -11q-14 -7 -20 -13
t-6 -17q0 -22 24 -22h23v-122q-29 -4 -52 -6t-43 -2z" />
    <glyph glyph-name="uni0237" unicode="&#x237;" horiz-adv-x="306" 
d="M-44 10h26q34 0 47.5 11.5t13.5 40.5v445h220v-457q0 -103 -57.5 -158t-163.5 -55h-86v173z" />
    <glyph glyph-name="uni0137" unicode="&#x137;" horiz-adv-x="600" 
d="M375 0l-111 194v-194h-221v673h221v-352l109 186h231l-147 -244l158 -263h-240zM204 -41h195l-27 -179h-168v179z" />
    <glyph glyph-name="lacute" unicode="&#x13a;" horiz-adv-x="307" 
d="M43 673h221v-673h-221v673zM126 920h254l-130 -196h-183z" />
    <glyph glyph-name="lcaron" unicode="&#x13e;" horiz-adv-x="537" 
d="M43 673h221v-673h-221v673zM314 673h218l-63 -193h-155v193z" />
    <glyph glyph-name="uni013C" unicode="&#x13c;" horiz-adv-x="307" 
d="M43 673h221v-673h-221v673zM48 -41h195l-27 -179h-168v179z" />
    <glyph glyph-name="ldot" unicode="&#x140;" horiz-adv-x="547" 
d="M43 673h221v-673h-221v673zM428 206q-27 0 -50 9t-39.5 25t-26 38.5t-9.5 48.5t9.5 48.5t26 39t39.5 25.5t50 9t50 -9t39.5 -25.5t26 -39t9.5 -48.5t-9.5 -48.5t-26 -38.5t-39.5 -25t-50 -9z" />
    <glyph glyph-name="lslash" unicode="&#x142;" horiz-adv-x="393" 
d="M13 335l73 33v305h221v-217l73 33v-203l-73 -33v-253h-221v165l-73 -33v203z" />
    <glyph glyph-name="nacute" unicode="&#x144;" horiz-adv-x="605" 
d="M376 521q43 0 78 -15t60 -43t38.5 -67t13.5 -87v-309h-221v275q0 21 -10.5 33.5t-29.5 12.5t-30 -12.5t-11 -33.5v-275h-221v507h201v-36q53 50 132 50zM264 752h240l-121 -192h-182z" />
    <glyph glyph-name="ncaron" unicode="&#x148;" horiz-adv-x="605" 
d="M376 521q43 0 78 -15t60 -43t38.5 -67t13.5 -87v-309h-221v275q0 21 -10.5 33.5t-29.5 12.5t-30 -12.5t-11 -33.5v-275h-221v507h201v-36q53 50 132 50zM524 752l-142 -192h-176l-142 192h175l55 -65l55 65h175z" />
    <glyph glyph-name="uni0146" unicode="&#x146;" horiz-adv-x="605" 
d="M376 521q43 0 78 -15t60 -43t38.5 -67t13.5 -87v-309h-221v275q0 21 -10.5 33.5t-29.5 12.5t-30 -12.5t-11 -33.5v-275h-221v507h201v-36q53 50 132 50zM198 -41h195l-27 -179h-168v179z" />
    <glyph glyph-name="ntilde" unicode="&#xf1;" horiz-adv-x="605" 
d="M376 521q43 0 78 -15t60 -43t38.5 -67t13.5 -87v-309h-221v275q0 21 -10.5 33.5t-29.5 12.5t-30 -12.5t-11 -33.5v-275h-221v507h201v-36q53 50 132 50zM365 560q-20 0 -39.5 5t-42.5 16q-26 11 -40.5 15t-26.5 4q-20 0 -42.5 -7.5t-63.5 -28.5v153q38 22 62.5 30.5
t48.5 8.5q17 0 37 -5t47 -16q23 -11 38 -15t28 -4q9 0 19 1.5t22 5.5t28 10.5t38 17.5v-152q-20 -11 -35.5 -18.5t-28.5 -12t-25 -6.5t-24 -2z" />
    <glyph glyph-name="oacute" unicode="&#xf3;" horiz-adv-x="614" 
d="M307 -14q-62 0 -114.5 20.5t-91 56t-60.5 84.5t-22 106t22 106t60.5 85t91 56.5t114.5 20.5q61 0 114 -20.5t91.5 -56.5t60.5 -85t22 -106t-22 -106t-60.5 -84.5t-91.5 -56t-114 -20.5zM307 177q32 0 50.5 20.5t18.5 55.5t-18.5 56t-50.5 21t-50.5 -21t-18.5 -56
t18.5 -55.5t50.5 -20.5zM277 752h240l-121 -192h-182z" />
    <glyph glyph-name="obreve" unicode="&#x14f;" horiz-adv-x="614" 
d="M307 -14q-62 0 -114.5 20.5t-91 56t-60.5 84.5t-22 106t22 106t60.5 85t91 56.5t114.5 20.5q61 0 114 -20.5t91.5 -56.5t60.5 -85t22 -106t-22 -106t-60.5 -84.5t-91.5 -56t-114 -20.5zM307 177q32 0 50.5 20.5t18.5 55.5t-18.5 56t-50.5 21t-50.5 -21t-18.5 -56
t18.5 -55.5t50.5 -20.5zM307 556q-100 0 -151.5 50t-51.5 146h149q0 -29 14.5 -45.5t40.5 -16.5t40 16.5t14 45.5h149q0 -96 -52 -146t-152 -50z" />
    <glyph glyph-name="ocircumflex" unicode="&#xf4;" horiz-adv-x="614" 
d="M307 -14q-62 0 -114.5 20.5t-91 56t-60.5 84.5t-22 106t22 106t60.5 85t91 56.5t114.5 20.5q61 0 114 -20.5t91.5 -56.5t60.5 -85t22 -106t-22 -106t-60.5 -84.5t-91.5 -56t-114 -20.5zM307 177q32 0 50.5 20.5t18.5 55.5t-18.5 56t-50.5 21t-50.5 -21t-18.5 -56
t18.5 -55.5t50.5 -20.5zM362 560l-55 65l-55 -65h-175l142 192h176l142 -192h-175z" />
    <glyph glyph-name="odieresis" unicode="&#xf6;" horiz-adv-x="614" 
d="M307 -14q-62 0 -114.5 20.5t-91 56t-60.5 84.5t-22 106t22 106t60.5 85t91 56.5t114.5 20.5q61 0 114 -20.5t91.5 -56.5t60.5 -85t22 -106t-22 -106t-60.5 -84.5t-91.5 -56t-114 -20.5zM307 177q32 0 50.5 20.5t18.5 55.5t-18.5 56t-50.5 21t-50.5 -21t-18.5 -56
t18.5 -55.5t50.5 -20.5zM180 540q-23 0 -43.5 8.5t-35.5 23.5t-24 34.5t-9 41.5q0 23 8.5 43t23.5 34.5t35.5 23t44.5 8.5q50 0 81.5 -30.5t31.5 -78.5q0 -23 -9 -42.5t-24 -34t-35.5 -23t-44.5 -8.5zM433 540q-23 0 -43.5 8.5t-35.5 23.5t-24 34.5t-9 41.5q0 23 8.5 43
t23.5 34.5t35.5 23t44.5 8.5q50 0 81.5 -30.5t31.5 -78.5q0 -23 -9 -42.5t-24 -34t-35.5 -23t-44.5 -8.5z" />
    <glyph glyph-name="ograve" unicode="&#xf2;" horiz-adv-x="614" 
d="M307 -14q-62 0 -114.5 20.5t-91 56t-60.5 84.5t-22 106t22 106t60.5 85t91 56.5t114.5 20.5q61 0 114 -20.5t91.5 -56.5t60.5 -85t22 -106t-22 -106t-60.5 -84.5t-91.5 -56t-114 -20.5zM307 177q32 0 50.5 20.5t18.5 55.5t-18.5 56t-50.5 21t-50.5 -21t-18.5 -56
t18.5 -55.5t50.5 -20.5zM94 752h240l63 -192h-182z" />
    <glyph glyph-name="ohungarumlaut" unicode="&#x151;" horiz-adv-x="614" 
d="M307 -14q-62 0 -114.5 20.5t-91 56t-60.5 84.5t-22 106t22 106t60.5 85t91 56.5t114.5 20.5q61 0 114 -20.5t91.5 -56.5t60.5 -85t22 -106t-22 -106t-60.5 -84.5t-91.5 -56t-114 -20.5zM307 177q32 0 50.5 20.5t18.5 55.5t-18.5 56t-50.5 21t-50.5 -21t-18.5 -56
t18.5 -55.5t50.5 -20.5zM188 752h182l-78 -192h-168zM421 752h194l-120 -192h-151z" />
    <glyph glyph-name="omacron" unicode="&#x14d;" horiz-adv-x="614" 
d="M307 -14q-62 0 -114.5 20.5t-91 56t-60.5 84.5t-22 106t22 106t60.5 85t91 56.5t114.5 20.5q61 0 114 -20.5t91.5 -56.5t60.5 -85t22 -106t-22 -106t-60.5 -84.5t-91.5 -56t-114 -20.5zM307 177q32 0 50.5 20.5t18.5 55.5t-18.5 56t-50.5 21t-50.5 -21t-18.5 -56
t18.5 -55.5t50.5 -20.5zM135 722h343v-151h-343v151z" />
    <glyph glyph-name="oslash" unicode="&#xf8;" horiz-adv-x="640" 
d="M549 420q28 -34 43.5 -76.5t15.5 -90.5q0 -57 -22 -106t-60.5 -84.5t-91.5 -56t-114 -20.5q-28 0 -53.5 4t-49.5 12l-29 -41h-189l93 125q-29 34 -44.5 76.5t-15.5 90.5q0 57 22 106t60.5 85t91 56.5t114.5 20.5q56 0 105 -17l29 41h187zM320 365q-46 0 -74 -30.5
t-28 -81.5q0 -7 0.5 -13.5t1.5 -13.5l110 139h-10zM320 142q47 0 74.5 30t27.5 81q0 7 -0.5 13.5t-1.5 12.5l-108 -137h8z" />
    <glyph glyph-name="otilde" unicode="&#xf5;" horiz-adv-x="614" 
d="M307 -14q-62 0 -114.5 20.5t-91 56t-60.5 84.5t-22 106t22 106t60.5 85t91 56.5t114.5 20.5q61 0 114 -20.5t91.5 -56.5t60.5 -85t22 -106t-22 -106t-60.5 -84.5t-91.5 -56t-114 -20.5zM307 177q32 0 50.5 20.5t18.5 55.5t-18.5 56t-50.5 21t-50.5 -21t-18.5 -56
t18.5 -55.5t50.5 -20.5zM378 560q-20 0 -39.5 5t-42.5 16q-26 11 -40.5 15t-26.5 4q-20 0 -42.5 -7.5t-63.5 -28.5v153q38 22 62.5 30.5t48.5 8.5q17 0 37 -5t47 -16q23 -11 38 -15t28 -4q9 0 19 1.5t22 5.5t28 10.5t38 17.5v-152q-20 -11 -35.5 -18.5t-28.5 -12t-25 -6.5
t-24 -2z" />
    <glyph glyph-name="oe" unicode="&#x153;" horiz-adv-x="949" 
d="M659 521q66 0 119 -23t88.5 -64t52 -98t9.5 -125h-356q10 -34 34.5 -52.5t59.5 -18.5q26 0 42.5 9.5t20.5 26.5h196q-21 -91 -90 -140.5t-173 -49.5q-60 0 -106.5 17.5t-79.5 49.5q-32 -32 -77 -49.5t-102 -17.5q-59 0 -110 20.5t-88.5 56t-58.5 84.5t-21 106t21 106
t58.5 85t88.5 56.5t110 20.5q115 0 181 -69q32 33 78 51t103 18zM659 365q-30 0 -51.5 -15t-32.5 -42h164q-6 26 -27 41.5t-53 15.5zM307 177q32 0 50.5 20.5t18.5 55.5t-18.5 56t-50.5 21t-50.5 -21t-18.5 -56t18.5 -55.5t50.5 -20.5z" />
    <glyph glyph-name="thorn" unicode="&#xfe;" horiz-adv-x="634" 
d="M377 521q52 0 95 -19.5t74 -55t48.5 -84.5t17.5 -108t-17 -108.5t-47.5 -85t-73 -55t-93.5 -19.5q-73 0 -117 44v-193h-221v836h201v-212q43 60 133 60zM324 178q32 0 50.5 20.5t18.5 55.5t-18.5 55t-50.5 20t-50.5 -20t-18.5 -55t18.5 -55.5t50.5 -20.5z" />
    <glyph glyph-name="racute" unicode="&#x155;" horiz-adv-x="412" 
d="M406 507v-205h-46q-54 0 -75 -20.5t-21 -74.5v-207h-221v507h201v-61q41 61 121 61h41zM187 752h240l-121 -192h-182z" />
    <glyph glyph-name="rcaron" unicode="&#x159;" horiz-adv-x="412" 
d="M406 507v-205h-46q-54 0 -75 -20.5t-21 -74.5v-207h-221v507h201v-61q41 61 121 61h41zM447 752l-142 -192h-176l-142 192h175l55 -65l55 65h175z" />
    <glyph glyph-name="uni0157" unicode="&#x157;" horiz-adv-x="412" 
d="M406 507v-205h-46q-54 0 -75 -20.5t-21 -74.5v-207h-221v507h201v-61q41 61 121 61h41zM46 -41h195l-27 -179h-168v179z" />
    <glyph glyph-name="sacute" unicode="&#x15b;" horiz-adv-x="478" 
d="M241 -14q-109 0 -169 48t-62 137h186q2 -23 13 -33.5t36 -10.5q36 0 36 24q0 11 -7 16t-24 9l-79 17q-149 32 -149 155q0 39 15.5 71t44 54.5t68 35t88.5 12.5q97 0 154 -47.5t63 -132.5h-182q-2 39 -38 39q-14 0 -22.5 -6t-8.5 -17q0 -10 6.5 -15t23.5 -10l77 -18
q80 -19 117 -57t37 -101q0 -82 -57.5 -126t-166.5 -44zM209 752h240l-121 -192h-182z" />
    <glyph glyph-name="scaron" unicode="&#x161;" horiz-adv-x="478" 
d="M241 -14q-109 0 -169 48t-62 137h186q2 -23 13 -33.5t36 -10.5q36 0 36 24q0 11 -7 16t-24 9l-79 17q-149 32 -149 155q0 39 15.5 71t44 54.5t68 35t88.5 12.5q97 0 154 -47.5t63 -132.5h-182q-2 39 -38 39q-14 0 -22.5 -6t-8.5 -17q0 -10 6.5 -15t23.5 -10l77 -18
q80 -19 117 -57t37 -101q0 -82 -57.5 -126t-166.5 -44zM469 752l-142 -192h-176l-142 192h175l55 -65l55 65h175z" />
    <glyph glyph-name="scedilla" unicode="&#x15f;" horiz-adv-x="478" 
d="M241 -14q-109 0 -169 48t-62 137h186q2 -23 13 -33.5t36 -10.5q36 0 36 24q0 11 -7 16t-24 9l-79 17q-149 32 -149 155q0 39 15.5 71t44 54.5t68 35t88.5 12.5q97 0 154 -47.5t63 -132.5h-182q-2 39 -38 39q-14 0 -22.5 -6t-8.5 -17q0 -10 6.5 -15t23.5 -10l77 -18
q80 -19 117 -57t37 -101q0 -82 -57.5 -126t-166.5 -44zM194 -195q-23 0 -42 1t-49 4v129h59q21 0 33 10.5t12 28.5q0 14 -3 26t-12 30l97 31q36 -24 56 -54.5t20 -62.5q0 -143 -171 -143z" />
    <glyph glyph-name="uni0219" unicode="&#x219;" horiz-adv-x="478" 
d="M241 -14q-109 0 -169 48t-62 137h186q2 -23 13 -33.5t36 -10.5q36 0 36 24q0 11 -7 16t-24 9l-79 17q-149 32 -149 155q0 39 15.5 71t44 54.5t68 35t88.5 12.5q97 0 154 -47.5t63 -132.5h-182q-2 39 -38 39q-14 0 -22.5 -6t-8.5 -17q0 -10 6.5 -15t23.5 -10l77 -18
q80 -19 117 -57t37 -101q0 -82 -57.5 -126t-166.5 -44zM133 -41h195l-27 -179h-168v179z" />
    <glyph glyph-name="germandbls" unicode="&#xdf;" horiz-adv-x="645" 
d="M43 431q0 126 73 191t214 65q125 0 191.5 -43.5t66.5 -124.5q0 -15 -1.5 -26t-6 -21.5t-11.5 -22t-19 -26.5q-18 -23 -24 -33.5t-6 -21.5q0 -15 8.5 -27t36.5 -36q21 -18 34.5 -32t21.5 -28.5t11 -30t3 -34.5q0 -85 -65 -132.5t-183 -47.5h-69v176h60q36 0 36 29
q0 11 -7 19.5t-32 26.5q-35 25 -50.5 46t-15.5 41q0 8 1 14t4 13t9 15.5t15 21.5q16 22 21 33t5 23q0 42 -46 42q-29 0 -41 -18t-12 -60v-422h-222v431z" />
    <glyph glyph-name="tcaron" unicode="&#x165;" horiz-adv-x="534" 
d="M393 184v-184h-89q-121 0 -178.5 49.5t-57.5 154.5v119h-69v184h69v103h221v-103h100v-184h-100v-93q0 -25 12.5 -35.5t42.5 -10.5h49zM348 762h218l-63 -193h-155v193z" />
    <glyph glyph-name="uni0163" unicode="&#x163;" horiz-adv-x="411" 
d="M393 184v-184h-66q14 -26 14 -52q0 -143 -171 -143q-25 0 -43.5 1t-47.5 4v129h59q21 0 33 10.5t12 28.5q0 11 -2 21t-7 22q-106 44 -106 183v119h-69v184h69v103h221v-103h100v-184h-100v-93q0 -25 12.5 -35.5t42.5 -10.5h49z" />
    <glyph glyph-name="uni021B" unicode="&#x21b;" horiz-adv-x="411" 
d="M393 184v-184h-89q-121 0 -178.5 49.5t-57.5 154.5v119h-69v184h69v103h221v-103h100v-184h-100v-93q0 -25 12.5 -35.5t42.5 -10.5h49zM136 -41h195l-27 -179h-168v179z" />
    <glyph glyph-name="uacute" unicode="&#xfa;" horiz-adv-x="605" 
d="M562 507v-507h-201v36q-26 -24 -59.5 -37t-72.5 -13q-43 0 -78 15t-60 43t-38.5 67t-13.5 87v309h221v-275q0 -21 10.5 -33.5t29.5 -12.5t30 12.5t11 33.5v275h221zM272 752h240l-121 -192h-182z" />
    <glyph glyph-name="ubreve" unicode="&#x16d;" horiz-adv-x="605" 
d="M562 507v-507h-201v36q-26 -24 -59.5 -37t-72.5 -13q-43 0 -78 15t-60 43t-38.5 67t-13.5 87v309h221v-275q0 -21 10.5 -33.5t29.5 -12.5t30 12.5t11 33.5v275h221zM302 556q-100 0 -151.5 50t-51.5 146h149q0 -29 14.5 -45.5t40.5 -16.5t40 16.5t14 45.5h149
q0 -96 -52 -146t-152 -50z" />
    <glyph glyph-name="ucircumflex" unicode="&#xfb;" horiz-adv-x="605" 
d="M562 507v-507h-201v36q-26 -24 -59.5 -37t-72.5 -13q-43 0 -78 15t-60 43t-38.5 67t-13.5 87v309h221v-275q0 -21 10.5 -33.5t29.5 -12.5t30 12.5t11 33.5v275h221zM357 560l-55 65l-55 -65h-175l142 192h176l142 -192h-175z" />
    <glyph glyph-name="udieresis" unicode="&#xfc;" horiz-adv-x="605" 
d="M562 507v-507h-201v36q-26 -24 -59.5 -37t-72.5 -13q-43 0 -78 15t-60 43t-38.5 67t-13.5 87v309h221v-275q0 -21 10.5 -33.5t29.5 -12.5t30 12.5t11 33.5v275h221zM175 540q-23 0 -43.5 8.5t-35.5 23.5t-24 34.5t-9 41.5q0 23 8.5 43t23.5 34.5t35.5 23t44.5 8.5
q50 0 81.5 -30.5t31.5 -78.5q0 -23 -9 -42.5t-24 -34t-35.5 -23t-44.5 -8.5zM428 540q-23 0 -43.5 8.5t-35.5 23.5t-24 34.5t-9 41.5q0 23 8.5 43t23.5 34.5t35.5 23t44.5 8.5q50 0 81.5 -30.5t31.5 -78.5q0 -23 -9 -42.5t-24 -34t-35.5 -23t-44.5 -8.5z" />
    <glyph glyph-name="ugrave" unicode="&#xf9;" horiz-adv-x="605" 
d="M562 507v-507h-201v36q-26 -24 -59.5 -37t-72.5 -13q-43 0 -78 15t-60 43t-38.5 67t-13.5 87v309h221v-275q0 -21 10.5 -33.5t29.5 -12.5t30 12.5t11 33.5v275h221zM89 752h240l63 -192h-182z" />
    <glyph glyph-name="uhungarumlaut" unicode="&#x171;" horiz-adv-x="605" 
d="M562 507v-507h-201v36q-26 -24 -59.5 -37t-72.5 -13q-43 0 -78 15t-60 43t-38.5 67t-13.5 87v309h221v-275q0 -21 10.5 -33.5t29.5 -12.5t30 12.5t11 33.5v275h221zM183 752h182l-78 -192h-168zM416 752h194l-120 -192h-151z" />
    <glyph glyph-name="umacron" unicode="&#x16b;" horiz-adv-x="605" 
d="M562 507v-507h-201v36q-26 -24 -59.5 -37t-72.5 -13q-43 0 -78 15t-60 43t-38.5 67t-13.5 87v309h221v-275q0 -21 10.5 -33.5t29.5 -12.5t30 12.5t11 33.5v275h221zM130 722h343v-151h-343v151z" />
    <glyph glyph-name="uogonek" unicode="&#x173;" horiz-adv-x="605" 
d="M562 507v-507h-201v36q-26 -24 -59.5 -37t-72.5 -13q-43 0 -78 15t-60 43t-38.5 67t-13.5 87v309h221v-275q0 -21 10.5 -33.5t29.5 -12.5t30 12.5t11 33.5v275h221zM467 -193q-72 0 -113 30t-41 81q0 49 46 90t122 61l81 -69l-21 -11q-14 -7 -20 -13t-6 -17q0 -22 24 -22
h23v-122q-29 -4 -52 -6t-43 -2z" />
    <glyph glyph-name="uring" unicode="&#x16f;" horiz-adv-x="605" 
d="M562 507v-507h-201v36q-26 -24 -59.5 -37t-72.5 -13q-43 0 -78 15t-60 43t-38.5 67t-13.5 87v309h221v-275q0 -21 10.5 -33.5t29.5 -12.5t30 12.5t11 33.5v275h221zM302 531q-67 0 -108.5 40t-41.5 104t41.5 103.5t108.5 39.5q68 0 109.5 -39.5t41.5 -103.5
q0 -32 -11 -58.5t-31 -45.5t-48 -29.5t-61 -10.5zM304 639q15 0 25 10.5t10 25.5t-10 25.5t-25 10.5q-16 0 -26 -10t-10 -26t10 -26t26 -10z" />
    <glyph glyph-name="yacute" unicode="&#xfd;" horiz-adv-x="579" 
d="M588 507l-238 -670h-243l63 169l-179 501h234l64 -253l65 253h234zM260 752h240l-121 -192h-182z" />
    <glyph glyph-name="ydieresis" unicode="&#xff;" horiz-adv-x="579" 
d="M588 507l-238 -670h-243l63 169l-179 501h234l64 -253l65 253h234zM163 540q-23 0 -43.5 8.5t-35.5 23.5t-24 34.5t-9 41.5q0 23 8.5 43t23.5 34.5t35.5 23t44.5 8.5q50 0 81.5 -30.5t31.5 -78.5q0 -23 -9 -42.5t-24 -34t-35.5 -23t-44.5 -8.5zM416 540q-23 0 -43.5 8.5
t-35.5 23.5t-24 34.5t-9 41.5q0 23 8.5 43t23.5 34.5t35.5 23t44.5 8.5q50 0 81.5 -30.5t31.5 -78.5q0 -23 -9 -42.5t-24 -34t-35.5 -23t-44.5 -8.5z" />
    <glyph glyph-name="zacute" unicode="&#x17a;" horiz-adv-x="500" 
d="M479 179v-179h-458v164l175 164h-170v179h444v-164l-179 -164h188zM220 752h240l-121 -192h-182z" />
    <glyph glyph-name="zcaron" unicode="&#x17e;" horiz-adv-x="500" 
d="M479 179v-179h-458v164l175 164h-170v179h444v-164l-179 -164h188zM480 752l-142 -192h-176l-142 192h175l55 -65l55 65h175z" />
    <glyph glyph-name="zdotaccent" unicode="&#x17c;" horiz-adv-x="500" 
d="M479 179v-179h-458v164l175 164h-170v179h444v-164l-179 -164h188zM250 540q-26 0 -48 9t-38.5 25t-25.5 37.5t-9 46.5t9 46t25.5 37t38.5 25t48 9t48 -9t38.5 -25t25.5 -37t9 -46t-9 -46.5t-25.5 -37.5t-38.5 -25t-48 -9z" />
    <glyph glyph-name="iacute_j.locl" horiz-adv-x="613" 
d="M43 507h221v-507h-221v507zM124 752h240l-121 -192h-182zM263 10h26q34 0 47.5 11.5t13.5 40.5v445h220v-457q0 -103 -57.5 -158t-163.5 -55h-86v173zM431 752h240l-121 -192h-182z" />
    <glyph glyph-name="ordfeminine" unicode="&#xaa;" horiz-adv-x="449" 
d="M223 682q94 0 146.5 -47t52.5 -131v-235h-158v34q-20 -19 -49 -31t-69 -12q-63 0 -99 31t-36 85q0 58 43 90t128 32h70v18q0 41 -34 41q-33 0 -36 -39h-155q3 80 55.5 122t140.5 42zM217 354q16 0 25.5 10.5t9.5 30.5v20h-35q-14 0 -23 -8.5t-9 -22.5t8.5 -22t23.5 -8z
" />
    <glyph glyph-name="ordmasculine" unicode="&#xba;" horiz-adv-x="487" 
d="M244 260q-52 0 -94.5 15.5t-73 43t-47 66.5t-16.5 86t16.5 86t47 66.5t73 43t94.5 15.5q51 0 93.5 -15.5t73 -43t47 -66.5t16.5 -86t-17 -86t-47 -66.5t-72.5 -43t-93.5 -15.5zM244 415q25 0 39 15t14 41t-14 41t-39 15q-26 0 -40 -15t-14 -41t14 -41t40 -15z" />
    <glyph glyph-name="glyph244" horiz-adv-x="333" 
d="M37 673h270v-124h-100v-24h92v-107h-92v-25h103v-124h-273v404z" />
    <glyph glyph-name="glyph245" horiz-adv-x="567" 
d="M530 673v-404h-149v202l-43 -202h-110l-42 205v-205h-149v404h209l38 -164l36 164h210z" />
    <glyph glyph-name="glyph246" horiz-adv-x="694" 
d="M649 183v-183h-604v183l182 490h240zM347 458l-80 -275h162z" />
    <glyph glyph-name="glyph247" horiz-adv-x="814" 
d="M782 369q0 -112 -79 -191h69v-178h-338v178q54 24 83 65.5t29 94.5q0 31 -10 57.5t-28.5 45t-44 29t-56.5 10.5q-63 0 -102 -39.5t-39 -103.5q0 -54 29 -95t84 -64v-178h-337v178h63q-35 40 -54 89.5t-19 103.5q0 68 28 126t78 100t118.5 66t149.5 24t150 -24t119 -66.5
t78.5 -100.5t28.5 -127z" />
    <glyph glyph-name="glyph248" horiz-adv-x="628" 
d="M624 184v-184h-80q-75 0 -120 39q-18 -22 -45 -34.5t-60 -12.5q-36 0 -65 16v-171h-211v670h221v-276q0 -21 11 -33t31 -12t31 12t11 33v276h221v-285q0 -38 36 -38h19z" />
    <glyph glyph-name="zero" unicode="0" horiz-adv-x="775" 
d="M388 -14q-81 0 -148 26t-115.5 72.5t-75.5 111t-27 141.5t27 141.5t75.5 111t115.5 72t148 25.5q80 0 147 -26t115.5 -72.5t75.5 -110.5t27 -141t-27 -141.5t-75.5 -111t-115.5 -72.5t-147 -26zM388 189q30 0 55.5 11t44 30.5t29 47t10.5 59.5t-10.5 59t-29 46.5
t-44 30.5t-55.5 11t-56 -11t-44.5 -30.5t-29 -46.5t-10.5 -59t10.5 -59.5t29 -47t44.5 -30.5t56 -11z" />
    <glyph glyph-name="one" unicode="1" horiz-adv-x="442" 
d="M378 673v-673h-220v460l-104 -32l-50 185l197 60h177z" />
    <glyph glyph-name="two" unicode="2" horiz-adv-x="574" 
d="M546 188v-188h-519v77q0 73 45 137t139 126q35 23 56.5 37.5t33 25t15 18.5t3.5 19q0 41 -37 41q-20 0 -29 -14t-9 -47h-218q0 128 70.5 197.5t198.5 69.5q118 0 183.5 -58.5t65.5 -164.5q0 -41 -10.5 -72t-32.5 -58t-54.5 -52.5t-76.5 -53.5l-62 -40h238z" />
    <glyph glyph-name="three" unicode="3" horiz-adv-x="575" 
d="M443 341q49 -23 76 -62.5t27 -92.5q0 -44 -19 -81t-53.5 -63.5t-83 -41t-106.5 -14.5q-121 0 -189.5 64.5t-74.5 185.5h207q0 -26 13 -40t36 -14q21 0 34.5 12t13.5 32q0 40 -47 40h-65v149h61q24 0 37.5 10.5t13.5 30.5q0 19 -13 30.5t-35 11.5q-23 0 -37.5 -14.5
t-15.5 -40.5h-203q6 115 77.5 179.5t191.5 64.5q55 0 101 -14.5t78 -40.5t50 -62.5t18 -80.5q0 -51 -24 -88.5t-69 -59.5z" />
    <glyph glyph-name="four" unicode="4" horiz-adv-x="617" 
d="M603 96h-67v-96h-220v96h-294v168l274 409h240v-397h67v-180zM233 276h107v169z" />
    <glyph glyph-name="five" unicode="5" horiz-adv-x="600" 
d="M359 447q48 0 88 -16.5t68.5 -46t44.5 -71t16 -90.5q0 -54 -19 -98t-54.5 -74.5t-85.5 -47.5t-112 -17q-121 0 -188.5 62t-72.5 177h211q3 -20 15.5 -32t32.5 -12q23 0 37.5 16t14.5 40t-15 40t-37 16q-29 0 -43 -25h-201v405h483v-188h-275v-56q40 18 92 18z" />
    <glyph glyph-name="six" unicode="6" horiz-adv-x="565" 
d="M374 478q39 -9 71.5 -30.5t56 -52t36.5 -68.5t13 -80q0 -54 -21 -102t-57.5 -83t-85.5 -55.5t-106 -20.5q-56 0 -105 20.5t-85 56.5t-56.5 85t-20.5 105q0 23 4 44t13 44.5t24 50t38 61.5l147 220h259zM282 186q25 0 41.5 16.5t16.5 42.5t-16.5 42.5t-41.5 16.5
t-41 -16.5t-16 -42.5t16 -42.5t41 -16.5z" />
    <glyph glyph-name="seven" unicode="7" horiz-adv-x="556" 
d="M524 673v-183l-235 -490h-239l242 475h-266v198h498z" />
    <glyph glyph-name="eight" unicode="8" horiz-adv-x="606" 
d="M487 351q90 -50 90 -160q0 -95 -72 -150t-202 -55t-202 55t-72 150q0 110 90 160q-38 24 -58.5 60t-20.5 82q0 44 18.5 79.5t52.5 61t82.5 39.5t109.5 14t109.5 -14t82.5 -39.5t52.5 -61t18.5 -79.5q0 -46 -20.5 -82t-58.5 -60zM303 526q-22 0 -36.5 -14.5t-14.5 -35.5
q0 -23 14 -37.5t37 -14.5t37 14.5t14 37.5q0 21 -14.5 35.5t-36.5 14.5zM303 147q24 0 39.5 15t15.5 39q0 25 -15.5 40.5t-39.5 15.5t-39.5 -15.5t-15.5 -40.5q0 -24 15.5 -39t39.5 -15z" />
    <glyph glyph-name="nine" unicode="9" horiz-adv-x="565" 
d="M191 195q-39 9 -71.5 30.5t-56 52t-36.5 68.5t-13 80q0 54 21 102t57.5 83t85.5 55.5t106 20.5q56 0 105 -20.5t85 -56.5t56.5 -85t20.5 -105q0 -23 -4 -44t-13 -44.5t-24 -50.5t-38 -61l-147 -220h-259zM283 487q-25 0 -41.5 -16.5t-16.5 -42.5t16.5 -42.5t41.5 -16.5
t41 16.5t16 42.5t-16 42.5t-41 16.5z" />
    <glyph glyph-name="zero.tnum" horiz-adv-x="580" 
d="M290 -14q-60 0 -109 18t-84.5 51t-54.5 79.5t-19 102.5v199q0 56 19 102.5t54.5 79.5t84.5 51t109 18t109 -18t84.5 -51t54.5 -79.5t19 -102.5v-199q0 -56 -19 -102.5t-54.5 -79.5t-84.5 -51t-109 -18zM290 183q46 0 46 60v187q0 60 -46 60t-46 -60v-187q0 -60 46 -60z
" />
    <glyph glyph-name="one.aalt" horiz-adv-x="580" 
d="M546 203v-203h-455v203h134v257l-134 -42l-50 185l227 70h177v-470h101z" />
    <glyph glyph-name="two.aalt" horiz-adv-x="580" 
d="M546 188v-188h-519v77q0 73 45 137t139 126q35 23 56.5 37.5t33 25t15 18.5t3.5 19q0 41 -37 41q-20 0 -29 -14t-9 -47h-218q0 128 70.5 197.5t198.5 69.5q118 0 183.5 -58.5t65.5 -164.5q0 -41 -10.5 -72t-32.5 -58t-54.5 -52.5t-76.5 -53.5l-62 -40h238z" />
    <glyph glyph-name="three.aalt" horiz-adv-x="580" 
d="M451 341q49 -23 76 -62.5t27 -92.5q0 -44 -19 -81t-53.5 -63.5t-83 -41t-106.5 -14.5q-121 0 -189.5 64.5t-74.5 185.5h207q0 -26 13 -40t36 -14q21 0 34.5 12t13.5 32q0 40 -47 40h-65v149h61q24 0 37.5 10.5t13.5 30.5q0 19 -13 30.5t-35 11.5q-23 0 -37.5 -14.5
t-15.5 -40.5h-203q6 115 77.5 179.5t191.5 64.5q55 0 101 -14.5t78 -40.5t50 -62.5t18 -80.5q0 -51 -24 -88.5t-69 -59.5z" />
    <glyph glyph-name="four.aalt" horiz-adv-x="580" 
d="M572 96h-67v-96h-220v96h-280v168l260 409h240v-397h67v-180zM204 276h105v171z" />
    <glyph glyph-name="five.aalt" horiz-adv-x="580" 
d="M345 447q48 0 88 -16.5t68.5 -46t44.5 -71t16 -90.5q0 -54 -19 -98t-54.5 -74.5t-85.5 -47.5t-112 -17q-121 0 -188.5 62t-72.5 177h211q3 -20 15.5 -32t32.5 -12q23 0 37.5 16t14.5 40t-15 40t-37 16q-29 0 -43 -25h-201v405h483v-188h-275v-56q40 18 92 18z" />
    <glyph glyph-name="six.aalt" horiz-adv-x="580" 
d="M380 478q39 -9 71.5 -30.5t56 -52t36.5 -68.5t13 -80q0 -54 -21 -102t-57.5 -83t-85.5 -55.5t-106 -20.5q-56 0 -105 20.5t-85 56.5t-56.5 85t-20.5 105q0 23 4 44t13 44.5t24 50t38 61.5l147 220h259zM288 186q25 0 41.5 16.5t16.5 42.5t-16.5 42.5t-41.5 16.5
t-41 -16.5t-16 -42.5t16 -42.5t41 -16.5z" />
    <glyph glyph-name="seven.aalt" horiz-adv-x="580" 
d="M541 673v-183l-235 -490h-239l242 475h-276v198h508z" />
    <glyph glyph-name="eight.aalt" horiz-adv-x="580" 
d="M475 351q90 -50 90 -160q0 -95 -72 -150t-202 -55t-202 55t-72 150q0 110 90 160q-38 24 -58.5 60t-20.5 82q0 44 18.5 79.5t52.5 61t82.5 39.5t109.5 14t109.5 -14t82.5 -39.5t52.5 -61t18.5 -79.5q0 -46 -20.5 -82t-58.5 -60zM291 526q-22 0 -36.5 -14.5t-14.5 -35.5
q0 -23 14 -37.5t37 -14.5t37 14.5t14 37.5q0 21 -14.5 35.5t-36.5 14.5zM291 147q24 0 39.5 15t15.5 39q0 25 -15.5 40.5t-39.5 15.5t-39.5 -15.5t-15.5 -40.5q0 -24 15.5 -39t39.5 -15z" />
    <glyph glyph-name="nine.aalt" horiz-adv-x="580" 
d="M200 195q-39 9 -71.5 30.5t-56 52t-36.5 68.5t-13 80q0 54 21 102t57.5 83t85.5 55.5t106 20.5q56 0 105 -20.5t85 -56.5t56.5 -85t20.5 -105q0 -23 -4 -44t-13 -44.5t-24 -50.5t-38 -61l-147 -220h-259zM292 487q-25 0 -41.5 -16.5t-16.5 -42.5t16.5 -42.5t41.5 -16.5
t41 16.5t16 42.5t-16 42.5t-41 16.5z" />
    <glyph glyph-name="zero.zero" horiz-adv-x="775" 
d="M388 687q80 0 147 -26t115.5 -72.5t75.5 -110.5t27 -141t-27 -141.5t-75.5 -111t-115.5 -72.5t-147 -26q-81 0 -148 26t-115.5 72.5t-75.5 111t-27 141.5t27 141.5t75.5 111t115.5 72t148 25.5zM388 499q-33 0 -61.5 -12t-49 -33.5t-32 -51.5t-11.5 -65q0 -37 12 -65
l211 211q-32 16 -69 16zM388 174q33 0 61.5 12t48.5 34t31.5 51.5t11.5 65.5q0 34 -11 65l-212 -212q16 -8 33 -12t37 -4z" />
    <glyph glyph-name="uni00B9" unicode="&#xb9;" horiz-adv-x="299" 
d="M247 773v-359h-141v241l-69 -20l-27 103l120 35h117z" />
    <glyph glyph-name="uni00B2" unicode="&#xb2;" horiz-adv-x="351" 
d="M331 518v-104h-313v41q0 42 23 72.5t76 59.5q25 13 40 21.5t23 15t10.5 11.5t2.5 11q0 23 -20 23q-23 0 -23 -34h-132q0 66 43.5 105.5t116.5 39.5q69 0 110.5 -33t41.5 -87q0 -41 -22.5 -70.5t-76.5 -58.5l-23 -13h123z" />
    <glyph glyph-name="uni00B3" unicode="&#xb3;" horiz-adv-x="340" 
d="M265 595q55 -23 55 -78q0 -49 -41.5 -79.5t-107.5 -30.5q-151 0 -157 133h124q0 -14 7.5 -21.5t19.5 -7.5t19.5 6.5t7.5 16.5q0 22 -26 22h-35v78h33q28 0 28 23q0 10 -7.5 16t-19.5 6t-20 -8t-9 -21h-122q3 63 44.5 96.5t114.5 33.5q64 0 103 -30t39 -80q0 -52 -50 -75z
" />
    <glyph glyph-name="uni2074" unicode="&#x2074;" horiz-adv-x="366" 
d="M356 465h-39v-51h-131v51h-171v99l159 209h143v-204h39v-104zM146 569h56v79z" />
    <glyph glyph-name="fraction" unicode="&#x2044;" horiz-adv-x="276" 
d="M251 673h171l-391 -673h-169z" />
    <glyph glyph-name="onehalf" unicode="&#xbd;" horiz-adv-x="803" 
d="M488 673h171l-391 -673h-169zM247 674v-359h-141v241l-69 -20l-27 103l120 35h117zM783 105v-104h-313v41q0 42 23 72.5t76 59.5q25 13 40 21.5t23 15t10.5 11.5t2.5 11q0 23 -20 23q-23 0 -23 -34h-132q0 66 43.5 105.5t116.5 39.5q69 0 110.5 -33t41.5 -87
q0 -41 -22.5 -70.5t-76.5 -58.5l-23 -13h123z" />
    <glyph glyph-name="onethird" unicode="&#x2153;" horiz-adv-x="816" 
d="M488 673h171l-391 -673h-169zM247 674v-359h-141v241l-69 -20l-27 103l120 35h117zM741 182q55 -23 55 -78q0 -49 -41.5 -79.5t-107.5 -30.5q-151 0 -157 133h124q0 -14 7.5 -21.5t19.5 -7.5t19.5 6.5t7.5 16.5q0 22 -26 22h-35v78h33q28 0 28 23q0 10 -7.5 16t-19.5 6
t-20 -8t-9 -21h-122q3 63 44.5 96.5t114.5 33.5q64 0 103 -30t39 -80q0 -52 -50 -75z" />
    <glyph glyph-name="twothirds" unicode="&#x2154;" horiz-adv-x="918" 
d="M588 673h171l-391 -673h-169zM331 419v-104h-313v41q0 42 23 72.5t76 59.5q25 13 40 21.5t23 15t10.5 11.5t2.5 11q0 23 -20 23q-23 0 -23 -34h-132q0 66 43.5 105.5t116.5 39.5q69 0 110.5 -33t41.5 -87q0 -41 -22.5 -70.5t-76.5 -58.5l-23 -13h123zM843 182
q55 -23 55 -78q0 -49 -41.5 -79.5t-107.5 -30.5q-151 0 -157 133h124q0 -14 7.5 -21.5t19.5 -7.5t19.5 6.5t7.5 16.5q0 22 -26 22h-35v78h33q28 0 28 23q0 10 -7.5 16t-19.5 6t-20 -8t-9 -21h-122q3 63 44.5 96.5t114.5 33.5q64 0 103 -30t39 -80q0 -52 -50 -75z" />
    <glyph glyph-name="onequarter" unicode="&#xbc;" horiz-adv-x="772" 
d="M488 673h171l-391 -673h-169zM247 674v-359h-141v241l-69 -20l-27 103l120 35h117zM761 52h-39v-51h-131v51h-171v99l159 209h143v-204h39v-104zM551 156h56v79z" />
    <glyph glyph-name="threequarters" unicode="&#xbe;" horiz-adv-x="829" 
d="M544 673h171l-391 -673h-169zM265 496q55 -23 55 -78q0 -49 -41.5 -79.5t-107.5 -30.5q-151 0 -157 133h124q0 -14 7.5 -21.5t19.5 -7.5t19.5 6.5t7.5 16.5q0 22 -26 22h-35v78h33q28 0 28 23q0 10 -7.5 16t-19.5 6t-20 -8t-9 -21h-122q3 63 44.5 96.5t114.5 33.5
q64 0 103 -30t39 -80q0 -52 -50 -75zM818 52h-39v-51h-131v51h-171v99l159 209h143v-204h39v-104zM608 156h56v79z" />
    <glyph glyph-name="asterisk" unicode="*" horiz-adv-x="458" 
d="M336 513l89 -47l-58 -100l-84 53l5 -100h-117l4 100l-84 -53l-58 100l89 47l-89 46l58 101l84 -54l-4 100h117l-5 -99l84 53l58 -101z" />
    <glyph glyph-name="backslash" unicode="\" horiz-adv-x="559" 
d="M323 -30l-301 733h214l301 -733h-214z" />
    <glyph glyph-name="periodcentered" unicode="&#xb7;" horiz-adv-x="312" 
d="M156 206q-27 0 -50 9t-39.5 25t-26 38.5t-9.5 48.5t9.5 48.5t26 39t39.5 25.5t50 9t50 -9t39.5 -25.5t26 -39t9.5 -48.5t-9.5 -48.5t-26 -38.5t-39.5 -25t-50 -9z" />
    <glyph glyph-name="bullet" unicode="&#x2022;" horiz-adv-x="491" 
d="M246 134q-44 0 -82 15.5t-66.5 43t-44.5 64t-16 78.5t16 79t44.5 64.5t66.5 43t82 15.5t82 -15.5t66 -42.5t44 -64t16 -80q0 -42 -16 -79t-44 -64t-66 -42.5t-82 -15.5z" />
    <glyph glyph-name="colon" unicode=":" horiz-adv-x="332" 
d="M166 271q-27 0 -50 9t-39.5 25t-26 38.5t-9.5 48.5t9.5 48.5t26 39t39.5 25.5t50 9t50 -9t39.5 -25.5t26 -39t9.5 -48.5t-9.5 -48.5t-26 -38.5t-39.5 -25t-50 -9zM166 -14q-27 0 -50 9t-39.5 25t-26 38.5t-9.5 48.5t9.5 48.5t26 39t39.5 25.5t50 9t50 -9t39.5 -25.5
t26 -39t9.5 -48.5t-9.5 -48.5t-26 -38.5t-39.5 -25t-50 -9z" />
    <glyph glyph-name="comma" unicode="," horiz-adv-x="312" 
d="M49 185h225l-65 -338h-160v338z" />
    <glyph glyph-name="ellipsis" unicode="&#x2026;" horiz-adv-x="969" 
d="M485 -14q-27 0 -50 9t-39.5 25t-26 38.5t-9.5 48.5t9.5 48.5t26 39t39.5 25.5t50 9t50 -9t39.5 -25.5t26 -39t9.5 -48.5t-9.5 -48.5t-26 -38.5t-39.5 -25t-50 -9zM181 -14q-27 0 -50 9t-39.5 25t-26 38.5t-9.5 48.5t9.5 48.5t26 39t39.5 25.5t50 9t50 -9t39.5 -25.5
t26 -39t9.5 -48.5t-9.5 -48.5t-26 -38.5t-39.5 -25t-50 -9zM788 -14q-27 0 -50 9t-39.5 25t-26 38.5t-9.5 48.5t9.5 48.5t26 39t39.5 25.5t50 9t50 -9t39.5 -25.5t26 -39t9.5 -48.5t-9.5 -48.5t-26 -38.5t-39.5 -25t-50 -9z" />
    <glyph glyph-name="exclam" unicode="!" horiz-adv-x="382" 
d="M60 673h262l-41 -420h-178zM191 -14q-52 0 -85.5 32t-33.5 82q0 51 33.5 83t85.5 32t85.5 -32t33.5 -83q0 -50 -33.5 -82t-85.5 -32z" />
    <glyph glyph-name="exclamdown" unicode="&#xa1;" horiz-adv-x="376" 
d="M268 257l41 -420h-262l43 420h178zM178 524q52 0 85.5 -32t33.5 -82q0 -51 -33.5 -83t-85.5 -32t-85.5 32t-33.5 83q0 50 33.5 82t85.5 32z" />
    <glyph glyph-name="numbersign" unicode="#" horiz-adv-x="687" 
d="M573 370l-11 -80h94v-165h-115l-17 -125h-182l16 125h-82l-17 -125h-182l17 125h-83v165h105l10 80h-95v165h118l18 138h181l-18 -138h84l18 138h181l-18 -138h81v-165h-103zM390 283l13 94h-104l-12 -94h103z" />
    <glyph glyph-name="period" unicode="." horiz-adv-x="312" 
d="M156 -14q-27 0 -50 9t-39.5 25t-26 38.5t-9.5 48.5t9.5 48.5t26 39t39.5 25.5t50 9t50 -9t39.5 -25.5t26 -39t9.5 -48.5t-9.5 -48.5t-26 -38.5t-39.5 -25t-50 -9z" />
    <glyph glyph-name="question" unicode="?" horiz-adv-x="438" 
d="M207 673q48 0 87 -13t66.5 -36.5t42.5 -57t15 -74.5q0 -54 -34.5 -98.5t-112.5 -89.5v-51h-184v129q39 22 61 35.5t33.5 21.5t14 13t2.5 11q0 24 -30 24h-126v186h165zM180 215q52 0 85.5 -32t33.5 -83q0 -50 -33.5 -82t-85.5 -32t-85.5 32t-33.5 82q0 51 33.5 83
t85.5 32z" />
    <glyph glyph-name="questiondown" unicode="&#xbf;" horiz-adv-x="423" 
d="M231 -163q-48 0 -87 13t-66.5 36.5t-42.5 57t-15 74.5q0 54 34.5 98.5t112.5 89.5v51h184v-129q-39 -23 -61 -36t-33.5 -21t-14 -13t-2.5 -11q0 -24 30 -24h126v-186h-165zM258 295q-52 0 -85.5 32t-33.5 83q0 50 33.5 82t85.5 32t85.5 -32t33.5 -82q0 -51 -33.5 -83
t-85.5 -32z" />
    <glyph glyph-name="quotedbl" unicode="&#x22;" horiz-adv-x="529" 
d="M33 673h198v-320h-170zM298 673h198l-28 -320h-170v320z" />
    <glyph glyph-name="quotesingle" unicode="'" horiz-adv-x="287" 
d="M33 673h221l-28 -320h-165z" />
    <glyph glyph-name="semicolon" unicode=";" horiz-adv-x="332" 
d="M166 271q-27 0 -50 9t-39.5 25t-26 38.5t-9.5 48.5t9.5 48.5t26 39t39.5 25.5t50 9t50 -9t39.5 -25.5t26 -39t9.5 -48.5t-9.5 -48.5t-26 -38.5t-39.5 -25t-50 -9zM59 185h225l-65 -338h-160v338z" />
    <glyph glyph-name="slash" unicode="/" horiz-adv-x="559" 
d="M323 703h214l-301 -733h-214z" />
    <glyph glyph-name="underscore" unicode="_" horiz-adv-x="494" 
d="M20 -49h454v-170h-454v170z" />
    <glyph glyph-name="exclamdown.aalt" horiz-adv-x="382" 
d="M281 421l41 -420h-262l43 420h178zM191 688q52 0 85.5 -32t33.5 -82q0 -51 -33.5 -83t-85.5 -32t-85.5 32t-33.5 83q0 50 33.5 82t85.5 32z" />
    <glyph glyph-name="questiondown.aalt" horiz-adv-x="438" 
d="M231 0q-48 0 -87 13t-66.5 36.5t-42.5 57t-15 74.5q0 54 34.5 98.5t112.5 89.5v51h184v-129q-39 -23 -61 -36t-33.5 -21t-14 -13t-2.5 -11q0 -24 30 -24h126v-186h-165zM258 458q-52 0 -85.5 32t-33.5 83q0 50 33.5 82t85.5 32t85.5 -32t33.5 -82q0 -51 -33.5 -83
t-85.5 -32z" />
    <glyph glyph-name="braceleft" unicode="{" horiz-adv-x="420" 
d="M315 600q-39 0 -39 -45q0 -9 2 -24.5t4.5 -33.5t4.5 -37t2 -35q0 -38 -19.5 -59.5t-63.5 -30.5q45 -8 64 -29t19 -58q0 -16 -2 -35t-4.5 -37.5t-4.5 -34t-2 -24.5q0 -44 39 -44h65v-163h-107q-177 0 -177 153q0 40 8.5 77t8.5 63q0 49 -47 49h-46v168h46q47 0 47 50
q0 26 -8.5 62.5t-8.5 76.5q0 153 177 153h107v-162h-65z" />
    <glyph glyph-name="braceright" unicode="}" horiz-adv-x="420" 
d="M40 600v162h107q177 0 177 -153q0 -40 -8.5 -76.5t-8.5 -62.5q0 -50 47 -50h46v-168h-46q-47 0 -47 -49q0 -26 8.5 -63t8.5 -77q0 -153 -177 -153h-107v163h65q39 0 39 44q0 9 -2 24.5t-4.5 34t-4.5 37.5t-2 35q0 37 19 58t64 29q-44 9 -63.5 30.5t-19.5 59.5q0 16 2 35
t4.5 37t4.5 33.5t2 24.5q0 45 -39 45h-65z" />
    <glyph glyph-name="bracketleft" unicode="[" horiz-adv-x="398" 
d="M72 762h286v-156h-106v-539h106v-157h-286v852z" />
    <glyph glyph-name="bracketright" unicode="]" horiz-adv-x="398" 
d="M40 -90v157h106v539h-106v156h286v-852h-286z" />
    <glyph glyph-name="parenleft" unicode="(" horiz-adv-x="402" 
d="M222 -90q-80 85 -118.5 191.5t-38.5 234.5t38.5 234t118.5 192h200q-89 -95 -131.5 -199t-42.5 -227t42.5 -227t131.5 -199h-200z" />
    <glyph glyph-name="parenright" unicode=")" horiz-adv-x="402" 
d="M-20 -90q89 95 131.5 199t42.5 227t-42.5 227t-131.5 199h200q80 -86 118.5 -192t38.5 -234t-38.5 -234.5t-118.5 -191.5h-200z" />
    <glyph glyph-name="emdash" unicode="&#x2014;" horiz-adv-x="1000" 
d="M50 412h900v-183h-900v183z" />
    <glyph glyph-name="endash" unicode="&#x2013;" horiz-adv-x="500" 
d="M23 412h454v-183h-454v183z" />
    <glyph glyph-name="hyphen" unicode="-" horiz-adv-x="334" 
d="M30 412h274v-183h-274v183z" />
    <glyph glyph-name="uni00AD" unicode="&#xad;" horiz-adv-x="334" 
d="M30 412h274v-183h-274v183z" />
    <glyph glyph-name="emdash.aalt" horiz-adv-x="1000" 
d="M50 373h900v-183h-900v183z" />
    <glyph glyph-name="endash.aalt" horiz-adv-x="500" 
d="M23 373h454v-183h-454v183z" />
    <glyph glyph-name="glyph312" horiz-adv-x="334" 
d="M30 373h274v-183h-274v183z" />
    <glyph glyph-name="guillemotleft" unicode="&#xab;" horiz-adv-x="663" 
d="M131 80l-99 240l99 237h212l-93 -237l93 -240h-212zM426 80l-99 240l99 237h212l-93 -237l93 -240h-212z" />
    <glyph glyph-name="guillemotright" unicode="&#xbb;" horiz-adv-x="663" 
d="M118 320l-93 237h212l99 -237l-99 -240h-212zM413 320l-93 237h212l99 -237l-99 -240h-212z" />
    <glyph glyph-name="guilsinglleft" unicode="&#x2039;" horiz-adv-x="368" 
d="M131 80l-99 240l99 237h212l-93 -237l93 -240h-212z" />
    <glyph glyph-name="guilsinglright" unicode="&#x203a;" horiz-adv-x="368" 
d="M118 320l-93 237h212l99 -237l-99 -240h-212z" />
    <glyph glyph-name="quotedblbase" unicode="&#x201e;" horiz-adv-x="563" 
d="M43 183h221l-47 -320h-174v320zM331 183h210l-70 -320h-187z" />
    <glyph glyph-name="quotedblleft" unicode="&#x201c;" horiz-adv-x="563" 
d="M520 353h-221l47 320h174v-320zM232 353h-210l70 320h187z" />
    <glyph glyph-name="quotedblright" unicode="&#x201d;" horiz-adv-x="563" 
d="M43 673h221l-47 -320h-174v320zM331 673h210l-70 -320h-187z" />
    <glyph glyph-name="quoteleft" unicode="&#x2018;" horiz-adv-x="306" 
d="M92 673h171v-320h-241z" />
    <glyph glyph-name="quoteright" unicode="&#x2019;" horiz-adv-x="306" 
d="M43 672h241l-70 -320h-171v320z" />
    <glyph glyph-name="quotesinglbase" unicode="&#x201a;" horiz-adv-x="306" 
d="M43 183h241l-70 -320h-171v320z" />
    <glyph glyph-name="uni00A0" unicode="&#xa0;" horiz-adv-x="270" 
 />
    <glyph glyph-name="cent" unicode="&#xa2;" horiz-adv-x="598" 
d="M211 69q-42 13 -77 37.5t-60 57.5t-39 73.5t-14 85.5t14 85.5t39 73.5t60 57.5t77 37.5v170h183v-169q76 -23 125 -82.5t58 -144.5h-209q-14 46 -61 46q-31 0 -49 -19.5t-18 -54.5q0 -34 18 -53.5t49 -19.5q47 0 61 47h209q-9 -85 -58 -144.5t-125 -83.5v-171h-183v171z
" />
    <glyph glyph-name="currency" unicode="&#xa4;" horiz-adv-x="664" 
d="M532 -13l-109 115q-23 -8 -46.5 -12t-49.5 -4q-50 0 -95 15l-101 -114l-130 131l89 99q-28 51 -28 113q0 29 7 55.5t20 50.5l-88 93l130 131l99 -103q46 17 95 17q55 0 103 -18l104 104l130 -131l-96 -94q25 -50 25 -105q0 -29 -7 -56.5t-20 -52.5l99 -104zM329 270
q26 0 41 16t15 44q0 27 -15.5 43t-42.5 16q-56 0 -56 -59q0 -60 58 -60z" />
    <glyph glyph-name="dollar" unicode="$" horiz-adv-x="543" 
d="M522 210q0 -73 -43.5 -121t-121.5 -65v-126h-183v131q-72 20 -112 70.5t-42 125.5h199q3 -30 15.5 -43t38.5 -13q41 0 41 28q0 14 -12.5 23.5t-47.5 23.5l-46 18q-90 36 -131 82t-41 109t36 107.5t102 63.5v123h183v-120q67 -18 105 -65.5t44 -122.5h-194q-6 45 -42 45
q-14 0 -22 -7t-8 -19q0 -11 9.5 -18.5t42.5 -21.5l53 -22q49 -20 83 -40t55 -42t30 -47.5t9 -56.5z" />
    <glyph glyph-name="Euro" unicode="&#x20ac;" horiz-adv-x="810" 
d="M426 173q58 0 97.5 32t53.5 90h211q-4 -68 -32 -125t-75.5 -98t-112 -63.5t-139.5 -22.5q-65 0 -121.5 16.5t-102 46.5t-78 72.5t-50.5 95.5h-77v103h58v26h-60v103h77q17 54 50 98t78.5 75t103 48t123.5 17q75 0 139 -22.5t111.5 -63.5t75.5 -98t32 -125h-211
q-12 58 -51 90t-98 32q-76 0 -116 -51h188l-29 -103h-194v-10v-8t1 -8h185l-29 -103h-117q41 -44 109 -44z" />
    <glyph glyph-name="florin" unicode="&#x192;" horiz-adv-x="481" 
d="M419 475q-55 0 -61 -51l-2 -16h74v-175h-95l-16 -140q-14 -115 -72.5 -170.5t-168.5 -55.5h-93v197h45q62 0 71 52l14 117h-66v175h87l4 38q14 116 72.5 171.5t169.5 55.5h94v-198h-57z" />
    <glyph glyph-name="uni20BA" unicode="&#x20ba;" horiz-adv-x="605" 
d="M580 312v-51q0 -125 -80.5 -193t-228.5 -68h-184v236l-67 -26v138l67 26v34l-67 -26v138l67 26v127h220v-52l140 55v-138l-140 -55v-34l140 54v-138l-140 -54v-118q87 8 87 89v30h186z" />
    <glyph glyph-name="sterling" unicode="&#xa3;" horiz-adv-x="623" 
d="M347 236q0 -40 -26 -66h269v-170h-568v149q71 13 101 30.5t30 46.5v11h-121v160h62q-6 18 -9.5 37.5t-3.5 42.5q0 48 18 87t52 66t81.5 42t106.5 15q128 0 193.5 -60t65.5 -178h-188q-3 53 -53 53q-58 0 -58 -65q0 -21 6 -40h184v-160h-142v-1z" />
    <glyph glyph-name="yen" unicode="&#xa5;" horiz-adv-x="649" 
d="M487 373h107v-135h-156v-36h156v-135h-156v-67h-226v67h-156v135h156v36h-156v135h106l-173 300h260l76 -169l76 169h259z" />
    <glyph glyph-name="uni2219" unicode="&#x2219;" horiz-adv-x="302" 
d="M152 206q-27 0 -50 9t-39.5 25t-26 38.5t-9.5 48.5t9.5 48.5t26 39t39.5 25.5t50 9t50 -9t39.5 -25.5t26 -39t9.5 -48.5t-9.5 -48.5t-26 -38.5t-39.5 -25t-50 -9z" />
    <glyph glyph-name="plus" unicode="+" horiz-adv-x="580" 
d="M194 243h-168v170h168v172h193v-172h167v-170h-167v-173h-193v173z" />
    <glyph glyph-name="minus" unicode="&#x2212;" horiz-adv-x="580" 
d="M31 421h518v-184h-518v184z" />
    <glyph glyph-name="multiply" unicode="&#xd7;" horiz-adv-x="580" 
d="M29 202l133 133l-133 133l127 127l135 -133l133 133l127 -127l-134 -133l134 -134l-127 -127l-135 133l-133 -133z" />
    <glyph glyph-name="divide" unicode="&#xf7;" horiz-adv-x="580" 
d="M290 443q-25 0 -46.5 9t-38 24t-26 35.5t-9.5 44.5t9.5 44.5t26 35.5t38 23.5t46.5 8.5t47 -8.5t38.5 -23.5t26 -35.5t9.5 -44.5t-9.5 -44.5t-26 -35.5t-38.5 -24t-47 -9zM31 428h518v-183h-518v183zM290 5q-25 0 -46.5 8.5t-38 23.5t-26 35.5t-9.5 44.5t9.5 44.5t26 36
t38 24t46.5 8.5t47 -8.5t38.5 -24t26 -36t9.5 -44.5t-9.5 -44.5t-26 -35.5t-38.5 -23.5t-47 -8.5z" />
    <glyph glyph-name="equal" unicode="=" horiz-adv-x="580" 
d="M39 534h502v-173h-502v173zM39 298h502v-174h-502v174z" />
    <glyph glyph-name="notequal" unicode="&#x2260;" horiz-adv-x="580" 
d="M39 534h247l46 100h166l-45 -100h88v-173h-167l-28 -63h195v-174h-274l-38 -85h-167l38 85h-61v174h140l29 63h-169v173z" />
    <glyph glyph-name="greater" unicode="&#x3e;" horiz-adv-x="580" 
d="M545 415v-157l-510 -231v201l255 109l-255 108v201z" />
    <glyph glyph-name="less" unicode="&#x3c;" horiz-adv-x="580" 
d="M545 445l-255 -108l255 -109v-201l-510 231v157l510 231v-201z" />
    <glyph glyph-name="greaterequal" unicode="&#x2265;" horiz-adv-x="580" 
d="M535 506v-140l-490 -181v189l197 62l-197 62v189zM45 175h490v-175h-490v175z" />
    <glyph glyph-name="lessequal" unicode="&#x2264;" horiz-adv-x="580" 
d="M535 498l-197 -62l197 -62v-189l-490 181v140l490 181v-189zM45 0v175h490v-175h-490z" />
    <glyph glyph-name="plusminus" unicode="&#xb1;" horiz-adv-x="580" 
d="M194 351h-168v170h168v152h193v-152h167v-170h-167v-153h-193v153zM37 165h508v-165h-508v165z" />
    <glyph glyph-name="approxequal" unicode="&#x2248;" horiz-adv-x="580" 
d="M401.568 332q-15.5195 0 -28.1299 1.5q-12.6094 1.5 -26.6738 5.5t-31.5244 12q-17.459 8 -42.6787 20q-20.3691 10 -34.9189 16q-14.5488 6 -25.7041 9.5q-11.1543 3.5 -20.3691 5t-19.8848 1.5q-11.6396 0 -23.7637 -2q-12.125 -2 -27.6445 -7t-35.4043 -13
q-19.8838 -8 -47.043 -21v177q45.5889 28 75.1729 39t63.5332 11q15.5195 0 28.1289 -1.5t26.6738 -5.5t31.5244 -12q17.459 -8 42.6787 -20q20.3691 -10 34.9189 -16t25.7041 -9.5t20.3691 -5t19.8848 -1.5q11.6396 0 23.7637 2q12.125 2 27.6445 7t34.9189 13t47.5283 21
v-177q-23.2793 -14 -41.2236 -23.5t-33.9492 -15.5q-16.0039 -6 -31.0391 -8.5q-15.0342 -2.5 -32.4932 -2.5zM401.568 75q-15.5195 0 -28.1299 1.5q-12.6094 1.5 -26.6738 5.5t-31.5244 12q-17.459 8 -42.6787 20q-20.3691 10 -34.9189 16q-14.5488 6 -25.7041 9.5
q-11.1543 3.5 -20.3691 5t-19.8848 1.5q-11.6396 0 -23.7637 -2q-12.125 -2 -27.6445 -7t-35.4043 -13q-19.8838 -8 -47.043 -21v177q45.5889 28 75.1729 39t63.5332 11q15.5195 0 28.1289 -1.5t26.6738 -5.5t31.5244 -12q17.459 -8 42.6787 -20q20.3691 -10 34.9189 -16
t25.7041 -9.5t20.3691 -5t19.8848 -1.5q11.6396 0 23.7637 2q12.125 2 27.6445 7t34.9189 13t47.5283 21v-177q-23.2793 -14 -41.2236 -23.5t-33.9492 -15.5q-16.0039 -6 -31.0391 -8.5q-15.0342 -2.5 -32.4932 -2.5z" />
    <glyph glyph-name="asciitilde" unicode="~" horiz-adv-x="580" 
d="M406 191q-16 0 -29 1.5t-27.5 5.5t-32.5 12t-44 20q-21 10 -36 16t-26.5 9.5t-21 5t-20.5 1.5q-12 0 -24.5 -2t-28.5 -7t-36.5 -13t-48.5 -21v177q47 28 77.5 39t65.5 11q16 0 29 -1.5t27.5 -5.5t32.5 -12t44 -20q21 -10 36 -16t26.5 -9.5t21 -5t20.5 -1.5q12 0 24.5 2
t28.5 7t36 13t49 21v-177q-24 -14 -42.5 -23.5t-35 -15.5t-32 -8.5t-33.5 -2.5z" />
    <glyph glyph-name="logicalnot" unicode="&#xac;" horiz-adv-x="580" 
d="M311 241h-286v180h488v-316h-202v136z" />
    <glyph glyph-name="infinity" unicode="&#x221e;" horiz-adv-x="1011" 
d="M739 589q58 0 104.5 -17.5t79 -51t49.5 -81.5t17 -108q0 -121 -66 -189t-183 -68q-41 0 -74.5 10t-62 27.5t-52.5 40t-45 47.5q-21 -25 -44.5 -47.5t-52 -40t-62.5 -27.5t-75 -10q-59 0 -105 17.5t-78.5 50.5t-49.5 81t-17 108t17 108t49.5 81.5t78.5 51t105 17.5
q40 0 74 -10t62.5 -26.5t52.5 -38.5t45 -47q21 25 45 47t52.5 38.5t62 26.5t73.5 10zM299 269q30 0 55 18.5t49 47.5q-23 27 -48.5 44.5t-57.5 17.5q-31 0 -47.5 -16.5t-16.5 -45.5q0 -32 17 -49t49 -17zM714 269q32 0 48.5 17t16.5 48q0 30 -16.5 46.5t-47.5 16.5
q-32 0 -57.5 -17.5t-48.5 -45.5q24 -29 49.5 -47t55.5 -18z" />
    <glyph glyph-name="integral" unicode="&#x222b;" horiz-adv-x="392" 
d="M-10 73h52q74 0 74 62q0 18 -5 49.5t-12 70.5t-15.5 82.5t-15.5 85.5t-12 80.5t-5 67.5q0 102 62.5 155.5t180.5 53.5h108v-194h-52q-38 0 -55.5 -14.5t-18.5 -46.5q0 -19 5 -51t12 -71t15.5 -82.5t15.5 -85.5t12 -80.5t5 -67.5q0 -101 -62.5 -154.5t-180.5 -53.5h-108
v194z" />
    <glyph glyph-name="Omega" unicode="&#x2126;" horiz-adv-x="814" 
d="M782 369q0 -112 -79 -191h69v-178h-338v178q54 24 83 65.5t29 94.5q0 31 -10 57.5t-28.5 45t-44 29t-56.5 10.5q-63 0 -102 -39.5t-39 -103.5q0 -54 29 -95t84 -64v-178h-337v178h63q-35 40 -54 89.5t-19 103.5q0 68 28 126t78 100t118.5 66t149.5 24t150 -24t119 -66.5
t78.5 -100.5t28.5 -127z" />
    <glyph glyph-name="Delta" unicode="&#x2206;" horiz-adv-x="694" 
d="M649 183v-183h-604v183l182 490h240zM347 458l-80 -275h162z" />
    <glyph glyph-name="product" unicode="&#x220f;" horiz-adv-x="707" 
d="M57 673h593v-803h-225v600h-143v-600h-225v803z" />
    <glyph glyph-name="summation" unicode="&#x2211;" horiz-adv-x="541" 
d="M516 68v-198h-491v144l163 262l-163 253v144h479v-198h-203l96 -136v-124l-99 -147h218z" />
    <glyph glyph-name="radical" unicode="&#x221a;" horiz-adv-x="733" 
d="M743 750l-366 -883h-216v273h-161v171h306v-201l251 640h186z" />
    <glyph glyph-name="mu" unicode="&#xb5;" horiz-adv-x="628" 
d="M624 184v-184h-80q-75 0 -120 39q-18 -22 -45 -34.5t-60 -12.5q-36 0 -65 16v-171h-211v670h221v-276q0 -21 11 -33t31 -12t31 12t11 33v276h221v-285q0 -38 36 -38h19z" />
    <glyph glyph-name="partialdiff" unicode="&#x2202;" horiz-adv-x="655" 
d="M337 687q139 0 211 -83.5t72 -243.5q0 -87 -22.5 -156t-65 -117.5t-102.5 -74.5t-135 -26q-121 0 -189.5 56.5t-68.5 156.5q0 105 62.5 161t179.5 56q28 0 59 -5t60 -14q-4 57 -21 82.5t-49 25.5q-28 0 -42 -12t-17 -39h-196q2 112 70.5 172.5t193.5 60.5zM304 174
q57 0 79 64q-44 14 -76 14q-22 0 -34.5 -10.5t-12.5 -27.5q0 -40 44 -40z" />
    <glyph glyph-name="percent" unicode="%" horiz-adv-x="912" 
d="M215 320q-42 0 -78 13.5t-62 38t-40.5 58.5t-14.5 74t14.5 73.5t40.5 58t61.5 38t78.5 13.5q42 0 78 -13.5t62 -38t40.5 -58t14.5 -73.5t-14.5 -73.5t-41 -58t-62 -38.5t-77.5 -14zM572 673h181l-413 -673h-179zM217 465q18 0 28.5 11t10.5 31q0 18 -11 29.5t-28 11.5
q-19 0 -30 -10.5t-11 -30.5q0 -42 41 -42zM697 -13q-42 0 -78 13.5t-62 38t-40.5 58.5t-14.5 74t14.5 73.5t40.5 58t61.5 38t78.5 13.5q42 0 78 -13.5t62 -38t40.5 -58t14.5 -73.5t-14.5 -73.5t-41 -58t-62 -38.5t-77.5 -14zM699 132q18 0 28.5 11t10.5 31q0 18 -11 29.5
t-28 11.5q-19 0 -30 -10.5t-11 -30.5q0 -42 41 -42z" />
    <glyph glyph-name="perthousand" unicode="&#x2030;" horiz-adv-x="1315" 
d="M1100 -13q-42 0 -78 13.5t-62 38t-40.5 58.5t-14.5 74t14.5 73.5t40.5 58t61.5 38t78.5 13.5q42 0 78 -13.5t62 -38t40.5 -58t14.5 -73.5t-14.5 -73.5t-41 -58t-62 -38.5t-77.5 -14zM1102 132q18 0 28.5 11t10.5 31q0 18 -11 29.5t-28 11.5q-19 0 -30 -10.5t-11 -30.5
q0 -42 41 -42zM215 320q-42 0 -78 13.5t-62 38t-40.5 58.5t-14.5 74t14.5 73.5t40.5 58t61.5 38t78.5 13.5q42 0 78 -13.5t62 -38t40.5 -58t14.5 -73.5t-14.5 -73.5t-41 -58t-62 -38.5t-77.5 -14zM572 673h181l-413 -673h-179zM217 465q18 0 28.5 11t10.5 31q0 18 -11 29.5
t-28 11.5q-19 0 -30 -10.5t-11 -30.5q0 -42 41 -42zM697 -13q-42 0 -78 13.5t-62 38t-40.5 58.5t-14.5 74t14.5 73.5t40.5 58t61.5 38t78.5 13.5q42 0 78 -13.5t62 -38t40.5 -58t14.5 -73.5t-14.5 -73.5t-41 -58t-62 -38.5t-77.5 -14zM699 132q18 0 28.5 11t10.5 31
q0 18 -11 29.5t-28 11.5q-19 0 -30 -10.5t-11 -30.5q0 -42 41 -42z" />
    <glyph glyph-name="lozenge" unicode="&#x25ca;" horiz-adv-x="555" 
d="M549 336l-227 -336h-89l-227 336l227 337h89zM355 336l-76 116l-76 -116l81 -119z" />
    <glyph glyph-name="uniF8FF" unicode="&#xf8ff;" horiz-adv-x="1212" 
d="M695 -74l-12 -2q42 10 72.5 28t50.5 37q1 0 3 2v1q2 2 7.5 8t11.5 13t10.5 13.5t4.5 8.5q-12 -8 -19.5 -20.5t-18.5 -21.5q5 6 6 7t1 3h-2v1l-4 -2q-22 -19 -43 -33.5t-43.5 -24t-48 -14.5t-55.5 -5q-14 0 -24.5 1t-21.5 4t-24 8.5t-32 13.5q8 -2 19.5 -7t22.5 -7
q9 -2 11 -1q-12 4 -22.5 8t-19.5 8q13 -2 25.5 -3t19.5 1q-25 1 -48.5 9t-40.5 25q6 -4 11 -6.5t11 -3.5q-22 14 -41 33q23 -19 49.5 -27t55.5 -8q25 0 50 5.5t48 14.5q-26 -2 -50.5 2.5t-62.5 15.5l23 -14q0 -1 -5.5 0t-13.5 3.5t-16.5 5.5t-13.5 6l-8 5q-1 0 -1 1
q3 2 13.5 4.5t15.5 3.5l2 -1h15q10 0 14.5 3t9.5 6l3 1q2 0 2 -1q5 -5 17 -11t29 -6q11 2 14 5.5t1 6.5q0 5 3 5q4 0 8 3t4 6q23 5 41.5 16.5t29.5 29.5q-9 -6 -13 -6q-3 0 -3 2t4.5 5.5t16.5 11.5q26 16 33.5 35.5t18.5 46.5q-8 2 -15 2h-13q-16 0 -33.5 -3t-34 -7.5
t-31 -9t-24.5 -6.5q0 -2 -2.5 -2.5t-4.5 -0.5t-3 -1h-10v1q0 1 1 3.5t6 3.5l28 10h3q0 2 2 2l4 1q2 0 4 2l3 2l7 2h2q3 1 5.5 2t5.5 3q1 0 2 0.5t3 0.5h3q2 0 3.5 0.5t3.5 0.5q4 0 10 1h1q5 0 8 1q1 1 3 0h1q1 1 2 1q1 1 3 1q0 -1 1 -1q1 1 2 1h7q2 0 3 2h5q2 0 8 2
q10 4 14 7q1 0 2.5 1t-0.5 2q-2 0 -4.5 0.5t-5.5 0.5q-2 0 -4.5 0.5t-4.5 -0.5q-5 0 -7 -1q-2 0 -2.5 -0.5t-2.5 -0.5h-3q-5 1 -8.5 3.5t-9.5 6.5q-1 0 -3 1l-4 2l-4 -1q-2 0 -3 -1l-11 -3l-14 -2h-2q-3 0 -5 1t-5 1q-2 0 -7 -2.5t-7 -2.5t-4 -1t-4 -1t-8.5 -2t-8.5 -2l-2 2
q1 3 10.5 7.5t21 9t22 7.5t13.5 3q1 0 -0.5 -1.5t-4 -3t-5 -2.5t-1.5 -2h2q3 0 10.5 2t15.5 3q13 0 18 -1h6q10 0 14 7q0 1 -3 1q-2 1 -2.5 0.5t-1.5 -0.5q-1 -1 -3 -1l-5 -1q-6 0 -8 1q-1 1 -6.5 1.5t-11.5 0.5l-1 1q0 1 2.5 1h17.5l13 3l10 1q1 1 4.5 1t4.5 -1
q4 -1 9 -0.5t5 2.5q0 1 -8 4q-1 1 -21 1q-1 0 -1 -0.5t-1 -0.5h-2q-10 0 -19.5 -1t-6.5 -2q-1 0 -1 1q0 2 9.5 4t11.5 1q-1 1 -5 1.5t-8 0.5q-38 0 -76 -9t-72 -26l-1 -1l-6 6q-16 18 -22.5 24.5t-16.5 17.5q-16 16 -35.5 28.5t-30.5 14.5q37 35 85 55t96 20q76 0 133 -36
q-20 11 -46 17.5t-53 6.5q-18 0 -34 -2t-27 -7q20 4 50 4q44 0 81.5 -13t63.5 -36q-18 10 -27 14t-28 9q30 -10 52 -29t36 -43.5t21 -52.5t7 -56q0 -44 -12 -80.5t-41 -72.5q-26 -30 -55.5 -51t-80.5 -33l4 2q-8 -2 -9 -2h-3zM84 -6q2 16 8 24q6 0 10 4q5 5 8 11
q11 5 15.5 8.5t7.5 8.5l12 23l1 1l16 1l14 5q0 1 4 5l2.5 5t-0.5 3l-7 20l-2 29q0 2 -2 2q-12 -3 -18.5 -3.5t-14.5 0.5q-19 2 -31 14t-12 32q0 13 7 23.5t15.5 18t15.5 13t8 9.5q0 3 -4 5q-10 2 -14 1.5t-9 1.5q-22 7 -25 30q0 10 4 15l26 -13q31 -8 39 -15q5 -8 5 -17
q0 -10 -8 -18t-17 -16t-17 -17t-8 -20q0 -30 31 -30q10 0 18.5 3.5t24.5 12.5q23 17 30.5 22t13.5 7q8 3 17 3t17 3q6 1 11 4t19 16q8 7 16 9.5t19 3.5q16 2 35 16.5t42 21.5l31 17q12 4 19 4q9 0 15 -3q13 -5 29 -16.5t31.5 -27t30 -32.5t23.5 -32q4 -9 6 -20q5 -41 19 -76
l10 -11l33 -36q1 0 1 -1l-2 -2q-17 -3 -35 18q-5 11 -10 16.5t-12 7.5l-1 -1q1 -2 3 -4.5t3 -4.5q6 -11 7.5 -14.5t2.5 -6.5q1 -9 18 -18l10 -5q2 -3 1 -4l-2 -1q-26 0 -43 17q-3 6 -10 6q-13 -13 -24 -14q-2 1 -3.5 1h-9.5q-14 0 -24 -5t-19 -5q-10 0 -11 6v20l5 7
q0 2 -2 2q-6 3 -7 3q0 3 3 6.5t12 12.5q3 11 10 20l-2 2q-15 -4 -24 -3q-11 -7 -23 -4q-1 1 -1 4q12 18 9 41q-1 2 -3 2q-1 0 -3 -2q-4 -25 -11 -36q-1 -1 -0.5 -1t0 -0.5t-5 -1.5t-14.5 -4q-4 -2 -4 -5l5 -12l16 -28q0 -5 -0.5 -8t-4.5 -16q1 -2 3 0q6 5 12 19v6.5t-2 3.5
l-16 31l5 3l11 -3q5 -16 14 -28q2 -2 2 -3.5v-6.5q0 -6 -2 -8q-3 -5 -5.5 -10t-6.5 -10q-3 -3 -7 -3.5t-9 -0.5h-5q-11 -6 -22 -10t-23 -7q-2 -1 -7 -1q-9 0 -13 4q-4 3 -6.5 7.5t-4.5 8.5q-2 3 -8 3q-5 0 -8 1l-12 21q0 1 2 5q10 2 17 2h4q7 0 11 -4q5 -8 9 -15t12 -11h3
q11 0 21 5q3 2 6 4.5t3 7.5q-1 8 -5.5 14t-10.5 11q-16 7 -27 20q-2 4 -3 7.5t-3 7.5q-3 3 -5 1t-1 -4t1 -5q1 -2 -1 -8q-2 -2 -8 -2q-13 0 -24 0.5t-24 -0.5q-5 0 -11.5 -1t-11.5 -1q-10 0 -15 4q-2 1 -2.5 2t-1.5 2q-2 3 -2 6.5v6.5q0 7 1 14t3 14q0 2 -4 2q-2 2 -5 -1
q-2 -11 -3.5 -21t-3.5 -20q-8 -17 -25 -26q-8 -5 -16.5 -6.5t-18.5 -2.5q-17 0 -32.5 -5t-25.5 -20q-1 -2 -2 -4.5t-1 -4.5h3q23 25 59 23q25 0 36 4.5t22 18.5l9 13q1 1 1.5 0.5l4.5 -4.5l-7 -16q-4 -8 -6.5 -12t-6.5 -6q-4 -1 -5.5 -1.5t-14.5 -8.5q-8 -3 -15 -3
q-6 0 -8 1q-11 2 -12 2h-5q-9 0 -16 -3q-4 -2 -7 -5.5t-7 -5.5q-10 -5 -13.5 -6.5t-4.5 -2t-1 0t-1 0.5q-11 2 -13 2t-4 -2l-15 -19q-4 -2 -9 -2zM662 673h83q78 0 78 -63q0 -27 -21 -50q23 -11 32.5 -25t9.5 -37q0 -29 -21.5 -49.5t-52.5 -20.5h-108v245zM497 426
q-31 0 -52 23t-21 57q0 33 21 56.5t52 23.5q28 0 48 -20v121h50v-260h-49v20q-21 -21 -49 -21zM64 673h94q31 0 52 -21t21 -52q0 -25 -16 -45t-40 -25l72 -102h-61l-52 80v59h12q14 0 24 9t10 23q0 13 -9.5 22t-23.5 9h-31v-202h-52v245zM321 422q-33 0 -57 24t-24 58t24 58
t57 24q36 0 57.5 -22.5t21.5 -59.5v-10h-109q0 -1 0.5 -1t0.5 -1q0 -13 9.5 -22t23.5 -9q10 0 18.5 5.5t12.5 13.5l39 -19q-11 -18 -30.5 -28.5t-43.5 -10.5zM941 305h-86v40h215v-40h-87v-200h-42v200zM1029 286h41v-120l54 81q10 15 15 31t5 28q0 25 -21 39q20 0 37.5 -16
t19.5 -38q2 -30 -22 -65l-76 -114q-6 -7 -13 -7h-40v181zM939 420q-35 0 -56 17t-21 46v95h48v-88q0 -28 29 -28q27 0 27 28v88h49v-95q0 -29 -20.5 -46t-55.5 -17zM1124 685h50v-258h-50v258zM1042 685h49v-258h-49v258zM761 470q29 2 31 32q0 14 -9 23t-22 9h-31v44h17
q25 0 25 27q0 11 -7 18.5t-18 7.5h-33v-161h47zM511 465q15 0 25 11.5t10 28.5q0 16 -10.5 27t-24.5 11q-15 0 -26 -11t-11 -27q0 -17 10.5 -28.5t26.5 -11.5zM352 522q0 12 -9 20.5t-22 8.5q-12 0 -20.5 -8.5t-8.5 -20.5h60zM760 87q4 2 9 0q7 8 13 12t11 12q4 7 7 13.5
t8 26.5l-1 -1q0 -1 -2.5 -7t-7.5 -6q-2 0 -4 0.5t-2 2.5q-4 -12 -13 -20t-14 -18q2 -2 2 -3q0 -2 -3 -5.5t-3 -6.5zM582 111h2q1 0 3 3l1 1v2q1 2 1 7q0 11 -10 21l-3 3l-2 4q-2 3 -6 6q-5 3 -8 -3l-1 -3v-1l-2 -4l-2 -4l-3 -3q0 -2 -0.5 -3t-0.5 -3t1 -3v-1h1q2 0 2 1l2 3
l3 2q1 2 5 4q3 0 6 -4l2 -2q1 -1 2 -1l2 -4q3 -2 3 -7l1 -7v-2q0 -1 1 -2zM396 34q-3 3 -4 7.5t-4 8.5q-1 3 -4 4t-2 3l2 2h10t10 1q5 0 5.5 -4.5t2.5 -8.5q1 -2 2.5 -4t-0.5 -4q-4 -2 -8.5 -4t-9.5 -1zM60 -3v4q4 4 4 8.5t1 9.5q1 4 7 8q3 -1 5 -3.5t4 -4.5v-2
q-2 -5 -3.5 -11.5t-3.5 -12.5zM480 198h3v1q2 8 2 14q0 9 -3 17q-2 2 -4 4.5t-5 4.5t-6 -1q-2 -3 1 -8l2 -2v-1l2 -4q3 -6 4.5 -12t3.5 -13zM86 28q-3 3 -3 5t-0.5 3.5t1.5 3.5q4 2 7.5 4.5t6.5 6.5h5q4 -4 5 -7q-3 -5 -6 -9.5t-8 -6.5q-4 -1 -8 0zM679 194q-2 2 -1 3
q3 2 6 3t6 3q8 4 26 5l-2 -1q-20 -10 -24.5 -12.5t-9.5 -1.5zM554 60q6 0 9 1q3 2 3 9v3q0 1 -2 3h-2l-16 -13q0 -1 0.5 -1.5t0.5 -1.5h7z" />
    <glyph glyph-name="at" unicode="@" horiz-adv-x="975" 
d="M514 688q96 0 176.5 -28t139 -78.5t91 -120t32.5 -152.5q0 -65 -20.5 -117t-59.5 -88.5t-94 -56t-124 -19.5h-102v38q-31 -49 -101 -49q-41 0 -74.5 15.5t-57.5 43t-37.5 66.5t-13.5 86t13.5 85.5t37.5 66t57.5 42.5t74.5 15q69 0 101 -48v39h152v-243q44 5 69 38t25 90
q0 50 -20.5 91.5t-57.5 71t-89.5 46t-115.5 16.5q-74 0 -134 -22.5t-102.5 -63t-66 -98t-23.5 -127.5q0 -69 22.5 -125t64 -95t100 -60.5t130.5 -21.5h116v-148h-112q-114 0 -204.5 32.5t-153.5 91t-97 140t-34 178.5q0 103 37 189t103 148.5t156 97t196 34.5zM489 167
q26 0 40.5 16t14.5 44t-14.5 44t-40.5 16t-40 -16t-14 -44t14.5 -44t39.5 -16z" />
    <glyph glyph-name="ampersand" unicode="&#x26;" horiz-adv-x="697" 
d="M565 145l131 -145h-227l-25 28q-38 -20 -80.5 -31t-92.5 -11q-57 0 -103 14t-78.5 39.5t-50.5 61.5t-18 81q0 53 28 98t91 83q-29 34 -43.5 68t-14.5 74t15.5 73.5t44 57.5t68 37.5t87.5 13.5q46 0 85.5 -13t68 -36.5t44.5 -56t16 -70.5q0 -24 -6 -46t-19 -42.5
t-34 -40.5t-52 -42l-6 -5l43 -48l43 77h216l-122 -205zM294 540q-15 0 -25 -8.5t-10 -25.5q0 -21 25 -49l8 -9h1q17 14 25 29t8 28q0 35 -32 35zM220 196q0 -25 16.5 -40.5t44.5 -15.5t56 17l-85 94q-18 -14 -25 -27.5t-7 -27.5z" />
    <glyph glyph-name="paragraph" unicode="&#xb6;" horiz-adv-x="675" 
d="M281 203q-58 0 -106.5 17.5t-83.5 48.5t-54.5 74.5t-19.5 95.5t19 95t54 74t83.5 48t107.5 17h55v-470h-55zM259 36h62q42 0 59.5 11.5t17.5 37.5v588h221v-613q0 -110 -63 -166.5t-185 -56.5h-112v199z" />
    <glyph glyph-name="section" unicode="&#xa7;" horiz-adv-x="618" 
d="M608 245q0 -53 -25 -89.5t-78 -61.5q13 -29 13 -66q0 -81 -58.5 -126t-163.5 -45h-158v157h157q22 0 22 17q0 13 -23 23l-134 61q-42 19 -70.5 37t-46 38t-25.5 43t-8 52q0 53 25 89.5t78 61.5q-13 29 -13 66q0 81 58.5 126t163.5 45h158v-157h-157q-22 0 -22 -17
q0 -13 23 -23l134 -61q42 -19 70.5 -37t46 -38t25.5 -43.5t8 -51.5zM390 196q6 -2 11.5 -5t11.5 -6q10 18 10 34q0 30 -42 47l-153 68q-6 2 -11.5 5t-11.5 6q-10 -18 -10 -34q0 -30 42 -47z" />
    <glyph glyph-name="copyright" unicode="&#xa9;" horiz-adv-x="770" 
d="M391 -14q-77 0 -144 27.5t-117 74.5t-79 111t-29 136t29.5 136t80 112t118 76t143.5 28t143 -28t117.5 -76t80 -111.5t29.5 -135.5t-29.5 -136t-80 -111.5t-118 -75t-144.5 -27.5zM389 107q52 0 96 17t76.5 47.5t50.5 72t18 90.5q0 50 -18.5 92.5t-50.5 73.5t-76 48.5
t-96 17.5q-50 0 -93 -17.5t-74.5 -48.5t-49 -73.5t-17.5 -92.5t17.5 -91.5t48.5 -71.5t74 -47t94 -17zM395 163q-39 0 -72.5 13t-58 36.5t-38.5 55t-14 68.5t14 68.5t38.5 54.5t58 36.5t72.5 13.5q36 0 67.5 -11.5t54.5 -32.5t37.5 -50t17.5 -64h-135q-8 33 -39 33
q-20 0 -32 -12.5t-12 -35.5q0 -22 12 -34.5t32 -12.5q31 0 39 33h135q-3 -35 -17.5 -64.5t-38 -50.5t-54.5 -32.5t-67 -11.5z" />
    <glyph glyph-name="registered" unicode="&#xae;" horiz-adv-x="487" 
d="M244 687q48 0 89.5 -17t72 -47.5t47.5 -72t17 -89.5t-17 -89.5t-47.5 -72t-72 -47.5t-89.5 -17t-89.5 17.5t-72 48t-48 71.5t-17.5 89t17.5 89t48 71.5t72 48t89.5 17.5zM245 305q67 0 108 43t41 113t-41 113t-108 43q-33 0 -61 -11.5t-48.5 -32t-31.5 -49.5t-11 -63
q0 -35 11 -63.5t31.5 -49t48.5 -32t61 -11.5zM349 490q0 -44 -37 -62l39 -75h-82l-27 62h-12v-62h-80v215h104q42 0 68.5 -21.5t26.5 -56.5zM230 466h18q8 0 13 5.5t5 13.5q0 9 -5 14.5t-13 5.5h-18v-39z" />
    <glyph glyph-name="trademark" unicode="&#x2122;" horiz-adv-x="660" 
d="M14 673h223v-99h-57v-165h-109v165h-57v99zM620 673v-264h-104v134l-45 -134h-64l-45 134v-134h-104v264h145l36 -115l36 115h145z" />
    <glyph glyph-name="degree" unicode="&#xb0;" horiz-adv-x="436" 
d="M218 292q-44 0 -81 15t-64 41.5t-42.5 62.5t-15.5 79q0 42 15.5 78.5t42.5 62.5t64 41t81 15t81.5 -15t64.5 -41t42 -62t15 -79t-15.5 -79t-42.5 -62.5t-64 -41.5t-81 -15zM218 442q20 0 32.5 12.5t12.5 34.5q0 47 -45 47q-20 0 -32.5 -12.5t-12.5 -34.5
q0 -20 12.5 -33.5t32.5 -13.5z" />
    <glyph glyph-name="bar" unicode="|" horiz-adv-x="350" 
d="M85 780h180v-901h-180v901z" />
    <glyph glyph-name="brokenbar" unicode="&#xa6;" horiz-adv-x="350" 
d="M85 780h180v-320h-180v320zM85 199h180v-320h-180v320z" />
    <glyph glyph-name="uni2113" unicode="&#x2113;" horiz-adv-x="528" 
d="M315 189q17 -7 40 -7h102v-182h-135q-137 0 -199 79q-23 -12 -48.5 -25t-53.5 -27v190l54 27v195q0 121 59 184.5t171 63.5q99 0 153 -54t54 -153q0 -44 -8.5 -80.5t-31 -71t-60.5 -68t-97 -71.5zM270 355q37 28 49 52t12 54q0 41 -29 41q-32 0 -32 -51v-96z" />
    <glyph glyph-name="dagger" unicode="&#x2020;" horiz-adv-x="537" 
d="M163 347h-136v190h136v136h211v-136h136v-190h-136v-230h-211v230z" />
    <glyph glyph-name="daggerdbl" unicode="&#x2021;" horiz-adv-x="537" 
d="M163 113h-136v175h141v102h-141v175h136v108h211v-108h136v-175h-141v-102h141v-175h-136v-113h-211v113z" />
    <glyph glyph-name="estimated" unicode="&#x212e;" horiz-adv-x="858" 
d="M444 -14q-80 0 -150 27.5t-122 75t-82 111.5t-30 138q0 72 29 136t79.5 111t117.5 74.5t144 27.5q76 0 143 -27.5t117 -74.5t79 -111t29 -136v-14h-574q-13 0 -13 -12v-193q0 -7 1.5 -10t6.5 -7q49 -38 106.5 -58t120.5 -20q75 0 140 27.5t113 78.5h50
q-55 -69 -134 -106.5t-171 -37.5zM636 361q12 0 12 12v185q0 8 -1.5 11t-6.5 8q-89 72 -210 72q-56 0 -109.5 -17.5t-101.5 -52.5q-5 -4 -6.5 -7.5t-1.5 -12.5v-186q0 -12 13 -12h412z" />
    <glyph glyph-name="uni2116" unicode="&#x2116;" horiz-adv-x="1113" 
d="M891 292q-44 0 -81 15t-64 41.5t-42.5 62.5t-15.5 79q0 42 15.5 78.5t42.5 62.5t64 41t81 15t81.5 -15t64.5 -41t42 -62t15 -79t-15.5 -79t-42.5 -62.5t-64 -41.5t-81 -15zM437 673h214v-673h-231l-149 308v-308h-214v673h231l149 -309v309zM891 536q-20 0 -32.5 -12.5
t-12.5 -34.5q0 -20 12.5 -33.5t32.5 -13.5t32.5 12.5t12.5 34.5q0 47 -45 47zM733 259h319v-136h-319v136z" />
    <glyph glyph-name="asciicircum" unicode="^" horiz-adv-x="557" 
d="M337 265l-58 143l-58 -143h-205l173 408h179l173 -408h-204z" />
    <glyph glyph-name="minute" unicode="&#x2032;" horiz-adv-x="306" 
d="M64 673h242l-123 -350h-173z" />
    <glyph glyph-name="second" unicode="&#x2033;" horiz-adv-x="579" 
d="M64 673h232l-107 -350h-179zM364 673h215l-123 -350h-199z" />
    <glyph glyph-name="uni0308" unicode="&#x308;" 
d="M-128 540q-23 0 -43.5 8.5t-35.5 23.5t-24 34.5t-9 41.5q0 23 8.5 43t23.5 34.5t35.5 23t44.5 8.5q50 0 81.5 -30.5t31.5 -78.5q0 -23 -9 -42.5t-24 -34t-35.5 -23t-44.5 -8.5zM125 540q-23 0 -43.5 8.5t-35.5 23.5t-24 34.5t-9 41.5q0 23 8.5 43t23.5 34.5t35.5 23
t44.5 8.5q50 0 81.5 -30.5t31.5 -78.5q0 -23 -9 -42.5t-24 -34t-35.5 -23t-44.5 -8.5z" />
    <glyph glyph-name="uni0307" unicode="&#x307;" 
d="M-1 540q-26 0 -48 9t-38.5 25t-25.5 37.5t-9 46.5t9 46t25.5 37t38.5 25t48 9t48 -9t38.5 -25t25.5 -37t9 -46t-9 -46.5t-25.5 -37.5t-38.5 -25t-48 -9z" />
    <glyph glyph-name="gravecomb" unicode="&#x300;" 
d="M-213 752h240l63 -192h-182z" />
    <glyph glyph-name="acutecomb" unicode="&#x301;" 
d="M-31 752h240l-121 -192h-182z" />
    <glyph glyph-name="uni030B" unicode="&#x30b;" 
d="M-120 752h182l-78 -192h-168zM113 752h194l-120 -192h-151z" />
    <glyph glyph-name="uni0302" unicode="&#x302;" 
d="M54 560l-55 65l-55 -65h-175l142 192h176l142 -192h-175z" />
    <glyph glyph-name="uni030C" unicode="&#x30c;" 
d="M230 752l-142 -192h-176l-142 192h175l55 -65l55 65h175z" />
    <glyph glyph-name="uni0306" unicode="&#x306;" 
d="M-2 556q-100 0 -151.5 50t-51.5 146h149q0 -29 14.5 -45.5t40.5 -16.5t40 16.5t14 45.5h149q0 -96 -52 -146t-152 -50z" />
    <glyph glyph-name="uni030A" unicode="&#x30a;" 
d="M-2 531q-67 0 -108.5 40t-41.5 104t41.5 103.5t108.5 39.5q68 0 109.5 -39.5t41.5 -103.5q0 -32 -11 -58.5t-31 -45.5t-48 -29.5t-61 -10.5zM0 639q15 0 25 10.5t10 25.5t-10 25.5t-25 10.5q-16 0 -26 -10t-10 -26t10 -26t26 -10z" />
    <glyph glyph-name="tildecomb" unicode="&#x303;" 
d="M71 560q-20 0 -39.5 5t-42.5 16q-26 11 -40.5 15t-26.5 4q-20 0 -42.5 -7.5t-63.5 -28.5v153q38 22 62.5 30.5t48.5 8.5q17 0 37 -5t47 -16q23 -11 38 -15t28 -4q9 0 19 1.5t22 5.5t28 10.5t38 17.5v-152q-20 -11 -35.5 -18.5t-28.5 -12t-25 -6.5t-24 -2z" />
    <glyph glyph-name="uni0304" unicode="&#x304;" 
d="M-172 722h343v-151h-343v151z" />
    <glyph glyph-name="uni0312" unicode="&#x312;" 
d="M-84 752h168v-192h-199z" />
    <glyph glyph-name="uni0326" unicode="&#x326;" 
d="M-107 -41h195l-27 -179h-168v179z" />
    <glyph glyph-name="uni0327" unicode="&#x327;" 
d="M-46 -195q-23 0 -42 1t-49 4v129h59q21 0 33 10.5t12 28.5q0 14 -3 26t-12 30l97 31q36 -24 56 -54.5t20 -62.5q0 -143 -171 -143z" />
    <glyph glyph-name="uni0328" unicode="&#x328;" 
d="M-96 -193q-72 0 -113 30t-41 81q0 49 46 90t122 61l81 -69l-21 -11q-14 -7 -20 -13t-6 -17q0 -22 24 -22h23v-122q-29 -4 -52 -6t-43 -2z" />
    <glyph glyph-name="uni0308.aalt" 
d="M-132 712q-23 0 -44 9t-37 24t-25.5 35t-9.5 42q0 23 9 43.5t24.5 35.5t37 23.5t45.5 8.5q51 0 84 -31.5t33 -79.5q0 -23 -9 -43t-25 -35t-37.5 -23.5t-45.5 -8.5zM129 712q-24 0 -45 9t-36.5 24t-25 35t-9.5 42q0 23 9 43.5t24.5 35.5t37 23.5t45.5 8.5q51 0 84 -31.5
t33 -79.5q0 -23 -9 -43t-25 -35t-37.5 -23.5t-45.5 -8.5z" />
    <glyph glyph-name="uni0307.aalt" 
d="M-2 698q-27 0 -50.5 9.5t-41 26.5t-27.5 39.5t-10 48.5t10 49t27.5 40t41 26.5t50.5 9.5t51 -9.5t42 -26.5t28 -40t10 -49t-10 -48.5t-28 -39.5t-42 -26.5t-51 -9.5z" />
    <glyph glyph-name="gravecomb.aalt" 
d="M-214 920h246l58 -196h-183z" />
    <glyph glyph-name="acutecomb.aalt" 
d="M-30 920h254l-130 -196h-183z" />
    <glyph glyph-name="uni030B.aalt" 
d="M-121 920h182l-72 -196h-168zM116 920h204l-124 -196h-151z" />
    <glyph glyph-name="uni0302.aalt" 
d="M65 724l-65 71l-65 -71h-172l150 196h176l149 -196h-173z" />
    <glyph glyph-name="uni030C.aalt" 
d="M236 920l-150 -196h-176l-149 196h173l65 -71l65 71h172z" />
    <glyph glyph-name="uni0306.aalt" 
d="M-2 717q-107 0 -168.5 53.5t-61.5 149.5h156q0 -29 20.5 -45.5t54.5 -16.5q33 0 53.5 16.5t20.5 45.5h156q0 -96 -61.5 -149.5t-169.5 -53.5z" />
    <glyph glyph-name="uni030A.aalt" 
d="M-3 673q-33 0 -60.5 10.5t-47.5 29.5t-31 45.5t-11 58.5q0 31 11 57.5t31 45t47.5 29t60.5 10.5t61 -10.5t48 -29t31 -45t11 -57.5q0 -32 -11 -58.5t-31 -45.5t-48 -29.5t-61 -10.5zM-1 780q16 0 25.5 10t9.5 27q0 35 -35 35q-17 0 -26.5 -9.5t-9.5 -25.5q0 -17 9.5 -27
t26.5 -10z" />
    <glyph glyph-name="tildecomb.aalt" 
d="M90 709q-24 0 -48 5t-56 18q-29 11 -45.5 15t-33.5 4q-31 0 -57 -7.5t-59 -27.5v153q35 23 60.5 32.5t56.5 9.5q24 0 48 -5t56 -18q29 -11 45.5 -15t33.5 -4q31 0 57 7.5t59 27.5v-153q-35 -23 -60.5 -32.5t-56.5 -9.5z" />
    <glyph glyph-name="uni0304.aalt" 
d="M-183 898h363v-161h-363v161z" />
    <glyph glyph-name="glyph404" 
d="M-156 722h310v-151h-310v151z" />
    <glyph glyph-name="glyph405" 
d="M-138 -193q-72 0 -113 30t-41 81q0 22 7.5 40.5t28.5 39t59 45t99 60.5l97 -34l-67 -72q-14 -17 -18 -23.5t-4 -14.5q0 -22 24 -22h23v-122q-32 -5 -53.5 -6.5t-41.5 -1.5z" />
    <glyph glyph-name="glyph406" 
d="M-83 673h218l-63 -193h-155v193z" />
    <glyph glyph-name="acute" unicode="&#xb4;" horiz-adv-x="363" 
d="M93 752h240l-121 -192h-182z" />
    <glyph glyph-name="breve" unicode="&#x2d8;" horiz-adv-x="467" 
d="M233 556q-100 0 -151.5 50t-51.5 146h149q0 -29 14.5 -45.5t40.5 -16.5t40 16.5t14 45.5h149q0 -96 -52 -146t-152 -50z" />
    <glyph glyph-name="caron" unicode="&#x2c7;" horiz-adv-x="520" 
d="M490 752l-142 -192h-176l-142 192h175l55 -65l55 65h175z" />
    <glyph glyph-name="cedilla" unicode="&#xb8;" horiz-adv-x="322" 
d="M121 -195q-23 0 -42 1t-49 4v129h59q21 0 33 10.5t12 28.5q0 14 -3 26t-12 30l97 31q36 -24 56 -54.5t20 -62.5q0 -143 -171 -143z" />
    <glyph glyph-name="circumflex" unicode="&#x2c6;" horiz-adv-x="520" 
d="M315 560l-55 65l-55 -65h-175l142 192h176l142 -192h-175z" />
    <glyph glyph-name="dieresis" unicode="&#xa8;" horiz-adv-x="538" 
d="M142 540q-23 0 -43.5 8.5t-35.5 23.5t-24 34.5t-9 41.5q0 23 8.5 43t23.5 34.5t35.5 23t44.5 8.5q50 0 81.5 -30.5t31.5 -78.5q0 -23 -9 -42.5t-24 -34t-35.5 -23t-44.5 -8.5zM395 540q-23 0 -43.5 8.5t-35.5 23.5t-24 34.5t-9 41.5q0 23 8.5 43t23.5 34.5t35.5 23
t44.5 8.5q50 0 81.5 -30.5t31.5 -78.5q0 -23 -9 -42.5t-24 -34t-35.5 -23t-44.5 -8.5z" />
    <glyph glyph-name="dotaccent" unicode="&#x2d9;" horiz-adv-x="302" 
d="M151 540q-26 0 -48 9t-38.5 25t-25.5 37.5t-9 46.5t9 46t25.5 37t38.5 25t48 9t48 -9t38.5 -25t25.5 -37t9 -46t-9 -46.5t-25.5 -37.5t-38.5 -25t-48 -9z" />
    <glyph glyph-name="grave" unicode="`" horiz-adv-x="363" 
d="M30 752h240l63 -192h-182z" />
    <glyph glyph-name="hungarumlaut" unicode="&#x2dd;" horiz-adv-x="551" 
d="M94 752h182l-78 -192h-168zM327 752h194l-120 -192h-151z" />
    <glyph glyph-name="macron" unicode="&#xaf;" horiz-adv-x="403" 
d="M30 722h343v-151h-343v151z" />
    <glyph glyph-name="ogonek" unicode="&#x2db;" horiz-adv-x="309" 
d="M184 -193q-72 0 -113 30t-41 81q0 49 46 90t122 61l81 -69l-21 -11q-14 -7 -20 -13t-6 -17q0 -22 24 -22h23v-122q-29 -4 -52 -6t-43 -2z" />
    <glyph glyph-name="ring" unicode="&#x2da;" horiz-adv-x="361" 
d="M180 531q-67 0 -108.5 40t-41.5 104t41.5 103.5t108.5 39.5q68 0 109.5 -39.5t41.5 -103.5q0 -32 -11 -58.5t-31 -45.5t-48 -29.5t-61 -10.5zM182 639q15 0 25 10.5t10 25.5t-10 25.5t-25 10.5q-16 0 -26 -10t-10 -26t10 -26t26 -10z" />
    <glyph glyph-name="tilde" unicode="&#x2dc;" horiz-adv-x="428" 
d="M285 560q-20 0 -39.5 5t-42.5 16q-26 11 -40.5 15t-26.5 4q-20 0 -42.5 -7.5t-63.5 -28.5v153q38 22 62.5 30.5t48.5 8.5q17 0 37 -5t47 -16q23 -11 38 -15t28 -4q9 0 19 1.5t22 5.5t28 10.5t38 17.5v-152q-20 -11 -35.5 -18.5t-28.5 -12t-25 -6.5t-24 -2z" />
    </font>
</defs>
</svg>
