<svg fill="#ffffff" width="20" height="22" viewBox="0 0 20 22">
  <path fill-rule="evenodd" d="M1.292 18.333h17.416a.458.458 0 000-.916c-1.076 0-1.557-.435-1.559-1.447l-.384-5.005c-.39-5.442-3.13-7.73-5.848-8.14v-1.45a.458.458 0 00-.458-.458h-.917a.458.458 0 00-.458.458v1.45c-3.164.476-5.218 3.438-5.553 8.14l-.387 5.04c0 1.274-1.295 1.412-1.852 1.412a.458.458 0 100 .916zm2.767-2.293l.386-5.007c.321-4.51 2.216-7.16 5.212-7.348h.73c2.468.187 5.094 2.187 5.463 7.348l.001.002.383 4.97a2.46 2.46 0 00.385 1.412H3.592c.313-.39.478-.877.467-1.377zm8.634 3.554a.458.458 0 01-.127.443 3.668 3.668 0 01-5.158-.027.458.458 0 11.648-.648 2.818 2.818 0 003.869.02.458.458 0 01.768.212z" clip-rule="evenodd"/>
</svg>
