<svg width="28" height="28" viewBox="0 0 28 28" fill="none" xmlns="http://www.w3.org/2000/svg">
<path fill-rule="evenodd" clip-rule="evenodd" d="M14.0005 0C6.2685 0 0.000488281 6.26801 0.000488281 14C0.000488281 21.732 6.2685 28 14.0005 28C21.7325 28 28.0005 21.732 28.0005 14C27.9911 6.2719 21.7286 0.00936707 14.0005 0ZM20.102 7.7207L9.6665 18.1582L6.65869 15.1504C6.26821 14.7599 5.63511 14.7599 5.24463 15.1504C4.85415 15.5409 4.85415 16.174 5.24463 16.5644L8.95947 20.2793C9.14695 20.4669 9.40129 20.5723 9.6665 20.5723C9.93171 20.5723 10.186 20.4669 10.3735 20.2793L21.5161 9.13477C21.9066 8.74429 21.9066 8.11119 21.5161 7.72071C21.1256 7.33022 20.4925 7.33022 20.102 7.7207ZM2.00049 14C2.00049 20.6274 7.37307 26 14.0005 26C20.6249 25.9928 25.9933 20.6244 26.0005 14C26.0005 7.37258 20.6279 2 14.0005 2C7.37307 2 2.00049 7.37258 2.00049 14Z" fill="#1443A8"/>
</svg>
