<svg width="5" height="10" viewBox="0 0 5 10" fill="none" xmlns="http://www.w3.org/2000/svg">
<path d="M0.624178 9.23648C0.427026 9.23652 0.249271 9.11777 0.173827 8.93563C0.0983834 8.75348 0.140113 8.54383 0.279553 8.40445L3.6846 4.99906L0.279571 1.59368C0.156455 1.47057 0.108373 1.29112 0.153437 1.12294C0.1985 0.954763 0.329863 0.823399 0.498043 0.778336C0.666222 0.733272 0.845668 0.781354 0.968784 0.90447L4.71878 4.65447C4.81023 4.74584 4.8616 4.86981 4.8616 4.99908C4.8616 5.12834 4.81023 5.25231 4.71878 5.34368L0.968784 9.09368C0.877514 9.18527 0.753479 9.23667 0.624178 9.23648Z" fill="#363334"/>
</svg>
