<svg width="25" height="25" viewBox="0 0 25 25" fill="none" xmlns="http://www.w3.org/2000/svg">
<circle cx="12.5" cy="12.5" r="12.5" fill="#FFDCE6"/>
<path fill-rule="evenodd" clip-rule="evenodd" d="M5.17184 1.82141H21.2889C21.5585 1.82141 21.7773 2.03547 21.7773 2.30029V20.4977C21.7773 20.7625 21.5585 20.9766 21.2889 20.9766C21.0193 20.9766 20.8005 20.7625 20.8005 20.4977V2.77917H5.17184C4.63314 2.77917 4.19505 3.20872 4.19505 3.73693H19.3353C19.6049 3.73693 19.8237 3.95099 19.8237 4.21581V22.4132C19.8237 22.678 19.6049 22.8921 19.3353 22.8921H5.17184C4.09444 22.8921 3.21826 22.033 3.21826 20.9766V3.73693C3.21826 2.68052 4.09444 1.82141 5.17184 1.82141ZM18.8471 21.9345V4.69482H4.19521V20.9767C4.19521 21.5049 4.6333 21.9345 5.172 21.9345H18.8471ZM11.171 17.9579C11.2629 18.0508 11.3889 18.103 11.5207 18.103C11.6526 18.103 11.7786 18.0508 11.8704 17.9579L15.9837 13.8175C17.1934 12.6098 17.1934 10.645 15.9827 9.43722C15.3937 8.84916 14.6094 8.52544 13.7752 8.52544C12.941 8.52544 12.1566 8.84916 11.5847 9.41998L11.5207 9.47793L11.4748 9.43674C10.8853 8.84868 10.1015 8.52544 9.2668 8.52544C8.43213 8.52544 7.64826 8.84916 7.05876 9.43674C5.84803 10.645 5.84803 12.6108 7.0573 13.8166L11.171 17.9579ZM9.26703 9.48337C8.69658 9.48337 8.15984 9.70557 7.75593 10.1088C6.91589 10.9468 6.91589 12.3092 7.75545 13.1468L11.521 16.9376L15.2845 13.1492C15.285 13.1482 15.2855 13.1478 15.286 13.1473C16.126 12.3097 16.126 10.9468 15.286 10.1088C14.8821 9.70557 14.3454 9.48337 13.7749 9.48337C13.2045 9.48337 12.6682 9.70557 12.2638 10.1088L11.8516 10.4814C11.6646 10.6499 11.3774 10.6499 11.1903 10.4814L10.7957 10.1256C10.3742 9.70557 9.83698 9.48337 9.26703 9.48337Z" fill="#D2003C"/>
</svg>
