<svg width="42" height="40" viewBox="0 0 42 40"  fill="#4B86EA" xmlns="http://www.w3.org/2000/svg">
<path fill-rule="evenodd" clip-rule="evenodd" d="M1.74984 4.49992L26.5924 4.49992C27.0187 2.41083 28.8694 0.833251 31.0832 0.833252C33.2969 0.833252 35.1477 2.41084 35.5739 4.49992L40.2498 4.49992C40.7558 4.49992 41.1665 4.90967 41.1665 5.41659C41.1665 5.9235 40.7558 6.33325 40.2498 6.33325L35.5739 6.33325C35.1477 8.42234 33.2969 9.99992 31.0832 9.99992C28.8694 9.99992 27.0187 8.42234 26.5924 6.33325L1.74984 6.33325C1.24384 6.33325 0.833172 5.9235 0.833172 5.41658C0.833172 4.90967 1.24384 4.49992 1.74984 4.49992ZM31.0832 8.16658C32.5993 8.16658 33.8332 6.93275 33.8332 5.41658C33.8332 3.90042 32.5993 2.66658 31.0832 2.66658C29.567 2.66658 28.3332 3.90042 28.3332 5.41658C28.3332 6.93275 29.567 8.16658 31.0832 8.16658ZM19.2591 33.8333L1.74984 33.8333C1.24384 33.8333 0.83317 34.243 0.83317 34.7499C0.83317 35.2568 1.24384 35.6666 1.74984 35.6666L19.2591 35.6666C19.6853 37.7557 21.5361 39.3333 23.7498 39.3333C25.9636 39.3333 27.8143 37.7557 28.2406 35.6666L40.2498 35.6666C40.7558 35.6666 41.1665 35.2568 41.1665 34.7499C41.1665 34.243 40.7558 33.8333 40.2498 33.8333L28.2406 33.8333C27.8143 31.7442 25.9636 30.1666 23.7498 30.1666C21.5361 30.1666 19.6853 31.7442 19.2591 33.8333ZM23.7498 37.4999C25.266 37.4999 26.4998 36.2661 26.4998 34.7499C26.4998 33.2338 25.266 31.9999 23.7498 31.9999C22.2337 31.9999 20.9998 33.2338 20.9998 34.7499C20.9998 36.2661 22.2337 37.4999 23.7498 37.4999ZM6.42576 19.1666L1.74984 19.1666C1.24384 19.1666 0.833171 19.5763 0.833171 20.0833C0.833171 20.5902 1.24384 20.9999 1.74984 20.9999L6.42576 20.9999C6.85201 23.089 8.70275 24.6666 10.9165 24.6666C13.1303 24.6666 14.981 23.089 15.4073 20.9999L40.2498 20.9999C40.7558 20.9999 41.1665 20.5902 41.1665 20.0833C41.1665 19.5763 40.7558 19.1666 40.2498 19.1666L15.4073 19.1666C14.981 17.0775 13.1303 15.4999 10.9165 15.4999C8.70275 15.4999 6.85201 17.0775 6.42576 19.1666ZM10.9165 22.8333C12.4327 22.8333 13.6665 21.5994 13.6665 20.0833C13.6665 18.5671 12.4327 17.3332 10.9165 17.3332C9.40033 17.3332 8.1665 18.5671 8.1665 20.0833C8.1665 21.5994 9.40033 22.8333 10.9165 22.8333Z"/>
</svg>
