<svg width="25" height="25" viewBox="0 0 25 25" fill="none" xmlns="http://www.w3.org/2000/svg">
<circle cx="12.5" cy="12.5" r="12.5" fill="#FFDCE6"/>
<path fill-rule="evenodd" clip-rule="evenodd" d="M3.98934 1.98682H21.0108C22.1152 1.98682 23.0133 2.88495 23.0133 3.98934V21.0108C23.0133 22.1152 22.1152 23.0133 21.0108 23.0133H3.98934C2.88495 23.0133 1.98682 22.1152 1.98682 21.0108V3.98934C1.98682 2.88495 2.88495 1.98682 3.98934 1.98682ZM21.962 11.9743V4.03098C21.962 3.48338 21.5167 3.03806 20.9691 3.03806H13.0257V11.9743H21.962ZM4.03108 3.03806H11.9744V11.9743H3.03816V4.03098C3.03816 3.48338 3.48349 3.03806 4.03108 3.03806ZM3.03816 13.0254V20.9688C3.03816 21.5164 3.48349 21.9617 4.03108 21.9617H11.9744V13.0254H3.03816ZM20.9691 21.9617H13.0257V13.0254H21.962V20.9688C21.962 21.5164 21.5167 21.9617 20.9691 21.9617ZM7.02438 7.98799H5.09695C4.83049 7.98799 4.6151 7.7726 4.6151 7.50614C4.6151 7.23967 4.83049 7.02428 5.09695 7.02428H7.02438V5.09685C7.02438 4.83038 7.23977 4.61499 7.50624 4.61499C7.77271 4.61499 7.9881 4.83038 7.9881 5.09685V7.02428H9.91552C10.182 7.02428 10.3974 7.23967 10.3974 7.50614C10.3974 7.7726 10.182 7.98799 9.91552 7.98799H7.9881V9.91542C7.9881 10.1819 7.77271 10.3973 7.50624 10.3973C7.23977 10.3973 7.02438 10.1819 7.02438 9.91542V7.98799ZM7.98666 17.7565L9.71758 16.0256C9.9231 15.82 9.9231 15.4878 9.71758 15.2823C9.51205 15.0768 9.17985 15.0768 8.97433 15.2823L7.24341 17.0133L5.51249 15.2823C5.30696 15.0768 4.97476 15.0768 4.76924 15.2823C4.56372 15.4878 4.56372 15.82 4.76924 16.0256L6.50016 17.7565L4.76924 19.4875C4.56372 19.693 4.56372 20.0252 4.76924 20.2308C4.87174 20.3333 5.0063 20.3848 5.14086 20.3848C5.27543 20.3848 5.40999 20.3333 5.51249 20.2308L7.24341 18.4998L8.97433 20.2308C9.07683 20.3333 9.21139 20.3848 9.34595 20.3848C9.48051 20.3848 9.61508 20.3333 9.71758 20.2308C9.9231 20.0252 9.9231 19.693 9.71758 19.4875L7.98666 17.7565ZM19.9031 7.76883H15.0845C14.8181 7.76883 14.6027 7.53386 14.6027 7.24317C14.6027 6.95248 14.8181 6.7175 15.0845 6.7175H19.9031C20.1696 6.7175 20.385 6.95248 20.385 7.24317C20.385 7.53386 20.1696 7.76883 19.9031 7.76883ZM19.9031 16.1795H15.0845C14.8181 16.1795 14.6027 16.4145 14.6027 16.7052C14.6027 16.9959 14.8181 17.2308 15.0845 17.2308H19.9031C20.1696 17.2308 20.385 16.9959 20.385 16.7052C20.385 16.4145 20.1696 16.1795 19.9031 16.1795ZM15.0845 17.7566H19.9031C20.1696 17.7566 20.385 17.9915 20.385 18.2822C20.385 18.5729 20.1696 18.8079 19.9031 18.8079H15.0845C14.8181 18.8079 14.6027 18.5729 14.6027 18.2822C14.6027 17.9915 14.8181 17.7566 15.0845 17.7566Z" fill="#D2003C"/>
</svg>
