<svg width="38" height="38" viewBox="0 0 38 38" fill="#D2003C" xmlns="http://www.w3.org/2000/svg">
<path fill-rule="evenodd" clip-rule="evenodd" d="M1.49984 3.58342C1.96067 3.58342 2.33317 3.21008 2.33317 2.75008V2.33341H2.74984C3.21067 2.33341 3.58317 1.96008 3.58317 1.50008C3.58317 1.04008 3.21067 0.666748 2.74984 0.666748H1.49984C1.039 0.666748 0.666504 1.04008 0.666504 1.50008V2.75008C0.666504 3.21008 1.039 3.58342 1.49984 3.58342ZM2.33317 8.68757C2.33317 9.14757 1.96067 9.52091 1.49984 9.52091C1.039 9.52091 0.666504 9.14757 0.666504 8.68757V6.70841C0.666504 6.24841 1.039 5.87507 1.49984 5.87507C1.96067 5.87507 2.33317 6.24841 2.33317 6.70841V8.68757ZM2.33317 14.6251C2.33317 15.0851 1.96067 15.4584 1.49984 15.4584C1.039 15.4584 0.666504 15.0851 0.666504 14.6251V12.6459C0.666504 12.1859 1.039 11.8126 1.49984 11.8126C1.96067 11.8126 2.33317 12.1859 2.33317 12.6459V14.6251ZM13.524 1.50008C13.524 1.04008 13.8965 0.666748 14.3573 0.666748H16.6782C17.139 0.666748 17.5115 1.04008 17.5115 1.50008C17.5115 1.96008 17.139 2.33341 16.6782 2.33341H14.3573C13.8965 2.33341 13.524 1.96008 13.524 1.50008ZM7.39234 0.666748C6.93151 0.666748 6.55901 1.04008 6.55901 1.50008C6.55901 1.96008 6.93151 2.33341 7.39234 2.33341H9.71401C10.1748 2.33341 10.5473 1.96008 10.5473 1.50008C10.5473 1.04008 10.1748 0.666748 9.71401 0.666748H7.39234ZM24.4757 1.50008C24.4757 1.96008 24.1032 2.33341 23.6423 2.33341H21.3207C20.8598 2.33341 20.4873 1.96008 20.4873 1.50008C20.4873 1.04008 20.8598 0.666748 21.3207 0.666748H23.6423C24.1032 0.666748 24.4757 1.04008 24.4757 1.50008ZM30.6073 2.33341C31.0682 2.33341 31.4407 1.96008 31.4407 1.50008C31.4407 1.04008 31.0682 0.666748 30.6073 0.666748H28.2857C27.8248 0.666748 27.4523 1.04008 27.4523 1.50008C27.4523 1.96008 27.8248 2.33341 28.2857 2.33341H30.6073ZM35.2498 0.666748H36.4998C36.9607 0.666748 37.3332 1.04008 37.3332 1.50008V2.75008C37.3332 3.21008 36.9607 3.58342 36.4998 3.58342C36.039 3.58342 35.6665 3.21008 35.6665 2.75008V2.33341H35.2498C34.789 2.33341 34.4165 1.96008 34.4165 1.50008C34.4165 1.04008 34.789 0.666748 35.2498 0.666748ZM36.4998 13.5234C36.039 13.5234 35.6665 13.8968 35.6665 14.3568V16.6784C35.6665 17.1384 36.039 17.5118 36.4998 17.5118C36.9607 17.5118 37.3332 17.1384 37.3332 16.6784V14.3568C37.3332 13.8968 36.9607 13.5234 36.4998 13.5234ZM35.6665 21.3217C35.6665 20.8617 36.039 20.4884 36.4998 20.4884C36.9607 20.4884 37.3332 20.8609 37.3332 21.3217V23.6434C37.3332 24.1034 36.9607 24.4767 36.4998 24.4767C36.039 24.4767 35.6665 24.1034 35.6665 23.6434V21.3217ZM36.4998 6.55925C36.039 6.55925 35.6665 6.93258 35.6665 7.39258V9.71425C35.6665 10.1742 36.039 10.5476 36.4998 10.5476C36.9607 10.5476 37.3332 10.1742 37.3332 9.71425V7.39258C37.3332 6.93258 36.9607 6.55925 36.4998 6.55925ZM35.6665 28.2859C35.6665 27.8259 36.039 27.4526 36.4998 27.4526C36.9607 27.4526 37.3332 27.8251 37.3332 28.2859V30.6076C37.3332 31.0676 36.9607 31.4409 36.4998 31.4409C36.039 31.4409 35.6665 31.0676 35.6665 30.6076V28.2859ZM36.4998 34.4168C36.039 34.4168 35.6665 34.7901 35.6665 35.2501V35.6667H35.2498C34.789 35.6667 34.4165 36.0401 34.4165 36.5001C34.4165 36.9601 34.789 37.3334 35.2498 37.3334H36.4998C36.9607 37.3334 37.3332 36.9601 37.3332 36.5001V35.2501C37.3332 34.7901 36.9607 34.4168 36.4998 34.4168ZM29.3123 35.6668H31.2915C31.7523 35.6668 32.1248 36.0401 32.1248 36.5001C32.1248 36.9601 31.7523 37.3334 31.2915 37.3334H29.3123C28.8515 37.3334 28.479 36.9601 28.479 36.5001C28.479 36.0401 28.8515 35.6668 29.3123 35.6668ZM23.3748 35.6668C22.914 35.6668 22.5415 36.0401 22.5415 36.5001C22.5415 36.9601 22.914 37.3334 23.3748 37.3334H25.354C25.8148 37.3334 26.1873 36.9601 26.1873 36.5001C26.1873 36.0401 25.8148 35.6668 25.354 35.6668H23.3748ZM18.1665 37.3334H1.49984C1.039 37.3334 0.666504 36.9601 0.666504 36.5001V19.8334V18.5834C0.666504 18.1234 1.039 17.7501 1.49984 17.7501C1.96067 17.7501 2.33317 18.1234 2.33317 18.5834V19.0001H18.1665C18.6273 19.0001 18.9998 19.3734 18.9998 19.8334V35.6667H19.4165C19.8773 35.6667 20.2498 36.0401 20.2498 36.5001C20.2498 36.9601 19.8773 37.3334 19.4165 37.3334H18.1665ZM17.3332 35.6668H2.33317V20.6667H17.3332V35.6668ZM22.089 17.0892C21.9265 17.2517 21.7132 17.3334 21.4998 17.3334C21.2865 17.3334 21.0732 17.2517 20.9107 17.0892C20.5848 16.7634 20.5848 16.2367 20.9107 15.9109L29.4882 7.33342H24.8332C24.3723 7.33342 23.9998 6.96008 23.9998 6.50008C23.9998 6.04008 24.3723 5.66675 24.8332 5.66675H31.4998C31.6082 5.66675 31.7165 5.68925 31.8182 5.73091C32.0223 5.81508 32.1848 5.97758 32.269 6.18175C32.3115 6.28341 32.3332 6.39175 32.3332 6.50008V13.1667C32.3332 13.6267 31.9607 14.0001 31.4998 14.0001C31.039 14.0001 30.6665 13.6267 30.6665 13.1667V8.51175L22.089 17.0892Z"/>
</svg>
