<svg width="42" height="40" viewBox="0 0 42 40"  fill="#D2003C" xmlns="http://www.w3.org/2000/svg">
<path fill-rule="evenodd" clip-rule="evenodd" d="M37.2347 0.0532227H3.94303C1.78299 0.0532227 0.0263672 1.80985 0.0263672 3.96989V27.4699C0.0263672 29.6299 1.78299 31.3866 3.94303 31.3866H37.2347C39.3947 31.3866 41.1514 29.6299 41.1514 27.4699V3.96989C41.1514 1.80985 39.3947 0.0532227 37.2347 0.0532227ZM3.94304 2.01156H37.2347C38.3147 2.01156 39.193 2.88988 39.193 3.9699V23.5532H1.98471V3.9699C1.98471 2.88988 2.86302 2.01156 3.94304 2.01156ZM3.94304 29.4282H37.2347C38.3147 29.4282 39.193 28.5499 39.193 27.4699V25.5116H1.98471V27.4699C1.98471 28.5499 2.86302 29.4282 3.94304 29.4282ZM16.1307 33.4477C15.6451 33.2078 15.0585 33.4027 14.8167 33.8854L13.8375 35.8437C13.77 35.9798 13.7347 36.1306 13.7347 36.2824C13.7347 37.9019 15.0527 39.2199 16.6722 39.2199H24.5055C26.1251 39.2199 27.443 37.9019 27.443 36.2824C27.443 36.1306 27.4078 35.9798 27.3402 35.8447L26.3611 33.8864C26.1192 33.4036 25.5317 33.2088 25.047 33.4487C24.5633 33.6905 24.3675 34.279 24.6093 34.7627L25.4661 36.4763C25.376 36.9237 24.9795 37.2625 24.5065 37.2625H16.6732C16.1993 37.2625 15.8027 36.9237 15.7136 36.4763L16.5704 34.7627C16.8113 34.278 16.6144 33.6905 16.1307 33.4477ZM17.6514 15.7199C17.6514 17.4236 19.4912 17.6782 20.5889 17.6782C21.6865 17.6782 23.5264 17.4236 23.5264 15.7199C23.5264 15.0785 23.1425 14.3951 20.3627 13.7351L20.3625 13.7351C18.8516 13.3884 15.693 12.6638 15.693 9.84488C15.693 8.21457 16.7544 6.35415 19.6097 6.00165V4.94905C19.6097 4.40757 20.0484 3.96988 20.5889 3.96988C21.1294 3.96988 21.568 4.40757 21.568 4.94905V6.00165C24.4233 6.35415 25.4847 8.21457 25.4847 9.84488C25.4847 10.3864 25.046 10.824 24.5055 10.824C23.965 10.824 23.5264 10.3864 23.5264 9.84488C23.5264 8.14113 21.6865 7.88655 20.5889 7.88655C19.4912 7.88655 17.6514 8.14113 17.6514 9.84488C17.6514 10.4539 17.8952 11.1599 20.8082 11.8277L20.8137 11.829C22.3383 12.1918 25.4847 12.9404 25.4847 15.7199C25.4847 17.3502 24.4233 19.2106 21.568 19.5631V20.6157C21.568 21.1572 21.1294 21.5949 20.5889 21.5949C20.0484 21.5949 19.6097 21.1572 19.6097 20.6157V19.5631C16.7544 19.2106 15.693 17.3502 15.693 15.7199C15.693 15.1784 16.1317 14.7407 16.6722 14.7407C17.2127 14.7407 17.6514 15.1784 17.6514 15.7199Z"/>
</svg>
