<svg width="20" height="20" viewBox="0 0 20 20" fill="none" xmlns="http://www.w3.org/2000/svg">
<path fill-rule="evenodd" clip-rule="evenodd" d="M18.5526 1.45653C18.0474 0.949994 17.3611 0.665725 16.6457 0.666659H3.37256C1.88317 0.666666 0.675789 1.87405 0.675781 3.36344V16.6365C0.675789 18.1259 1.88317 19.3333 3.37256 19.3333H16.6457C18.1351 19.3333 19.3424 18.1259 19.3424 16.6365V3.36344C19.3434 2.64802 19.0591 1.96173 18.5526 1.45653ZM2.41955 2.41036C2.67202 2.15707 3.01498 2.01481 3.3726 2.01502H16.6457C17.3901 2.0158 17.9933 2.61904 17.9941 3.36342V5.99996H2.02421V3.3634C2.02398 3.00578 2.16625 2.66281 2.41955 2.41036ZM16.6457 17.9849C17.39 17.9841 17.9932 17.3809 17.9941 16.6365V7.33333H2.02421V16.6365C2.02506 17.3809 2.62826 17.9841 3.3726 17.9849H16.6457ZM9.05676 8.69042H10.9615V10.5952H9.05676V8.69042ZM8.10438 8.69042H6.19967V10.5952H8.10438V8.69042ZM11.9138 8.69042H13.8185V10.5952H11.9138V8.69042ZM16.6759 8.69042H14.7711V10.5952H16.6759V8.69042ZM3.34245 11.7142H5.24723V13.619H3.34245V11.7142ZM10.9615 11.7142H9.05676V13.619H10.9615V11.7142ZM6.19967 11.7142H8.10438V13.619H6.19967V11.7142ZM13.8185 11.7142H11.9138V13.619H13.8185V11.7142ZM14.7711 11.7142H16.6759V13.619H14.7711V11.7142ZM5.24723 14.738H3.34245V16.6428H5.24723V14.738ZM9.05676 14.738H10.9615V16.6428H9.05676V14.738ZM8.10438 14.738H6.19967V16.6428H8.10438V14.738Z" fill="#D2003C"/>
</svg>
