<svg width="14" height="14" viewBox="0 0 14 14" fill="none" xmlns="http://www.w3.org/2000/svg">
<path fill-rule="evenodd" clip-rule="evenodd" d="M7 0C3.13401 0 0 3.13401 0 7C0 10.866 3.13401 14 7 14C10.866 14 14 10.866 14 7C13.9953 3.13595 10.8641 0.00468354 7 0ZM7 6.79297V2.5C7 2.22386 6.77614 2 6.5 2C6.22386 2 6 2.22386 6 2.5V7C6.00068 7.13277 6.05351 7.25995 6.1471 7.35412L8.94629 10.1533C9.14153 10.3486 9.45808 10.3486 9.65332 10.1533C9.84856 9.95808 9.84856 9.64153 9.65332 9.44629L7 6.79297ZM1 7C1 10.3137 3.68629 13 7 13C10.3122 12.9964 12.9964 10.3122 13 7C13 3.68629 10.3137 1 7 1C3.68629 1 1 3.68629 1 7Z" fill="#363334"/>
</svg>
