<svg width="28" height="28" viewBox="0 0 28 28" fill="none" xmlns="http://www.w3.org/2000/svg">
<path fill-rule="evenodd" clip-rule="evenodd" d="M13.999 0C6.26704 0 -0.000976562 6.26801 -0.000976562 14C-0.000976562 21.732 6.26704 28 13.999 28C21.731 28 27.999 21.732 27.999 14C27.9897 6.2719 21.7271 0.00936707 13.999 0ZM20.2764 7.7207C20.0889 7.53312 19.8346 7.42773 19.5694 7.42773C19.3041 7.42773 19.0498 7.53312 18.8623 7.7207L13.9981 12.5858L9.13381 7.7207C8.74333 7.33022 8.11023 7.33022 7.71975 7.72071C7.32927 8.11119 7.32927 8.74429 7.71975 9.13477L12.5841 14L7.71975 18.8652C7.46715 19.1178 7.3685 19.486 7.46096 19.8311C7.55341 20.1761 7.82293 20.4456 8.16799 20.5381C8.51304 20.6305 8.88121 20.5319 9.13381 20.2793L13.9981 15.4142L18.8623 20.2793C19.1148 20.5326 19.4833 20.6318 19.8288 20.5395C20.1743 20.4471 20.4442 20.1772 20.5366 19.8317C20.6289 19.4862 20.5297 19.1177 20.2764 18.8652L15.412 14L20.2764 9.13477C20.464 8.94728 20.5694 8.69294 20.5694 8.42773C20.5694 8.16252 20.464 7.90818 20.2764 7.7207ZM1.99902 14C1.99902 20.6274 7.37161 26 13.999 26C20.6234 25.9928 25.9918 20.6244 25.999 14C25.999 7.37258 20.6264 2 13.999 2C7.37161 2 1.99902 7.37258 1.99902 14Z" fill="#D2003C"/>
</svg>
