<svg width="38" height="38" viewBox="0 0 38 38" fill="none" xmlns="http://www.w3.org/2000/svg">
<path fill-rule="evenodd" clip-rule="evenodd" d="M31.1764 2.46958H34.2953C34.7847 2.46958 35.1815 2.0728 35.1815 1.58335C35.1815 1.09389 34.7847 0.697113 34.2953 0.697113H31.1764C30.687 0.697113 30.2902 1.09389 30.2902 1.58335C30.2902 2.0728 30.687 2.46958 31.1764 2.46958ZM36.4168 8.66245C36.1817 8.66283 35.956 8.56958 35.7898 8.4033C35.6235 8.23701 35.5302 8.01138 35.5306 7.77622V4.65741C35.5306 4.16795 35.9274 3.77117 36.4168 3.77117C36.9063 3.77117 37.3031 4.16795 37.3031 4.65741V7.77622C37.3034 8.01138 37.2102 8.23701 37.0439 8.4033C36.8776 8.56958 36.652 8.66283 36.4168 8.66245ZM11.9564 8.56263C12.1227 8.72892 12.3483 8.82216 12.5835 8.82179C12.8187 8.82216 13.0443 8.72892 13.2106 8.56263C13.3769 8.39635 13.4701 8.17072 13.4697 7.93556V4.81674C13.4697 4.32729 13.073 3.93051 12.5835 3.93051C12.094 3.93051 11.6973 4.32729 11.6973 4.81674V7.93556C11.6969 8.17072 11.7901 8.39635 11.9564 8.56263ZM28.9805 10.2871L10.3777 28.8891C10.1462 29.1206 9.80869 29.2111 9.49239 29.1263C9.17609 29.0415 8.92903 28.7945 8.84428 28.4782C8.75953 28.1619 8.84996 27.8244 9.08151 27.5928L27.6841 8.99098H18.8962C18.39 8.99098 17.9796 8.58057 17.9796 8.07431C17.9796 7.56805 18.39 7.15764 18.8962 7.15764H29.8971C29.9568 7.15768 30.0164 7.16367 30.0749 7.17553C30.1339 7.18747 30.1916 7.20509 30.2472 7.22814C30.4718 7.32119 30.6503 7.49966 30.7434 7.7243C30.7664 7.7799 30.784 7.83759 30.796 7.89658C30.8078 7.95508 30.8138 8.01462 30.8138 8.07431V19.0743C30.8138 19.5806 30.4034 19.991 29.8972 19.991C29.3909 19.991 28.9805 19.5806 28.9805 19.0743V10.2871ZM1.5835 37.3029H25.4168C25.652 37.3033 25.8776 37.21 26.0439 37.0438C26.2102 36.8775 26.3034 36.6518 26.3031 36.4167V19C26.3031 18.5106 25.9063 18.1138 25.4168 18.1138C24.9274 18.1138 24.5306 18.5106 24.5306 19V24.7794C24.3711 24.6253 24.154 24.5304 23.9147 24.5304H21.7502C21.2607 24.5304 20.8639 24.9272 20.8639 25.4167C20.8639 25.9061 21.2607 26.3029 21.7502 26.3029H23.9147C24.154 26.3029 24.3711 26.2081 24.5306 26.0539V35.5304H2.46973V13.4696H11.6973V16.25C11.6969 16.4852 11.7901 16.7108 11.9564 16.8771C12.1227 17.0434 12.3483 17.1366 12.5835 17.1362C12.8187 17.1366 13.0443 17.0434 13.2106 16.8771C13.3769 16.7108 13.4701 16.4852 13.4697 16.25V13.4696H19.0002C19.4896 13.4696 19.8864 13.0728 19.8864 12.5833C19.8864 12.0939 19.4896 11.6971 19.0002 11.6971H1.5835C1.34834 11.6967 1.12271 11.79 0.956422 11.9563C0.790139 12.1226 0.69689 12.3482 0.697267 12.5833V36.4167C0.69689 36.6518 0.790139 36.8775 0.956422 37.0438C1.12271 37.21 1.34834 37.3033 1.5835 37.3029ZM13.4697 13.4696V13.1312C13.4697 12.6417 13.073 12.245 12.5835 12.245C12.094 12.245 11.6973 12.6417 11.6973 13.1312V13.4696H13.4697ZM24.5306 26.0539C24.6973 25.8928 24.801 25.6668 24.801 25.4167C24.801 25.1665 24.6973 24.9406 24.5306 24.7794V26.0539ZM32.231 26.3029H29.1121C28.6227 26.3029 28.2259 25.9061 28.2259 25.4167C28.2259 24.9272 28.6227 24.5304 29.1121 24.5304H32.231C32.7204 24.5304 33.1172 24.9272 33.1172 25.4167C33.1172 25.9061 32.7204 26.3029 32.231 26.3029ZM36.4168 25.2931C36.1817 25.2935 35.956 25.2003 35.7898 25.034C35.6235 24.8677 35.5302 24.6421 35.5306 24.4069V21.2881C35.5306 20.7986 35.9274 20.4019 36.4168 20.4019C36.9063 20.4019 37.3031 20.7986 37.3031 21.2881V24.4069C37.3034 24.6421 37.2102 24.8677 37.0439 25.034C36.8776 25.2003 36.652 25.2935 36.4168 25.2931ZM36.4168 16.9769C36.1817 16.9773 35.956 16.8841 35.7898 16.7178C35.6235 16.5515 35.5302 16.3259 35.5306 16.0907V12.9736C35.5306 12.4842 35.9274 12.0874 36.4168 12.0874C36.9063 12.0874 37.3031 12.4842 37.3031 12.9736V16.0907C37.3035 16.3258 37.2102 16.5515 37.0439 16.7178C36.8776 16.8841 36.652 16.9773 36.4168 16.9769ZM25.979 2.46958H22.862C22.3725 2.46958 21.9758 2.0728 21.9758 1.58335C21.9758 1.09389 22.3725 0.697113 22.862 0.697113H25.979C26.4685 0.697113 26.8652 1.09389 26.8652 1.58335C26.8652 2.0728 26.4685 2.46958 25.979 2.46958ZM14.5475 2.46958H17.6646H17.6646C18.154 2.46958 18.5508 2.0728 18.5508 1.58335C18.5508 1.09389 18.154 0.697113 17.6646 0.697113H14.5475C14.0581 0.697113 13.6613 1.09389 13.6613 1.58335C13.6613 2.0728 14.0581 2.46958 14.5475 2.46958Z" fill="#363334"/>
</svg>
