<svg width="14" height="21" viewBox="0 0 14 21" fill="none" xmlns="http://www.w3.org/2000/svg">
<path fill-rule="evenodd" clip-rule="evenodd" d="M5.31252 0H8.14586C9.12349 0.00116992 9.91579 1.0265 9.9167 2.29167V3.66667H13.1042C13.2998 3.66667 13.4584 3.87187 13.4584 4.125C13.4584 4.37813 13.2998 4.58333 13.1042 4.58333H12.0417V17.875C12.0408 19.1402 11.2485 20.1655 10.2709 20.1667H3.18751C2.20988 20.1655 1.41758 19.1402 1.41667 17.875V4.58333H0.354168C0.158566 4.58333 0 4.37813 0 4.125C0 3.87187 0.158566 3.66667 0.354168 3.66667H3.54168V2.29167C3.54258 1.0265 4.33488 0.00116992 5.31252 0ZM3.64531 6.55083C3.71174 6.46486 3.80186 6.41659 3.89581 6.41666C3.98977 6.41659 4.07989 6.46486 4.14632 6.55083C4.21275 6.6368 4.25005 6.75342 4.25 6.87499V16.9583C4.25 17.2115 4.09142 17.4167 3.89581 17.4167C3.7002 17.4167 3.54163 17.2115 3.54163 16.9583V6.87499C3.54157 6.75342 3.57887 6.6368 3.64531 6.55083ZM6.47868 6.55083C6.54511 6.46486 6.63523 6.41659 6.72919 6.41666C6.82314 6.41659 6.91326 6.46486 6.97969 6.55083C7.04613 6.6368 7.08343 6.75342 7.08337 6.87499V16.9583C7.08337 17.2115 6.9248 17.4167 6.72919 17.4167C6.53358 17.4167 6.375 17.2115 6.375 16.9583V6.87499C6.37495 6.75342 6.41225 6.6368 6.47868 6.55083ZM9.20837 6.87499V16.9583C9.20837 17.2115 9.36692 17.4167 9.5625 17.4167C9.75808 17.4167 9.91663 17.2115 9.91663 16.9583V6.87499C9.91663 6.62186 9.75808 6.41666 9.5625 6.41666C9.36692 6.41666 9.20837 6.62186 9.20837 6.87499ZM4.25 2.29166C4.25064 1.53261 4.72597 0.917489 5.31251 0.916661H8.14587C8.73241 0.917489 9.20773 1.53261 9.20837 2.29166V3.66666H4.25V2.29166ZM10.2709 19.25C10.8574 19.2492 11.3327 18.6341 11.3334 17.875V4.58334H2.125V17.875C2.12564 18.6341 2.60097 19.2492 3.1875 19.25H10.2709Z" fill="#D2003C"/>
</svg>
