<svg width="44" height="44" viewBox="0 0 44 44" fill="none" xmlns="http://www.w3.org/2000/svg">
<path fill-rule="evenodd" clip-rule="evenodd" d="M18.2929 37.707C18.1053 37.5196 17.9999 37.2652 17.9999 37V19.414L0.292929 1.707C0.00693884 1.42103 -0.0786268 0.990949 0.0761316 0.617296C0.23089 0.243643 0.595495 8.26154e-06 0.999929 7.89228e-10H42.9999C43.4044 -1.60118e-05 43.769 0.243628 43.9238 0.617308C44.0786 0.990987 43.993 1.4211 43.7069 1.70706L25.9999 19.4141V43C25.9999 43.4044 25.7563 43.769 25.3826 43.9238C25.009 44.0786 24.5789 43.993 24.2929 43.707L18.2929 37.707ZM40.5859 2H3.41399L19.7069 18.293C19.8945 18.4804 19.9999 18.7348 19.9999 19V36.5859L23.9999 40.5859V19C23.9998 18.7348 24.1052 18.4804 24.2929 18.293L40.5859 2Z" fill="#363334"/>
</svg>
