<svg viewBox="0 0 44 44"><defs/><path fill="#363334" fill-rule="nonzero" d="M1 12a1 1 0 001-1V3.414l14.293 14.293a.997.997 0 001.414 0 .999.999 0 000-1.414L3.414 2H11a1 1 0 100-2H1a1 1 0 00-1 1v10a1 1 0 001 1zM43.382.077A1.01 1.01 0 0043 0H33a1 1 0 100 2h7.586L26.293 16.293a.999.999 0 101.414 1.414L42 3.414V11a1 1 0 102 0V1a.996.996 0 00-.618-.923zM.618 43.923C.74 43.973.87 44 1 44h10a1 1 0 100-2H3.414l14.293-14.293a.999.999 0 10-1.414-1.414L2 40.586V33a1 1 0 10-2 0v10a.996.996 0 00.618.923zM43 32a1 1 0 00-1 1v7.586L27.707 26.293a.999.999 0 10-1.414 1.414L40.586 42H33a1 1 0 100 2h10a.996.996 0 001-1V33a1 1 0 00-1-1z"/></svg>