<svg width="51" height="40" viewBox="0 0 51 40" fill="none" xmlns="http://www.w3.org/2000/svg">
<path fill-rule="evenodd" clip-rule="evenodd" d="M1.63527 30.1648C2.25871 30.1648 2.76468 29.6599 2.76468 29.0353C2.76468 22.9094 7.14454 17.7536 13.1801 16.7744C13.7956 16.6739 14.2147 16.0934 14.1141 15.479C14.1077 15.4375 14.0908 15.401 14.0739 15.3643L14.0739 15.3643C14.0641 15.3431 14.0542 15.3218 14.0464 15.2994C14.139 14.7641 13.8566 14.2254 13.3269 14.0401C11.0625 13.2496 9.54115 11.1059 9.54115 8.70593C9.54115 5.59214 12.0744 3.05887 15.1882 3.05887C16.4916 3.05887 17.7147 3.49031 18.7267 4.30574C19.2123 4.69878 19.9227 4.62198 20.3146 4.13633C20.7054 3.64955 20.6297 2.93915 20.1441 2.54838C18.747 1.4201 16.9862 0.800049 15.1882 0.800049C10.8287 0.800049 7.28233 4.34753 7.28233 8.70593C7.28233 11.2844 8.54501 13.6426 10.5621 15.104C4.62031 17.0557 0.505859 22.5853 0.505859 29.0353C0.505859 29.6599 1.01184 30.1648 1.63527 30.1648ZM25.3532 5.31774C30.3351 5.31774 34.3885 9.37119 34.3885 14.3542C34.3885 17.4397 32.8311 20.1672 30.4627 21.797C37.8332 23.7701 43.0274 29.9852 43.4227 38.0153C43.4532 38.6388 42.972 39.1685 42.3497 39.199C42.3305 39.2001 42.3125 39.2001 42.2933 39.2001C41.6947 39.2001 41.1955 38.7303 41.1661 38.126C40.746 29.5865 34.096 23.3883 25.3532 23.3883C16.6104 23.3883 9.96047 29.5865 9.54033 38.126C9.50983 38.7495 8.98466 39.2204 8.35671 39.199C7.73327 39.1685 7.25327 38.6388 7.28376 38.0153C7.67906 29.9852 12.8732 23.7701 20.2438 21.797C17.8754 20.1672 16.3179 17.4397 16.3179 14.3542C16.3179 9.37119 20.3714 5.31774 25.3532 5.31774ZM25.3532 7.57663C21.616 7.57663 18.5767 10.617 18.5767 14.3542C18.5767 18.0903 21.616 21.1296 25.3532 21.1296C29.0904 21.1296 32.1296 18.0903 32.1296 14.3542C32.1296 10.617 29.0904 7.57663 25.3532 7.57663ZM43.4234 8.70593C43.4234 11.2844 42.1607 13.6426 40.1436 15.104C46.0854 17.0557 50.1998 22.5853 50.1998 29.0353C50.1998 29.6599 49.6939 30.1648 49.0704 30.1648C48.447 30.1648 47.941 29.6599 47.941 29.0353C47.941 22.9094 43.5612 17.7536 37.5256 16.7733C36.9101 16.6739 36.4922 16.0934 36.5916 15.4779C36.5987 15.4365 36.6153 15.4001 36.6319 15.3636C36.6417 15.3422 36.6514 15.3208 36.6593 15.2983C36.5656 14.763 36.8479 14.2231 37.3776 14.039C39.6432 13.2484 41.1646 11.1048 41.1646 8.7048C41.1646 5.59101 38.6313 3.05774 35.5175 3.05774C34.2141 3.05774 32.991 3.48918 31.979 4.30461C31.4934 4.69652 30.783 4.62085 30.3911 4.1352C29.9992 3.64955 30.076 2.93915 30.5616 2.54725C31.9587 1.4201 33.7195 0.800049 35.5175 0.800049C39.877 0.800049 43.4234 4.34753 43.4234 8.70593Z" fill="#D2003C"/>
</svg>
