<svg width="25" height="27" viewBox="0 0 25 27" fill="none" xmlns="http://www.w3.org/2000/svg">
<circle cx="12.5" cy="12.5152" r="12.5" fill="#FFDCE6"/>
<path fill-rule="evenodd" clip-rule="evenodd" d="M18.8935 13.8215C18.6958 14.1293 16.8902 17.0117 16.5148 19.8839C16.4817 20.4663 16.0312 21.3946 14.9383 21.3946H10.2023C9.13963 21.3946 8.6755 20.4752 8.62281 19.8577C8.24926 17.0016 6.44186 14.1246 6.2465 13.8209C4.97961 12.2989 4.28223 10.3621 4.28223 8.36234C4.28223 3.73221 8.00002 6.10352e-05 12.5703 6.10352e-05C17.1406 6.10352e-05 20.8584 3.73221 20.8584 8.32014V8.36234C20.8584 10.3716 20.161 12.309 18.8935 13.8215ZM15.5122 21.8448C15.4329 21.5262 15.1109 21.3337 14.7941 21.4127L10.0581 22.6061C9.74078 22.6857 9.54837 23.009 9.62829 23.3269C9.69578 23.5967 9.93673 23.7768 10.2019 23.7768C10.2499 23.7768 10.2984 23.7709 10.347 23.759L15.083 22.5656C15.3992 22.486 15.5916 22.1627 15.5122 21.8448ZM14.7932 23.7846L10.0572 24.978C9.73984 25.0576 9.54743 25.3809 9.62735 25.6988C9.69484 25.9686 9.93579 26.1487 10.201 26.1487C10.249 26.1487 10.2975 26.1428 10.346 26.1309L15.0821 24.9375C15.3994 24.8579 15.5918 24.5346 15.5119 24.2167C15.432 23.8981 15.1105 23.7068 14.7932 23.7846ZM10.2016 11.886H9.60964C9.28345 11.886 9.01763 11.6197 9.01763 11.2917C9.01763 10.9637 9.28345 10.6974 9.60964 10.6974C9.93583 10.6974 10.2016 10.9637 10.2016 11.2917V11.886ZM11.3858 20.2063H13.7538V13.0748H11.3858V20.2063ZM14.9381 20.2064V13.0749H15.5301C16.5092 13.0749 17.3061 12.275 17.3061 11.292C17.3061 10.3091 16.5092 9.50917 15.5301 9.50917C14.5509 9.50917 13.754 10.3091 13.754 11.292V11.8863H11.386V11.292C11.386 10.3091 10.5892 9.50917 9.61 9.50917C8.63082 9.50917 7.83398 10.3091 7.83398 11.292C7.83398 12.275 8.63082 13.0749 9.61 13.0749H10.202V20.2064C9.88588 20.2064 9.8172 19.8873 9.79944 19.7304C9.36787 16.4279 7.30355 13.271 7.21593 13.1379C7.2035 13.1189 7.18988 13.1011 7.17508 13.0832C6.07277 11.7716 5.46596 10.0951 5.46596 8.32059C5.46596 4.38816 8.65273 1.18909 12.57 1.18909C16.4873 1.18909 19.6741 4.38816 19.6741 8.32059V8.36278C19.6741 10.1041 19.0673 11.78 17.9662 13.0815C17.9508 13.0993 17.9372 13.1183 17.9241 13.1379C17.8365 13.271 15.7728 16.4273 15.3371 19.772C15.3311 19.8736 15.2844 20.2064 14.9381 20.2064ZM14.938 11.2917V11.886H15.53C15.8562 11.886 16.122 11.6197 16.122 11.2917C16.122 10.9637 15.8562 10.6974 15.53 10.6974C15.2038 10.6974 14.938 10.9637 14.938 11.2917Z" fill="#D2003C"/>
</svg>
