<svg width="12" height="12" viewBox="0 0 12 12" fill="none" xmlns="http://www.w3.org/2000/svg">
<path fill-rule="evenodd" clip-rule="evenodd" d="M10.5012 0.294781L11.3723 1.1659C11.5621 1.35568 11.6667 1.60807 11.6667 1.87641C11.6667 2.14514 11.5621 2.39753 11.3723 2.5877L10.6462 3.31376L4.48069 9.47889L4.10191 9.85729C4.07196 9.88762 4.03735 9.91251 3.99924 9.93118L0.561032 11.6268C0.506198 11.654 0.447475 11.6668 0.389141 11.6668C0.288028 11.6668 0.188472 11.6275 0.113804 11.5529C-0.00364183 11.4354 -0.0335866 11.2554 0.0399143 11.106L1.73549 7.66743C1.75416 7.62931 1.77905 7.5947 1.80938 7.56437L8.35329 1.02085L9.07975 0.294781C9.26914 0.104612 9.52153 0 9.79026 0H9.79064C10.059 0 10.3114 0.104612 10.5012 0.294781ZM10.3713 2.48891L10.8224 2.03741C10.8652 1.99424 10.8889 1.93746 10.8889 1.87641C10.8889 1.81574 10.8652 1.75896 10.8224 1.71579L9.95087 0.844671C9.9077 0.801504 9.85092 0.777781 9.79026 0.777781C9.72959 0.777781 9.67242 0.801504 9.62964 0.844671L9.17814 1.29579L10.3713 2.48891ZM3.3704 8.81503H4.04474L9.82137 3.0388L8.62824 1.84567L2.69567 7.77785H2.98151C3.19618 7.77785 3.3704 7.95208 3.3704 8.16675V8.81503ZM2.943 9.585L1.63398 10.2306L1.43642 10.033L2.16482 8.5556H2.5926V9.20388C2.5926 9.40494 2.74699 9.56439 2.943 9.585Z" fill="#363334"/>
</svg>
