<svg width="19" height="19" viewBox="0 0 19 19" fill="none" xmlns="http://www.w3.org/2000/svg">
<path fill-rule="evenodd" clip-rule="evenodd" d="M9.33333 0C4.17868 0 0 4.17868 0 9.33333C0 14.488 4.17868 18.6667 9.33333 18.6667C14.488 18.6667 18.6667 14.488 18.6667 9.33333C18.6607 4.18117 14.4855 0.00600648 9.33333 0ZM9.33333 17.3333C4.91506 17.3333 1.33333 13.7516 1.33333 9.33333C1.33333 4.91506 4.91506 1.33333 9.33333 1.33333C13.7516 1.33333 17.3333 4.91506 17.3333 9.33333C17.3285 13.7496 13.7496 17.3285 9.33333 17.3333ZM10 4.13281V8.66667H14.5339C14.902 8.66667 15.2005 8.96515 15.2005 9.33334C15.2005 9.70153 14.902 10 14.5339 10H10V14.5339C10 14.902 9.70152 15.2005 9.33333 15.2005C8.96514 15.2005 8.66667 14.902 8.66667 14.5339V10H4.13346C3.76527 10 3.46679 9.70153 3.46679 9.33334C3.46679 8.96515 3.76527 8.66667 4.13346 8.66667H8.66667V4.13281C8.66667 3.76462 8.96514 3.46615 9.33333 3.46615C9.70152 3.46615 10 3.76462 10 4.13281Z" fill="#363334"/>
</svg>
