<svg width="25" height="25" viewBox="0 0 25 25" fill="none" xmlns="http://www.w3.org/2000/svg">
<circle cx="12.5" cy="12.5" r="12.5" fill="#FFDCE6"/>
<path fill-rule="evenodd" clip-rule="evenodd" d="M2.55973 3.88451H22.8199C23.0995 3.88451 23.3264 3.65347 23.3264 3.36879C23.3264 3.08412 23.0995 2.85308 22.8199 2.85308H14.2093V2.33737C14.2093 2.05269 13.9824 1.82166 13.7028 1.82166H11.6768C11.3972 1.82166 11.1703 2.05269 11.1703 2.33737V2.85308H2.55973C2.28014 2.85308 2.05322 3.08412 2.05322 3.36879C2.05322 3.65347 2.28014 3.88451 2.55973 3.88451ZM22.3126 5.43182V19.8718C22.3126 20.1564 22.0857 20.3875 21.8061 20.3875H13.1956V20.6897L16.0862 23.6329C16.2842 23.8345 16.2842 24.1604 16.0862 24.3621C15.9874 24.4626 15.8578 24.5132 15.7281 24.5132C15.5984 24.5132 15.4688 24.4626 15.37 24.3621L12.6891 21.6324L10.0082 24.3621C9.90939 24.4626 9.77972 24.5132 9.65006 24.5132C9.52039 24.5132 9.39073 24.4626 9.29196 24.3621C9.09392 24.1604 9.09392 23.8345 9.29196 23.6329L12.1826 20.6897V20.3875H3.57202C3.29243 20.3875 3.06552 20.1564 3.06552 19.8718V5.43182C3.06552 5.14715 3.29243 4.91611 3.57202 4.91611H21.8061C22.0857 4.91611 22.3126 5.14715 22.3126 5.43182ZM4.07844 19.3559H21.2996V5.94733H4.07844V19.3559ZM5.95589 16.1105C5.85712 16.211 5.72746 16.2616 5.59779 16.2616C5.46813 16.2616 5.33846 16.211 5.23969 16.1105C5.04165 15.9088 5.04165 15.5829 5.23969 15.3813L8.27871 12.287C8.47676 12.0853 8.79687 12.0853 8.99491 12.287L10.6628 13.9852L14.3568 10.2241C14.5548 10.0225 14.8749 10.0225 15.0729 10.2241L16.7409 11.9224L18.5572 10.073H17.7539C17.4743 10.073 17.2474 9.842 17.2474 9.55732C17.2474 9.27265 17.4743 9.04161 17.7539 9.04161H19.7799C19.8457 9.04161 19.9116 9.05553 19.9734 9.08132C20.0975 9.13392 20.1962 9.23449 20.2474 9.36032C20.2727 9.42324 20.2864 9.49028 20.2864 9.55732V11.6202C20.2864 11.9048 20.0595 12.1359 19.7799 12.1359C19.5003 12.1359 19.2734 11.9048 19.2734 11.6202V10.8023L17.099 13.0162C16.9009 13.2179 16.5808 13.2179 16.3828 13.0162L14.7149 11.318L11.0209 15.0791C10.8229 15.2807 10.5028 15.2807 10.3047 15.0791L8.63681 13.3808L5.95589 16.1105Z" fill="#D2003C"/>
</svg>
