<svg width="25" height="25" viewBox="0 0 25 25" fill="none" xmlns="http://www.w3.org/2000/svg">
<circle cx="12.5" cy="12.5" r="12.5" fill="#FFDCE6"/>
<path fill-rule="evenodd" clip-rule="evenodd" d="M8.77786 4.45568C8.48656 4.45568 8.25109 4.22022 8.25109 3.92891C8.25109 2.76686 9.19612 1.82184 10.3582 1.82184H14.5723C15.7344 1.82184 16.6794 2.76686 16.6794 3.92891C16.6794 4.22022 16.4439 4.45568 16.1526 4.45568C15.8613 4.45568 15.6259 4.22022 15.6259 3.92891C15.6259 3.34789 15.1533 2.87538 14.5723 2.87538H10.3582C9.77714 2.87538 9.30463 3.34789 9.30463 3.92891C9.30463 4.22022 9.06916 4.45568 8.77786 4.45568ZM1.40323 4.98245H23.5275C23.8188 4.98245 24.0543 5.21792 24.0543 5.50922V12.884C24.0543 13.1753 23.8188 13.4107 23.5275 13.4107H23.0007V22.3658C23.0007 22.6571 22.7653 22.8926 22.474 22.8926H2.45677C2.16547 22.8926 1.93 22.6571 1.93 22.3658V13.4107H1.40323C1.11193 13.4107 0.876465 13.1753 0.876465 12.884V5.50922C0.876465 5.21792 1.11193 4.98245 1.40323 4.98245ZM2.98347 21.839H21.9471V13.4107H18.7865V14.991C18.7865 15.2823 18.5511 15.5178 18.2598 15.5178C17.9685 15.5178 17.733 15.2823 17.733 14.991V13.4107H7.19762V14.991C7.19762 15.2823 6.96215 15.5178 6.67085 15.5178C6.37955 15.5178 6.14408 15.2823 6.14408 14.991V13.4107H2.98347V21.839ZM23.0006 12.3574H18.7865V10.7771C18.7865 10.4858 18.551 10.2503 18.2597 10.2503C17.9684 10.2503 17.7329 10.4858 17.7329 10.7771V12.3574H7.19755V10.7771C7.19755 10.4858 6.96209 10.2503 6.67078 10.2503C6.37948 10.2503 6.14402 10.4858 6.14402 10.7771V12.3574H1.92987V6.03616H23.0006V12.3574Z" fill="#D2003C"/>
</svg>
