<svg width="30" height="30" viewBox="0 0 30 30" fill="none" xmlns="http://www.w3.org/2000/svg">
<circle cx="15.5" cy="15.5" r="12.5" fill="#FFDCE6"/>
<path fill-rule="evenodd" clip-rule="evenodd" d="M28.2245 8.35527C28.4219 8.47369 28.5431 8.6921 28.5418 8.92565C28.5405 9.15985 28.4174 9.37563 28.2175 9.49339L25.2409 11.2335L28.2149 12.9558C28.4154 13.0716 28.5399 13.288 28.5418 13.5229C28.5437 13.7571 28.4232 13.9755 28.2245 14.0946L24.6728 16.2307V22.1739C24.6728 22.4114 24.5464 22.6311 24.3433 22.7475L15.3155 27.9165C15.3082 27.9203 15.3004 27.9231 15.2926 27.9258L15.2925 27.9258C15.2881 27.9274 15.2836 27.929 15.2793 27.9307L15.273 27.9336C15.2562 27.9415 15.2394 27.948 15.2214 27.9546C15.1498 27.9816 15.0756 28 15.0002 28C14.9247 28 14.8512 27.9816 14.779 27.9546L14.7748 27.953L14.7748 27.953L14.7747 27.9529C14.7576 27.9463 14.7415 27.9401 14.7255 27.9322C14.7192 27.9292 14.7126 27.9268 14.7061 27.9244L14.7061 27.9244C14.6973 27.9212 14.6885 27.9181 14.6803 27.9132L5.65259 22.6502C5.4514 22.5331 5.3276 22.3147 5.3276 22.0791V16.2682L1.77131 14.0913C1.57528 13.9715 1.45598 13.7531 1.45856 13.5196C1.46114 13.286 1.58559 13.0709 1.78549 12.9551L4.70597 11.2637L1.78743 9.58944C1.58688 9.47497 1.46178 9.25919 1.45856 9.02499C1.45534 8.79144 1.57399 8.57303 1.77131 8.45198L10.5224 3.09492C10.7223 2.97256 10.9712 2.96927 11.1724 3.08637L15.0002 5.30274L18.828 3.08637C19.0285 2.96927 19.2748 2.97124 19.4734 3.09229L28.2245 8.35527ZM10.8636 4.42059L3.3867 8.99675L6.01571 10.5046L13.6932 6.05935L10.8636 4.42059ZM15.0001 6.81597L22.6375 11.2382L15.0394 15.6801L7.32906 11.2586L15.0001 6.81597ZM13.735 16.4419L6.01887 12.0164L3.38212 13.5433L10.8623 18.1215L13.735 16.4419ZM6.61749 17.0569L6.61814 17.0573V21.6969L14.3562 26.2079V17.595L11.1759 19.4542C11.0766 19.5127 10.9663 19.5417 10.8554 19.5417C10.7406 19.5417 10.6252 19.5101 10.5233 19.4476L6.61814 17.0573V17.0569H6.61749ZM15.6451 26.2185L23.3832 21.7878H23.3825V17.005L19.4729 19.3563C19.3723 19.4174 19.2588 19.4477 19.1453 19.4477C19.0363 19.4477 18.9273 19.4194 18.8293 19.3635L15.6451 17.5372V26.2185ZM26.6088 13.5384L19.1377 18.031L16.3475 16.431L23.9399 11.993L26.6088 13.5384ZM16.3068 6.0594L23.9378 10.4777L26.6139 8.91391L19.1396 4.41932L16.3068 6.0594Z" fill="#D2003C"/>
</svg>
