<svg width="20" height="20" fill="#ffffff" viewBox="0 0 20 20" xmlns="http://www.w3.org/2000/svg">
<path fill-rule="evenodd" clip-rule="evenodd" d="M7.81682 0.833258C4.48487 0.833271 1.61693 3.18694 0.966916 6.45487C0.316896 9.72279 2.06583 12.9948 5.14415 14.2699C8.22247 15.5449 11.7728 14.4679 13.6239 11.6975C15.4751 8.92713 15.1114 5.23489 12.7554 2.87885C11.4469 1.56703 9.66961 0.830841 7.81682 0.833258ZM7.81693 1.74993C10.7155 1.74665 13.2125 3.79178 13.7804 6.63416C14.3483 9.47654 12.8288 12.3242 10.1515 13.4349C7.47424 14.5456 4.38516 13.61 2.77413 11.2004C1.1631 8.7908 1.47901 5.57864 3.5286 3.52905C4.66447 2.38918 6.20774 1.74892 7.81693 1.74993ZM18.8684 18.8689C18.4738 19.2634 17.8343 19.264 17.439 18.8703L13.3513 14.7825C12.9575 14.3872 12.9581 13.7477 13.3527 13.3531C13.7472 12.9586 14.3867 12.958 14.7821 13.3517L18.8698 17.4395C19.2636 17.8348 19.263 18.4743 18.8684 18.8689Z" />
</svg>
