<svg fill="#ffffff" width="22" height="22" viewBox="0 0 22 22">
  <path fill-rule="evenodd" d="M19.885 9.167H18.62a8.503 8.503 0 00-.877-2.207l.772-.772a1.186 1.186 0 000-1.676l-1.027-1.027a1.176 1.176 0 00-.838-.347h-.001c-.314 0-.615.124-.836.347l-.773.772a8.41 8.41 0 00-2.207-.88V2.115A1.2 1.2 0 0011.635.917h-1.27a1.2 1.2 0 00-1.198 1.198v1.262a8.38 8.38 0 00-2.208.88l-.771-.772a1.214 1.214 0 00-1.676 0L3.484 4.513a1.187 1.187 0 000 1.675l.773.772a8.404 8.404 0 00-.878 2.207H2.115a1.2 1.2 0 00-1.198 1.198v1.27a1.2 1.2 0 001.198 1.198H3.38c.187.774.482 1.516.877 2.207l-.774.773a1.188 1.188 0 00.001 1.674l1.028 1.028a1.187 1.187 0 001.676 0l.772-.773c.69.395 1.434.69 2.207.877v1.266a1.2 1.2 0 001.198 1.198h1.27a1.2 1.2 0 001.198-1.198v-1.267a8.432 8.432 0 002.207-.875l.772.771c.221.223.522.349.837.348.315.001.617-.124.838-.347l1.028-1.028a1.186 1.186 0 000-1.675l-.77-.771c.394-.691.688-1.434.875-2.208h1.265a1.2 1.2 0 001.198-1.198v-1.27a1.2 1.2 0 00-1.198-1.198zM7.333 11a3.667 3.667 0 117.334 0 3.667 3.667 0 01-7.334 0zm.917 0a2.75 2.75 0 105.5 0 2.75 2.75 0 00-5.5 0zm11.635.917a.282.282 0 00.282-.282v-1.27a.282.282 0 00-.282-.282h-1.631a.459.459 0 01-.45-.366 7.511 7.511 0 00-1.025-2.569.459.459 0 01.058-.579l1.03-1.03a.269.269 0 000-.379l-1.028-1.027a.268.268 0 00-.377 0l-1.032 1.03a.456.456 0 01-.578.056 7.465 7.465 0 00-2.568-1.026.458.458 0 01-.367-.45V2.115a.282.282 0 00-.282-.282h-1.27a.282.282 0 00-.282.282v1.628a.46.46 0 01-.367.45 7.438 7.438 0 00-2.568 1.026.46.46 0 01-.58-.056L5.54 4.133a.274.274 0 00-.38 0L4.133 5.16a.27.27 0 00.001.38l1.03 1.029a.458.458 0 01.057.578 7.354 7.354 0 00-1.024 2.569.459.459 0 01-.45.367h-1.63a.282.282 0 00-.283.282v1.27c0 .155.127.281.282.282h1.631c.218 0 .406.153.45.366a7.486 7.486 0 001.024 2.569.459.459 0 01-.057.579l-1.03 1.03a.27.27 0 000 .38l1.027 1.026a.27.27 0 00.38 0l1.03-1.03a.458.458 0 01.578-.058c.784.5 1.655.848 2.568 1.023a.459.459 0 01.367.45v1.633a.282.282 0 00.282.282h1.27a.282.282 0 00.282-.282v-1.633c0-.218.153-.405.366-.45a7.48 7.48 0 002.57-1.023.456.456 0 01.577.058l1.03 1.03a.267.267 0 00.38 0l1.027-1.028a.268.268 0 000-.379l-1.029-1.029a.459.459 0 01-.057-.579c.5-.784.848-1.655 1.023-2.568a.46.46 0 01.45-.367h1.63z" clip-rule="evenodd"/>
</svg>
