<svg viewBox="0 0 44 44"><defs/><path fill="#363334" fill-rule="nonzero" d="M43.909.599c-.012-.028-.029-.053-.044-.081a.98.98 0 00-.169-.222c-.015-.015-.021-.034-.036-.048-.008-.007-.019-.009-.028-.016-.014-.011-.023-.026-.037-.037a.97.97 0 00-.269-.139c-.017-.006-.034-.006-.052-.01a.99.99 0 00-.29-.037c-.036.001-.069.005-.104.009-.086.01-.168.033-.25.065-.03.012-.059.02-.087.034-.012.006-.026.008-.038.015l-42 24a1 1 0 00.163 1.811L16 31.354V43a.999.999 0 001.837.547l6.125-9.382 10.705 3.778a1.005 1.005 0 00.818-.068 1 1 0 00.491-.658l8-36c.02-.091.025-.182.02-.272l.001-.011a.966.966 0 00-.088-.335zm-5.6 4.233L16.694 29.479 3.393 24.784 38.309 4.832zM18 39.639V32.06l4.021 1.419L18 39.639zm16.269-3.957l-15.543-5.486 22.451-25.6-6.908 31.086z"/></svg>