<svg width="11" height="9" viewBox="0 0 11 9" fill="none" xmlns="http://www.w3.org/2000/svg">
<path d="M3.64131 8.35296C3.54571 8.35306 3.45401 8.31506 3.38652 8.24737L0.709703 5.57056C0.617714 5.47973 0.581434 5.34657 0.614629 5.22163C0.647824 5.09669 0.745407 4.9991 0.870349 4.9659C0.995291 4.9327 1.12844 4.96898 1.21928 5.06096L3.64129 7.48297L10.0796 1.04539C10.1704 0.953401 10.3036 0.917126 10.4285 0.950326C10.5535 0.983527 10.6511 1.08111 10.6843 1.20606C10.7175 1.331 10.6812 1.46415 10.5892 1.55499L3.89611 8.24738C3.82861 8.31507 3.73692 8.35307 3.64132 8.35297L3.64131 8.35296Z" fill="#363334"/>
</svg>
