<svg width="20" height="20" fill="#ffffff" viewBox="0 0 20 20">
  <path fill-rule="evenodd" d="M1.833 19.625a.458.458 0 11-.916 0c0-4.48 3.082-8.245 7.235-9.312A5.046 5.046 0 015.5 5.875 5.048 5.048 0 0110.542.833a5.048 5.048 0 015.041 5.042 5.046 5.046 0 01-2.651 4.438c4.152 1.067 7.235 4.831 7.235 9.312a.458.458 0 11-.917 0c0-4.802-3.906-8.708-8.708-8.708s-8.709 3.906-8.709 8.708zM10.542 1.75a4.13 4.13 0 00-4.125 4.125A4.13 4.13 0 0010.542 10a4.13 4.13 0 004.125-4.125 4.13 4.13 0 00-4.125-4.125z" clip-rule="evenodd"  />
</svg>
