<svg viewBox="0 0 64 64"><defs/><g fill="none" fill-rule="evenodd"><path fill="#000" d="M31 48c1.654 0 3-1.346 3-3s-1.346-3-3-3-3 1.346-3 3 1.346 3 3 3zm0-4a1.001 1.001 0 010 2 1.001 1.001 0 010-2zM31 40c1.654 0 3-1.346 3-3V21c0-1.654-1.346-3-3-3s-3 1.346-3 3v16c0 1.654 1.346 3 3 3zm-1-19a1.001 1.001 0 012 0v16a1.001 1.001 0 01-2 0V21z"/><path fill="#000" d="M9 56h44c3.859 0 7-3.14 7-7 0-1.419-.652-2.937-.727-3.105a1.098 1.098 0 00-.075-.139L36.754 11.023a.98.98 0 00-.062-.096A7.018 7.018 0 0031 8a7.02 7.02 0 00-5.692 2.926.97.97 0 00-.061.096L2.802 45.756a1.033 1.033 0 00-.075.139C2.652 46.063 2 47.581 2 49c0 3.86 3.141 7 7 7zm-4.473-9.23l22.435-34.717.006-.01A5.019 5.019 0 0131 10c1.588 0 3.09.763 4.032 2.043l.006.01 22.435 34.718c.171.408.527 1.426.527 2.229 0 2.757-2.243 5-5 5H9c-2.757 0-5-2.243-5-5 0-.795.357-1.819.527-2.23z"/></g></svg>