<svg width="25" height="25" viewBox="0 0 25 25" fill="none" xmlns="http://www.w3.org/2000/svg">
<circle cx="12.5" cy="12.5" r="12.5" fill="#FFDCE6"/>
<path fill-rule="evenodd" clip-rule="evenodd" d="M21.0664 22.8925H4.00917C2.90246 22.8925 2.00244 21.9925 2.00244 20.8858V3.82857C2.00244 2.72186 2.90246 1.82184 4.00917 1.82184H21.0664C22.1731 1.82184 23.0731 2.72186 23.0731 3.82857V20.8858C23.0731 21.9925 22.1731 22.8925 21.0664 22.8925ZM4.32032 4.79169C4.28971 4.78165 4.26012 4.7666 4.22951 4.74654C4.21383 4.73693 4.19794 4.72325 4.18185 4.70939C4.17272 4.70152 4.16352 4.6936 4.15426 4.68633C4.06346 4.59101 4.00877 4.46058 4.00877 4.33014C4.00877 4.1997 4.06346 4.06926 4.15426 3.97394C4.17884 3.95388 4.20393 3.93381 4.22901 3.91374C4.25961 3.89367 4.28921 3.87862 4.31982 3.86859C4.34992 3.85354 4.38002 3.84351 4.41012 3.83849C4.47534 3.82344 4.54056 3.82344 4.60577 3.83849C4.64089 3.84351 4.67049 3.85354 4.70109 3.86859C4.73119 3.87862 4.7613 3.89367 4.7914 3.91374C4.80779 3.92712 4.82462 3.9405 4.84145 3.95388L4.86665 3.97394C4.95695 4.06926 5.01214 4.1997 5.01214 4.33014C5.01214 4.46058 4.95695 4.59101 4.86665 4.68633C4.85924 4.69238 4.85173 4.69889 4.84418 4.70544L4.84418 4.70544L4.84418 4.70544L4.84418 4.70544L4.84417 4.70544L4.84417 4.70545L4.84417 4.70545L4.84417 4.70545L4.84417 4.70545C4.82668 4.72062 4.80891 4.73602 4.7914 4.74654C4.7613 4.7666 4.73119 4.78165 4.70109 4.79169C4.67099 4.80674 4.64089 4.81677 4.60577 4.82179C4.57617 4.8268 4.54106 4.83182 4.51096 4.83182C4.48086 4.83182 4.44574 4.8268 4.41062 4.82179C4.38052 4.81677 4.35042 4.80674 4.32032 4.79169ZM6.61232 4.82179C6.58272 4.82681 6.5476 4.83183 6.5175 4.83183C6.38706 4.83183 6.25612 4.77664 6.1613 4.68634C6.0705 4.59102 6.01582 4.46058 6.01582 4.33014C6.01582 4.26493 6.03087 4.19971 6.05595 4.1395C6.08103 4.0793 6.11615 4.02412 6.1613 3.97395C6.27619 3.85856 6.45228 3.80338 6.61232 3.83849C6.64743 3.84351 6.67703 3.85355 6.70764 3.8686C6.73774 3.87863 6.76784 3.89368 6.79794 3.91375C6.81433 3.92378 6.83116 3.93827 6.84799 3.95276L6.848 3.95277C6.85641 3.96001 6.86483 3.96726 6.87319 3.97395C6.96349 4.06927 7.01868 4.19971 7.01868 4.33014C7.01868 4.46058 6.96349 4.59102 6.87319 4.68634C6.86578 4.69239 6.85827 4.6989 6.85071 4.70546L6.8507 4.70547C6.83321 4.72063 6.81545 4.73603 6.79794 4.74654C6.76784 4.76661 6.73774 4.78166 6.70764 4.79169C6.67754 4.80674 6.64743 4.81678 6.61232 4.82179ZM8.52434 4.83176C8.65478 4.83176 8.78521 4.77657 8.88053 4.68627C8.97083 4.59095 9.02602 4.46051 9.02602 4.33007C9.02602 4.19964 8.97083 4.0692 8.88053 3.97388C8.69491 3.78826 8.35377 3.78826 8.16814 3.97388C8.07734 4.0692 8.02266 4.19964 8.02266 4.33007C8.02266 4.46051 8.07734 4.59095 8.16814 4.68627C8.26296 4.77657 8.3939 4.83176 8.52434 4.83176ZM21.0666 21.8887H4.00943C3.45608 21.8887 3.00607 21.4386 3.00607 20.8853V6.83818H22.07V20.8853C22.07 21.4386 21.62 21.8887 21.0666 21.8887ZM21.0666 2.82491H4.00943C3.45608 2.82491 3.00607 3.27492 3.00607 3.82827V5.835H22.07V3.82827C22.07 3.27492 21.62 2.82491 21.0666 2.82491ZM17.8609 16.6534L13.9648 10.5012C13.9553 10.4867 13.9458 10.4726 13.9347 10.4596C13.6031 10.0372 12.9941 9.84854 12.538 9.84854C12.0314 9.84854 11.5487 10.0773 11.2206 10.4967L7.21821 16.6483C7.20667 16.6659 7.19613 16.6845 7.1871 16.7035C7.15901 16.7612 7.01954 17.0657 7.01954 17.3743C7.01954 18.2041 7.73996 18.8788 8.62442 18.8788H16.4517C17.3366 18.8788 18.0566 18.2041 18.0566 17.3743C18.0566 17.0657 17.9171 16.7612 17.889 16.7035C17.8805 16.6865 17.8714 16.6699 17.8609 16.6534ZM8.62417 17.8756H16.4514C16.783 17.8756 17.0529 17.6509 17.0524 17.3739C17.0524 17.3228 17.0188 17.2189 16.9942 17.1612L13.1348 11.0663C13.0385 10.9619 12.7796 10.8515 12.5378 10.8515C12.3361 10.8515 12.148 10.9373 12.0346 11.0808L8.07985 17.1637C8.05175 17.2314 8.02266 17.3283 8.02266 17.3744C8.02266 17.6509 8.29256 17.8756 8.62417 17.8756ZM12.5378 11.8552C12.2604 11.8552 12.0361 12.0799 12.0361 12.3569V14.8653C12.0361 15.1422 12.2604 15.3669 12.5378 15.3669C12.8152 15.3669 13.0395 15.1422 13.0395 14.8653V12.3569C13.0395 12.0799 12.8152 11.8552 12.5378 11.8552ZM12.7285 15.9088C12.7586 15.9189 12.7887 15.9339 12.8188 15.954C12.8351 15.9674 12.852 15.9807 12.8688 15.9941C12.8772 16.0008 12.8856 16.0075 12.894 16.0142C12.9843 16.1095 13.0395 16.24 13.0395 16.3704C13.0395 16.5008 12.9843 16.6313 12.894 16.7266C12.8694 16.7467 12.8438 16.7667 12.8188 16.7868C12.7887 16.8069 12.7586 16.8219 12.7285 16.8319C12.6978 16.847 12.6682 16.857 12.6381 16.862C12.6345 16.8626 12.6308 16.8631 12.6273 16.8636C12.5966 16.8681 12.5688 16.8721 12.5378 16.8721C12.4074 16.8721 12.2764 16.8169 12.1816 16.7266C12.0908 16.6313 12.0361 16.5008 12.0361 16.3704C12.0361 16.24 12.0908 16.1095 12.1816 16.0142C12.2965 15.8988 12.4726 15.8486 12.6381 15.8787C12.6682 15.8838 12.6978 15.8938 12.7285 15.9088Z" fill="#D2003C"/>
</svg>
